<svg width="21" height="21" viewBox="0 0 21 21" fill="none" xmlns="http://www.w3.org/2000/svg">
<path d="M5.25 0.960938C4.00736 0.960938 3 1.9683 3 3.21094V7.49643C3.16331 7.47307 3.33026 7.46098 3.50003 7.46098C3.84681 7.46099 4.18264 7.51169 4.5 7.6062V3.21094C4.5 2.79672 4.83579 2.46094 5.25 2.46094H14.75C15.1642 2.46094 15.5 2.79672 15.5 3.21094V17.4609H10.5V18.711C10.5 18.7951 10.4968 18.8784 10.4905 18.9609H17.75C19.5449 18.9609 21 17.5059 21 15.7109V11.9609H17V3.21094C17 1.9683 15.9926 0.960938 14.75 0.960938H5.25ZM9.46466 10.4609H12.75C13.1642 10.4609 13.5 10.1252 13.5 9.71094C13.5 9.29672 13.1642 8.96094 12.75 8.96094H8.87276C9.17793 9.39843 9.3857 9.90891 9.46466 10.4609ZM17.75 17.4609H17V13.4609H19.5V15.7109C19.5 16.6774 18.7165 17.4609 17.75 17.4609ZM6.5 5.71094C6.5 5.29672 6.83579 4.96094 7.25 4.96094H12.75C13.1642 4.96094 13.5 5.29672 13.5 5.71094C13.5 6.12515 13.1642 6.46094 12.75 6.46094H7.25C6.83579 6.46094 6.5 6.12515 6.5 5.71094ZM0 12.711C0 12.2968 0.335786 11.961 0.75 11.961H1V10.961C1 9.58026 2.1193 8.46097 3.50002 8.46098C3.95538 8.46099 4.3823 8.58273 4.75002 8.79545C5.11776 8.5827 5.54471 8.46094 6.00011 8.46094C7.38082 8.46094 8.50011 9.58022 8.50011 10.9609V11.961H8.75C9.16421 11.961 9.5 12.2968 9.5 12.711V18.711C9.5 19.9536 8.49264 20.961 7.25 20.961H2.25C1.00736 20.961 0 19.9536 0 18.711V12.711ZM6 10.961V11.961H7.00011V10.9609C7.00011 10.4087 6.55239 9.96094 6.00011 9.96094C5.93177 9.96094 5.86504 9.96779 5.80056 9.98085C5.92895 10.2818 6 10.6131 6 10.961ZM4.5 11.961V10.961C4.5 10.4087 4.05229 9.96099 3.50001 9.96098C2.94772 9.96098 2.5 10.4087 2.5 10.961V11.961H4.5Z" fill="white"/>
</svg>
