<svg width="18" height="19" viewBox="0 0 18 19" fill="none" xmlns="http://www.w3.org/2000/svg">
<path d="M5.75 10.9609C6.99264 10.9609 8 11.9683 8 13.2109V16.7109C8 17.9536 6.99264 18.9609 5.75 18.9609H2.25C1.00736 18.9609 0 17.9536 0 16.7109V13.2109C0 11.9683 1.00736 10.9609 2.25 10.9609H5.75ZM15.75 10.9609C16.9926 10.9609 18 11.9683 18 13.2109V16.7109C18 17.9536 16.9926 18.9609 15.75 18.9609H12.25C11.0074 18.9609 10 17.9536 10 16.7109V13.2109C10 11.9683 11.0074 10.9609 12.25 10.9609H15.75ZM5.75 12.4609H2.25C1.83579 12.4609 1.5 12.7967 1.5 13.2109V16.7109C1.5 17.1252 1.83579 17.4609 2.25 17.4609H5.75C6.16421 17.4609 6.5 17.1252 6.5 16.7109V13.2109C6.5 12.7967 6.16421 12.4609 5.75 12.4609ZM15.75 12.4609H12.25C11.8358 12.4609 11.5 12.7967 11.5 13.2109V16.7109C11.5 17.1252 11.8358 17.4609 12.25 17.4609H15.75C16.1642 17.4609 16.5 17.1252 16.5 16.7109V13.2109C16.5 12.7967 16.1642 12.4609 15.75 12.4609ZM5.75 0.960938C6.99264 0.960938 8 1.9683 8 3.21094V6.71094C8 7.95358 6.99264 8.96094 5.75 8.96094H2.25C1.00736 8.96094 0 7.95358 0 6.71094V3.21094C0 1.9683 1.00736 0.960938 2.25 0.960938H5.75ZM15.75 0.960938C16.9926 0.960938 18 1.9683 18 3.21094V6.71094C18 7.95358 16.9926 8.96094 15.75 8.96094H12.25C11.0074 8.96094 10 7.95358 10 6.71094V3.21094C10 1.9683 11.0074 0.960938 12.25 0.960938H15.75ZM5.75 2.46094H2.25C1.83579 2.46094 1.5 2.79672 1.5 3.21094V6.71094C1.5 7.12515 1.83579 7.46094 2.25 7.46094H5.75C6.16421 7.46094 6.5 7.12515 6.5 6.71094V3.21094C6.5 2.79672 6.16421 2.46094 5.75 2.46094ZM15.75 2.46094H12.25C11.8358 2.46094 11.5 2.79672 11.5 3.21094V6.71094C11.5 7.12515 11.8358 7.46094 12.25 7.46094H15.75C16.1642 7.46094 16.5 7.12515 16.5 6.71094V3.21094C16.5 2.79672 16.1642 2.46094 15.75 2.46094Z" fill="white"/>
</svg>
