<svg width="20" height="17" viewBox="0 0 20 17" fill="none" xmlns="http://www.w3.org/2000/svg">
<path d="M4 4.96094C3.44772 4.96094 3 5.40865 3 5.96094C3 6.51322 3.44772 6.96094 4 6.96094H8C8.55228 6.96094 9 6.51322 9 5.96094C9 5.40865 8.55228 4.96094 8 4.96094H4ZM9 8.96094C9 8.40865 9.44772 7.96094 10 7.96094H14C14.5523 7.96094 15 8.40865 15 8.96094C15 9.51322 14.5523 9.96094 14 9.96094H10C9.44772 9.96094 9 9.51322 9 8.96094ZM13 10.9609C12.4477 10.9609 12 11.4087 12 11.9609C12 12.5132 12.4477 12.9609 13 12.9609H16C16.5523 12.9609 17 12.5132 17 11.9609C17 11.4087 16.5523 10.9609 16 10.9609H13ZM3.25 0.960938C1.45507 0.960938 0 2.41601 0 4.21094V13.7109C0 15.5059 1.45507 16.9609 3.25 16.9609H16.75C18.5449 16.9609 20 15.5059 20 13.7109V4.21094C20 2.41601 18.5449 0.960938 16.75 0.960938H3.25ZM6 2.46094V3.96094H7.5V2.46094H12.5V6.96094H14V2.46094H16.75C17.7165 2.46094 18.5 3.24444 18.5 4.21094V13.7109C18.5 14.6774 17.7165 15.4609 16.75 15.4609H14V13.9609H13C12.8274 13.9609 12.6598 13.9391 12.5 13.8979V15.4609H7.5V7.96094H6V15.4609H3.25C2.2835 15.4609 1.5 14.6774 1.5 13.7109V4.21094C1.5 3.24444 2.2835 2.46094 3.25 2.46094H6Z" fill="white"/>
</svg>
