<svg width="20" height="21" viewBox="0 0 20 21" fill="none" xmlns="http://www.w3.org/2000/svg">
<path d="M12 2.5C13.1046 2.5 14 3.39543 14 4.5V12.5H15L15 4.76758C15.5978 5.11339 16 5.75973 16 6.50001V12.7676C16.5978 13.1134 17 13.7597 17 14.5V16C17 17.3807 15.8807 18.5 14.5 18.5H12.5098C12.5065 18.5 12.5033 18.5 12.5 18.5H8C7.99754 18.5 7.99507 18.5 7.99261 18.5H5.5C4.11929 18.5 3 17.3807 3 16V9.5C3 8.75972 3.4022 8.11337 4 7.76756V4.5C4 3.39543 4.89543 2.5 6 2.5H12ZM5 7.5H6.87868C7.40911 7.5 7.91782 7.71071 8.29289 8.08579L12.4142 12.2071C12.5729 12.3658 12.7795 12.4657 13 12.4926V4.5C13 3.94772 12.5523 3.5 12 3.5H6C5.44772 3.5 5 3.94772 5 4.5V7.5ZM4 9.5V16C4 16.8284 4.67157 17.5 5.5 17.5H14.5C15.3284 17.5 16 16.8284 16 16V14.5C16 13.9477 15.5523 13.5 15 13.5H13.1213C12.5909 13.5 12.0822 13.2893 11.7071 12.9142L7.58579 8.79289C7.39825 8.60536 7.1439 8.5 6.87868 8.5H5C4.44772 8.5 4 8.94772 4 9.5Z" fill="white"/>
</svg>
