<svg width="21" height="22" viewBox="0 0 21 22" fill="none" xmlns="http://www.w3.org/2000/svg">
<path d="M9.4948 2.50763C9.98375 2.3307 10.5 2.6929 10.5 3.21288V3.93267L12 3.38989V3.21288C12 1.65295 10.4512 0.566349 8.98441 1.09713L2.14414 3.57232C0.857281 4.03798 0 5.25988 0 6.6284V12.7101C0 14.2645 1.5378 15.3489 3 14.8314V13.2363L2.5052 13.4153C2.01625 13.5922 1.5 13.23 1.5 12.7101V6.6284C1.5 5.8915 1.96161 5.23355 2.65454 4.98282L9.4948 2.50763ZM13.4948 5.50763C13.9837 5.3307 14.5 5.6929 14.5 6.21288V6.93267L16 6.38989V6.21288C16 4.65295 14.4512 3.56635 12.9844 4.09713L5.81427 6.69169C4.72539 7.0857 4 8.11962 4 9.2776V15.7101C4 17.2645 5.5378 18.3489 7 17.8314V16.2363L6.5052 16.4153C6.01625 16.5922 5.5 16.23 5.5 15.7101V9.2776C5.5 8.75124 5.82972 8.28128 6.32467 8.10218L13.4948 5.50763ZM18.5 9.21292C18.5 8.69295 17.9837 8.33074 17.4948 8.50767L9.9948 11.2216C9.69783 11.329 9.5 11.611 9.5 11.9268V18.7101C9.5 19.2301 10.0163 19.5923 10.5052 19.4154L11.0203 19.229C11.0717 19.7227 11.2209 20.2091 11.4752 20.6595L11.0156 20.8259C9.54875 21.3566 8 20.27 8 18.7101V11.9268C8 10.9794 8.5935 10.1335 9.48441 9.81109L16.9844 7.09718C18.4512 6.56639 20 7.653 20 9.21292V13.4609C20 12.2716 19.4067 11.2208 18.5 10.5883V9.21292ZM19 13.4609C19 14.8416 17.8807 15.9609 16.5 15.9609C15.1193 15.9609 14 14.8416 14 13.4609C14 12.0802 15.1193 10.9609 16.5 10.9609C17.8807 10.9609 19 12.0802 19 13.4609ZM21 18.8359C21 20.3924 19.7143 21.9609 16.5 21.9609C13.2857 21.961 12 20.3983 12 18.8359V18.7329C12 17.7539 12.7937 16.9609 13.7727 16.9609H19.2273C20.2063 16.9609 21 17.7539 21 18.7329V18.8359Z" fill="white"/>
</svg>
