<svg width="126" height="65" viewBox="0 0 126 65" fill="none" xmlns="http://www.w3.org/2000/svg">
<path d="M112.218 2.67523C112.11 4.49192 111.648 6.63248 111.141 8.30026C110.633 9.96804 111.444 10.2026 110.913 11.4236C110.382 12.6447 111.362 13.8118 110.727 14.7741C110.853 15.1631 111.014 14.0128 110.913 13.8434C111.692 14.5712 113.013 14.4428 113.71 15.5186C113.785 15.0905 113.796 14.5191 114.083 14.2157C114.107 14.0388 114.251 13.9327 114.27 13.8434C114.363 11.405 114.672 8.96849 115.015 6.58409C116.03 7.85726 116.487 9.5846 117.253 11.0514C117.277 10.908 117.919 10.6567 117.626 10.3068C118.795 10.0816 120.087 9.85822 121.169 9.56227C119.815 6.70135 118.15 3.96515 117.067 1C115.748 1.96791 113.483 1.70918 112.218 2.67523Z" stroke="#F5F8F8" stroke-width="0.3"/>
<path d="M100.284 8.07324C103.762 9.62562 106.422 12.5964 109.607 14.588C109.902 14.6718 110.445 15.2004 110.726 14.7741C111.362 13.8118 110.381 12.6447 110.913 11.4237C111.444 10.2026 110.633 9.96811 111.14 8.30033C111.647 6.63255 112.11 4.49198 112.218 2.67529C112.013 3.04384 111.627 3.4794 111.659 3.97825C110.249 4.22395 108.054 3.92055 106.568 4.60367C105.08 5.28679 103.062 5.62369 101.589 5.65347C101.584 6.4036 101.05 6.35148 100.47 6.39802C100.909 6.99551 100.002 7.53159 100.284 8.07324Z" stroke="#1E2D37" stroke-width="0.3"/>
<path d="M114.269 13.8434C114.226 14.9472 114.448 16.2464 114.456 17.1939C114.37 15.7048 115.297 14.5061 115.388 13.0989C117.473 13.7764 117.611 16.5182 118.573 18.1097C119.533 19.703 120.197 22.5713 122.433 22.3647C124.669 22.1563 125.912 19.8928 125.83 17.7523C125.739 17.6164 125.291 17.9626 125.271 17.9384C123.893 18.0091 122.735 19.2953 121.355 19.4275C119.955 16.6504 118.411 13.9197 117.253 11.0514C116.486 9.58462 116.029 7.85728 115.015 6.58411C114.672 8.96851 114.362 11.405 114.269 13.8434Z" stroke="#181F26" stroke-width="0.3"/>
<path d="M94.1309 9.18997C96.0217 12.1681 98.0374 15.1054 99.5385 18.3106C99.5683 18.7332 100.163 18.0035 99.725 17.7522C100.959 17.5549 101.955 16.6075 103.081 16.8216C102.267 15.5707 101.866 14.1505 101.03 12.9127C102.824 13.6833 104.872 14.6922 106.438 15.8909C107.063 16.0063 108.696 15.07 108.676 14.4018C109.009 14.2789 109.412 14.9416 109.608 14.5879C106.423 12.5963 103.762 9.62553 100.284 8.07315C98.4383 7.24857 95.7886 8.1867 94.1309 9.18997Z" stroke="#F5F8F6" stroke-width="0.3"/>
<path d="M117.254 11.0513C118.412 13.9197 119.956 16.6503 121.356 19.4275C122.736 19.2953 123.894 18.0091 125.272 17.9384C124.502 17.0338 124 15.0421 123.279 13.7876C122.555 12.5311 121.904 10.8243 121.17 9.56226C120.088 9.85821 118.796 10.0816 117.627 10.3068C117.92 10.6567 117.278 10.908 117.254 11.0513Z" stroke="#C1C5C3" stroke-width="0.3"/>
<path d="M70.6355 11.9821C70.1488 11.9448 70.4527 11.3809 70.6355 11.0514C70.2569 11.2692 69.7777 11.6656 69.8896 12.1682C70.1767 12.3153 70.4676 12.0267 70.6355 11.9821Z" stroke="#2A7D8D" stroke-width="0.3"/>
<path d="M72.5008 19.6137C71.6542 21.7393 73.4163 23.2954 73.8061 25.1977C74.6228 27.0237 75.4601 29.2518 76.6031 30.968C76.5043 30.713 75.5272 28.7064 75.4899 27.7999C75.4507 26.8916 77.6063 25.6985 78.4678 25.9423C79.2062 26.9735 79.4598 27.8725 80.5656 29.2462C81.6714 30.6218 83.5846 29.2295 85.1808 29.4789C85.2237 28.3341 88.0636 28.1089 89.4081 27.5561C90.7525 27.0051 92.9174 26.2382 93.199 24.8255C92.3524 26.3983 90.346 26.4151 88.8692 27.0182C87.3923 27.6212 85.4511 27.7273 83.9351 28.6078C82.421 29.4882 80.7428 29.5868 80.0025 27.7608C79.2622 25.9348 78.5928 25.0191 77.7219 23.3364C77.2334 22.3945 76.6814 21.2982 76.6031 20.1721C80.9162 18.6402 85.2665 17.0599 89.4696 15.3325C89.8034 18.0576 92.082 20.1609 92.8261 22.778C92.9286 22.9511 93.1132 23.1112 93.199 23.3364C93.1188 22.6551 92.675 21.4918 92.8876 20.6058C93.1002 19.7198 94.1295 19.2674 94.3178 18.4968C94.8008 18.4205 95.5578 19.0385 95.6231 18.4968C94.6479 16.5927 93.9132 14.2734 92.0802 12.9128C88.5484 10.292 84.6624 12.6447 81.2071 13.9719C77.7536 15.3009 74 15.8444 72.5008 19.6137Z" stroke="#EFF2F0" stroke-width="0.3"/>
<path d="M110.726 14.7741C110.445 15.2003 109.902 14.6717 109.607 14.5879C109.412 14.9416 109.009 14.2789 108.675 14.4018C108.696 15.07 107.062 16.0063 106.438 15.8909C107.088 16.3879 107.629 17.2218 108.302 17.7522C109.732 18.8784 111.185 20.1683 112.964 20.5443C113.425 19.5987 113.887 18.6476 113.896 17.5661C113.945 16.6875 113.98 15.7122 114.083 14.9602C114.083 14.7201 114.049 14.452 114.083 14.2157C113.796 14.5191 113.784 15.0905 113.71 15.5186C113.012 14.4427 111.692 14.5712 110.913 13.8434C111.013 14.0128 110.853 15.1631 110.726 14.7741Z" stroke="#D6DCD8" stroke-width="0.3"/>
<path d="M114.083 14.2157C114.05 14.452 114.083 14.7201 114.083 14.9602C114.083 15.8574 114.022 16.8029 113.897 17.5661C113.888 18.6476 113.425 19.5987 112.964 20.5443C111.186 20.1683 109.733 18.8784 108.303 17.7522C109.14 18.588 109.673 19.0664 110.497 20.0287C111.322 20.991 112.644 20.8961 113.71 21.2888C113.664 20.6206 114.451 20.1646 114.27 19.4275C114.089 18.6904 114.352 17.8714 114.456 17.1938C114.449 16.2464 114.227 14.9472 114.27 13.8434C114.251 13.9327 114.108 14.0388 114.083 14.2157Z" stroke="#464B4D" stroke-width="0.3"/>
<path d="M113.896 17.5661C114.021 16.803 114.083 15.8574 114.083 14.9602C113.98 15.7122 113.945 16.6875 113.896 17.5661Z" stroke="#8E8F89" stroke-width="0.3"/>
<path d="M77.7204 23.3364C77.6495 23.1018 77.6533 22.2847 77.5339 21.8473C81.7314 21.7226 84.92 18.5527 89.0951 18.3107C89.1436 18.7556 89.3487 19.2284 89.6545 18.683C89.6023 19.8836 90.3034 22.4708 91.7057 21.6612C91.7057 22.4876 92.4292 22.7035 92.8245 22.778C92.0805 20.1609 89.8018 18.0576 89.468 15.3325C85.265 17.0599 80.9146 18.6402 76.6016 20.1721C76.6799 21.2982 77.2318 22.3945 77.7204 23.3364Z" stroke="#151B22" stroke-width="0.3"/>
<path d="M99.5391 18.3107C100.654 20.8496 102.06 23.2749 103.268 25.7561C104.751 25.6053 105.961 24.6263 107.371 24.267C106.369 21.5792 104.505 19.2637 103.082 16.8216C101.956 16.6075 100.96 17.5549 99.7255 17.7522C100.164 18.0035 99.5689 18.7332 99.5391 18.3107Z" stroke="#C4C8C7" stroke-width="0.3"/>
<path d="M77.7216 23.3363C78.5924 25.019 79.2619 25.9348 80.0022 27.7608C80.7425 29.5868 82.4207 29.4882 83.9348 28.6077C85.4508 27.7273 87.392 27.6212 88.8688 27.0181C90.3457 26.415 92.3521 26.3983 93.1987 24.8254C93.3572 24.2037 93.2714 23.9543 93.1987 23.3363C93.1129 23.1111 92.9283 22.951 92.8257 22.7779C92.4304 22.7035 91.7069 22.4876 91.7069 21.6611C90.3047 22.4708 89.6035 19.8835 89.6557 18.6829C89.3499 19.2283 89.1448 18.7555 89.0963 18.3107C84.9213 18.5526 81.7326 21.7225 77.5352 21.8473C77.6545 22.2847 77.6508 23.1018 77.7216 23.3363Z" stroke="#23303A" stroke-width="0.3"/>
<path d="M93.1979 23.3364C93.2706 23.9544 93.3564 24.2038 93.1979 24.8255C92.9163 26.2383 90.7514 27.0052 89.407 27.5561C88.0625 28.109 85.2226 28.3342 85.1797 29.4789C83.5835 29.2295 81.6703 30.6218 80.5645 29.2462C79.4588 27.8726 79.2052 26.9735 78.4667 25.9423C77.6052 25.6985 75.4496 26.8916 75.4888 27.8C75.5261 28.7064 76.5032 30.713 76.602 30.968C77.6071 32.4757 80.3613 33.7507 82.1961 33.5739C84.031 33.3971 86.815 32.1891 88.5399 31.5301C90.2666 30.8731 93.0972 30.3277 94.4566 29.2462C95.8141 28.1648 97.9622 26.3239 98.2326 24.6394C98.5776 22.4821 96.4928 20.1963 95.622 18.4969C95.5568 19.0385 94.7997 18.4206 94.3167 18.4969C94.1284 19.2675 93.0991 19.7198 92.8865 20.6058C92.6739 21.4918 93.1177 22.6552 93.1979 23.3364Z" stroke="#C0C3C1" stroke-width="0.3"/>
<path d="M66.533 29.2928C66.5162 29.1811 66.6076 28.6376 66.533 28.3621C67.4877 27.8539 69.0093 28.1089 69.5165 26.873C70.3314 27.0777 70.6633 28.349 71.1947 28.3621C70.5011 26.8655 69.703 25.5272 69.0168 24.0214C68.3324 22.5137 67.8103 21.0879 66.863 19.6565C65.9157 18.2251 63.6557 20.5053 62.2441 20.3582C63.6278 23.3364 65.0841 26.3667 66.533 29.2928Z" stroke="#F1F6F4" stroke-width="0.3"/>
<path d="M98.2323 24.6394C97.9619 26.3239 95.8138 28.1648 94.4563 29.2462C93.0969 30.3277 90.2663 30.8731 88.5396 31.5301C86.8147 32.1891 84.0307 33.3971 82.1959 33.5739C80.361 33.7507 77.6068 32.4757 76.6017 30.968C75.4587 29.2518 74.6214 27.0238 73.8047 25.1978C73.9389 27.2267 73.7935 29.183 74.9664 31.2975C76.1393 33.412 76.5831 34.687 78.8991 35.5618C81.215 36.4367 83.2905 35.8801 85.364 35.0611C87.4376 34.244 89.554 33.855 91.5045 32.8145C93.4568 31.7758 95.1257 31.1858 96.1345 29.2462C97.1433 27.3067 99.2971 26.8916 99.3512 24.6394C98.9204 24.7548 98.5773 24.3881 98.2323 24.6394Z" stroke="#181E23" stroke-width="0.3"/>
<path d="M48.4445 32.0847C48.8249 31.2639 51.2341 31.6641 51.8009 30.9679C51.2173 31.8874 49.4533 31.6603 48.6309 32.457C49.2276 33.8512 49.7218 35.2081 50.4956 36.552C50.5889 37.0397 50.9208 35.653 50.3092 35.4352C51.8196 35.6865 53.3729 34.4338 54.598 35.0629C53.4624 33.1941 52.3398 31.1801 51.2415 29.2927C54.1691 30.8674 57.451 31.7087 60.565 32.8293C60.9287 33.1699 60.4979 32.3416 60.1921 32.2709C61.7902 31.6845 63.6493 31.0703 65.2268 31.154C62.1221 29.2219 58.7712 28.5035 55.5453 26.858C52.3175 25.2144 48.7503 23.945 45.4609 26.5006C46.4697 28.3434 47.4972 30.2476 48.4445 32.0847Z" stroke="#F1F5F4" stroke-width="0.3"/>
<path d="M66.5334 29.2927C66.772 30.5398 67.8442 31.3569 68.3981 32.457C67.2681 32.256 66.2518 31.6771 65.2281 31.1541C63.6505 31.0703 61.7914 31.6845 60.1934 32.2709C60.4992 32.3416 60.9299 33.1699 60.5663 32.8293C62.1811 33.5496 63.6095 34.1955 65.243 35.048C66.8746 35.9005 68.2955 36.176 69.9327 37.2537C71.5699 38.3315 73.1848 36.794 74.9245 36.552C75.4168 35.975 74.0071 34.6813 73.8635 33.8884C73.7181 33.0973 72.9069 31.8632 72.644 31.0107C72.3811 30.1582 71.6333 29.114 71.1951 28.362C70.6637 28.349 70.3318 27.0777 69.5169 26.8729C69.0097 28.1089 67.4881 27.8539 66.5334 28.362C66.6079 28.6375 66.5166 29.181 66.5334 29.2927Z" stroke="#C4C8C6" stroke-width="0.3"/>
<path d="M23.645 34.6907C23.5275 35.2212 24.458 35.9732 24.5624 36.567C24.6687 37.1607 25.4631 37.9407 25.5097 38.5996C31.7453 36.2208 38.0219 33.9946 44.1568 31.3403C43.4016 30.136 42.6874 28.8423 42.4785 27.4314C40.8544 27.718 39.3682 28.7641 37.8205 29.2983C36.2746 29.8307 34.6579 30.5715 33.1587 31.1578C31.6614 31.746 29.6866 32.1686 28.3105 32.8331C26.9362 33.4994 24.3983 33.5609 23.645 34.6907Z" stroke="#F8FBFB" stroke-width="0.3"/>
<path d="M54.5987 35.063C54.7795 35.3608 55.186 35.6958 55.3445 35.9936C55.5739 35.7088 55.0462 35.102 54.9716 34.6907C55.4527 34.0876 55.9674 34.9699 55.904 34.1323C58.7775 34.3891 60.6627 36.3194 62.9469 37.7117C65.2331 39.104 67.8865 39.8429 70.2212 41.0603C72.5558 42.2776 76.2236 38.7298 75.6698 36.3659C75.3827 36.2375 75.157 36.5204 74.9239 36.552C73.1842 36.794 71.5693 38.3315 69.9321 37.2538C68.2949 36.176 66.874 35.9006 65.2424 35.0481C63.6089 34.1956 62.1805 33.5497 60.5657 32.8293C57.4517 31.7088 54.1698 30.8674 51.2422 29.2927C52.3405 31.1801 53.4631 33.1941 54.5987 35.063Z" stroke="#171E24" stroke-width="0.3"/>
<path d="M48.4453 32.0848C48.4863 32.1667 48.6094 32.4031 48.6318 32.4571C49.4541 31.6604 51.2181 31.8875 51.8018 30.968C51.2349 31.6642 48.8257 31.264 48.4453 32.0848Z" stroke="#7F8A8B" stroke-width="0.3"/>
<path d="M23.6453 34.6907C23.0896 35.921 23.5707 37.5907 23.8318 39.1579C24.0929 40.7252 24.5758 42.3725 25.4541 43.6829C26.3305 44.9914 26.6997 46.7635 27.192 48.0888C27.6861 49.4122 27.7551 51.4225 28.6241 52.2433C29.4912 53.066 29.8697 55.8041 31.1023 55.9083C32.3349 56.0144 34.9305 55.2029 36.1202 54.7748C37.3118 54.3466 39.2156 53.4495 40.0547 52.7459C42.2849 53.1479 43.5212 51.0297 45.6489 51.0707C46.8385 49.7975 48.1326 49.4122 49.5181 48.0459C50.9017 46.6778 49.6673 44.608 49.0053 43.6252C49.2999 44.3381 49.3932 45.2855 49.9377 45.8588C49.7419 46.125 49.3596 46.2739 49.0053 46.2311C43.3254 48.5857 37.3882 50.5495 31.6636 52.932C30.4217 50.7207 29.6478 48.3568 28.68 46.045C28.2157 44.9933 26.9384 43.413 26.8302 42.3074C26.7221 41.2017 29.5192 40.5614 30.3583 40.2748C29.4241 40.0086 31.5144 38.6591 32.4057 38.9681C33.2952 39.2752 34.4215 37.9518 35.2065 37.6688C35.9915 37.3841 37.0917 37.1551 37.998 36.9187C38.9061 36.6842 39.7191 35.7498 40.7969 35.6176C41.8728 35.4836 42.7082 34.9215 43.6443 34.3649C44.5804 33.8084 44.4871 32.1704 44.1571 31.3402C38.0222 33.9945 31.7456 36.2207 25.51 38.5995C25.4634 37.9406 24.6691 37.1607 24.5628 36.5669C24.4583 35.9731 23.5279 35.2212 23.6453 34.6907Z" stroke="#141D24" stroke-width="0.3"/>
<path d="M50.497 36.552C51.683 39.1467 52.9715 41.7359 54.04 44.3697C55.4404 43.7964 56.9135 43.2733 58.3288 42.6945C57.251 40.5558 56.4753 38.1285 55.3453 35.9936C55.1868 35.6957 54.7802 35.3607 54.5994 35.0629C53.3743 34.4337 51.821 35.6864 50.3105 35.4351C50.9222 35.6529 50.5903 37.0396 50.497 36.552Z" stroke="#B8BDBB" stroke-width="0.3"/>
<path d="M30.3572 40.2747C29.5181 40.5614 26.7211 41.2017 26.8292 42.3073C26.9374 43.413 28.2147 44.9933 28.679 46.045C28.6771 46.0189 28.8263 45.9147 28.8655 45.8588C29.3261 45.1906 31.7576 44.4851 32.5949 44.3697C33.7491 43.6717 34.7542 43.0519 36.1509 42.7075C37.5494 42.365 38.6309 41.5889 40.0686 41.2203C41.5045 40.8499 42.4722 40.1035 44.0106 39.7573C45.549 39.4111 44.6856 37.5609 44.1561 36.3659C43.8279 36.2728 44.0218 35.8596 43.9696 35.6213C39.4402 37.1142 34.8903 38.7261 30.3572 40.2747Z" stroke="#DFE4E0" stroke-width="0.3"/>
<path d="M1.26823 42.8807C1.10414 43.7443 2.22669 44.4982 2.55861 45.5015C2.89239 46.5029 3.36603 46.9235 4.93797 46.1716C6.50992 45.4196 8.93776 44.6378 10.534 43.9416C12.132 43.2436 12.1749 43.3404 13.4019 42.8937C14.6307 42.447 15.3561 42.2255 16.3761 41.9537C17.3979 41.6838 18.3508 40.9337 19.1843 40.8481C20.016 40.7624 21.3604 39.3664 21.9665 39.7164C21.7129 38.3129 20.6854 37.1737 20.2882 35.8075C18.4067 36.9262 15.9006 37.2631 13.9911 38.2701C12.0798 39.2771 9.348 39.614 7.54856 40.5875C5.74912 41.5591 2.30501 41.332 1.26823 42.8807Z" stroke="#F8FBF9" stroke-width="0.3"/>
<path d="M44.1569 36.366C44.6865 37.561 45.5498 39.4112 44.0114 39.7574C42.473 40.1036 41.5053 40.85 40.0694 41.2204C38.6318 41.5889 37.5502 42.3651 36.1517 42.7076C34.755 43.052 33.75 43.6718 32.5957 44.3698C32.6535 44.3624 32.7356 44.5076 32.7822 44.556C33.3957 45.1925 34.0353 46.5085 34.4604 47.1619C35.6128 45.9762 38.2831 46.0357 39.8084 45.2409C41.3337 44.4443 43.4315 43.8189 45.0892 43.253C44.9009 42.7653 44.4105 43.4261 44.1569 43.0669C44.4795 42.4526 47.1852 40.6899 46.264 39.6606C45.3447 38.6294 44.7685 37.2092 44.1569 36.366Z" stroke="#151D24" stroke-width="0.3"/>
<path d="M1.26826 42.8806C0.576453 44.2283 1.36149 46.9272 2.05703 48.7942C2.75256 50.6611 4.09515 52.3457 4.56692 54.2927C5.04055 56.2378 6.22278 58.2071 7.08987 59.9642C7.95882 61.7195 8.05579 64.8373 10.5918 63.7279C10.6794 63.0876 11.6211 62.9405 12.229 62.5701C12.835 62.1979 13.2397 61.6897 13.9483 61.4943C14.4107 60.5319 14.3398 59.3444 13.9483 58.8884C13.5958 58.9386 12.5684 60.035 11.8933 60.0015C11.2165 59.9661 10.1088 61.1313 9.45991 60.9228C8.80912 60.7125 8.59096 59.2495 8.35414 58.7022C7.02833 55.6347 5.78085 52.556 4.25179 49.5815C9.92795 47.7276 15.6339 45.9333 21.2206 43.8113C21.5022 44.4851 21.5488 45.2297 21.9665 45.8588C21.6625 44.1203 22.3506 41.5256 21.9665 39.7163C21.3605 39.3664 20.016 40.7624 19.1843 40.848C18.3508 40.9337 17.398 41.6838 16.3761 41.9537C15.3561 42.2254 14.6307 42.4469 13.4019 42.8937C12.1749 43.3404 12.132 43.2436 10.534 43.9416C8.93779 44.6378 6.50994 45.4195 4.938 46.1715C3.36605 46.9235 2.89242 46.5028 2.55863 45.5014C2.22672 44.4982 1.10416 43.7443 1.26826 42.8806Z" stroke="#141B23" stroke-width="0.3"/>
<path d="M45.0894 43.2529C43.4317 43.8188 41.3339 44.4442 39.8086 45.2409C38.2832 46.0357 35.613 45.9761 34.4606 47.1618C34.5632 47.32 33.9888 47.3237 34.0877 47.5341C35.6018 47.2884 36.9388 46.769 38.3895 46.2441C39.8421 45.7211 41.0766 45.2725 42.5217 44.5987C43.9669 43.9249 45.4381 43.9398 46.969 43.2678C48.4981 42.594 49.5274 44.8798 49.0053 46.2311C49.3596 46.2739 49.7419 46.125 49.9377 45.8588C49.3932 45.2855 49.2999 44.3381 49.0053 43.6252C48.6156 43.2827 48.4981 42.6517 48.4459 42.1361C47.286 42.3706 46.2008 42.8732 45.0894 43.2529Z" stroke="#DCE4E6" stroke-width="0.3"/>
<path d="M34.4603 47.1618C34.0351 46.5084 33.3955 45.1925 32.7821 44.5559C32.5825 45.4009 29.7016 45.7509 28.8662 45.8588C28.827 45.9147 28.6778 46.0189 28.6797 46.045C29.6475 48.3568 30.4213 50.7207 31.6632 52.932C37.3879 50.5495 43.3251 48.5857 49.005 46.2311C49.5271 44.8798 48.4978 42.594 46.9687 43.2678C45.4378 43.9398 43.9666 43.9249 42.5214 44.5987C41.0763 45.2725 39.8418 45.7211 38.3892 46.2441C36.9385 46.769 35.6015 47.2884 34.0874 47.5341C33.9885 47.3237 34.5628 47.32 34.4603 47.1618Z" stroke="#B6BAB9" stroke-width="0.3"/>
<path d="M8.3543 58.7022C8.02425 57.0511 7.09749 55.093 6.4896 53.3042C7.70352 53.2391 9.17664 52.7049 10.4055 52.1874C10.7057 52.77 10.7952 54.2237 11.3378 54.2349C11.0451 53.5481 10.8549 52.757 10.7784 52.0013C14.7185 50.6555 18.681 49.3488 22.5261 47.7201C22.4328 47.1264 22.237 46.5307 21.9667 45.8588C21.549 45.2296 21.5023 44.4851 21.2208 43.8113C15.6341 45.9332 9.92812 47.7276 4.25195 49.5815C5.78101 52.556 7.0285 55.6347 8.3543 58.7022Z" stroke="#DEE1DC" stroke-width="0.3"/>
<path d="M28.8652 45.8589C29.7006 45.7509 32.5816 45.401 32.7811 44.5559C32.7345 44.5075 32.6525 44.3623 32.5946 44.3698C31.7574 44.4852 29.3258 45.1906 28.8652 45.8589Z" stroke="#7A8280" stroke-width="0.3"/>
<path d="M11.3368 54.235C11.8738 55.4895 12.6943 56.7925 13.3879 57.9577C13.4662 57.081 12.1535 56.0982 12.2691 54.9795C14.7641 55.1601 17.6991 53.6282 20.2873 52.932C21.602 51.335 22.87 49.9055 22.525 47.7202C18.68 49.3489 14.7175 50.6556 10.7773 52.0013C10.8538 52.7571 11.044 53.5481 11.3368 54.235Z" stroke="#161E25" stroke-width="0.3"/>
<path d="M8.35494 58.7023C8.59176 59.2495 8.80993 60.7125 9.46071 60.9229C10.1096 61.1313 11.2173 59.9661 11.8941 60.0015C12.5692 60.035 13.5966 58.9387 13.9491 58.8884C13.6787 58.572 13.5948 58.3039 13.3896 57.9577C12.696 56.7925 11.8755 55.4896 11.3385 54.235C10.7958 54.2238 10.7063 52.7701 10.4061 52.1875C9.17727 52.705 7.70416 53.2392 6.49023 53.3043C7.09813 55.0931 8.02489 57.0512 8.35494 58.7023Z" stroke="#B0B2B0" stroke-width="0.3"/>
<path d="M112.218 2.67523C112.11 4.49192 111.648 6.63248 111.141 8.30026C110.633 9.96804 111.444 10.2026 110.913 11.4236C110.382 12.6447 111.362 13.8118 110.727 14.7741C110.853 15.1631 111.014 14.0128 110.913 13.8434C111.692 14.5712 113.013 14.4428 113.71 15.5186C113.785 15.0905 113.796 14.5191 114.083 14.2157C114.107 14.0388 114.251 13.9327 114.27 13.8434C114.363 11.405 114.672 8.96849 115.015 6.58409C116.03 7.85726 116.487 9.5846 117.253 11.0514C117.277 10.908 117.919 10.6567 117.626 10.3068C118.795 10.0816 120.087 9.85822 121.169 9.56227C119.815 6.70135 118.15 3.96515 117.067 1C115.748 1.96791 113.483 1.70918 112.218 2.67523Z" fill="#F5F8F8"/>
<path d="M100.284 8.07324C103.762 9.62562 106.422 12.5964 109.607 14.588C109.902 14.6718 110.445 15.2004 110.726 14.7741C111.362 13.8118 110.381 12.6447 110.913 11.4237C111.444 10.2026 110.633 9.96811 111.14 8.30033C111.647 6.63255 112.11 4.49198 112.218 2.67529C112.013 3.04384 111.627 3.4794 111.659 3.97825C110.249 4.22395 108.054 3.92055 106.568 4.60367C105.08 5.28679 103.062 5.62369 101.589 5.65347C101.584 6.4036 101.05 6.35148 100.47 6.39802C100.909 6.99551 100.002 7.53159 100.284 8.07324Z" fill="#1E2D37"/>
<path d="M114.269 13.8434C114.226 14.9472 114.448 16.2464 114.456 17.1939C114.37 15.7048 115.297 14.5061 115.388 13.0989C117.473 13.7764 117.611 16.5182 118.573 18.1097C119.533 19.703 120.197 22.5713 122.433 22.3647C124.669 22.1563 125.912 19.8928 125.83 17.7523C125.739 17.6164 125.291 17.9626 125.271 17.9384C123.893 18.0091 122.735 19.2953 121.355 19.4275C119.955 16.6504 118.411 13.9197 117.253 11.0514C116.486 9.58462 116.029 7.85728 115.015 6.58411C114.672 8.96851 114.362 11.405 114.269 13.8434Z" fill="#181F26"/>
<path d="M94.1309 9.18997C96.0217 12.1681 98.0374 15.1054 99.5385 18.3106C99.5683 18.7332 100.163 18.0035 99.725 17.7522C100.959 17.5549 101.955 16.6075 103.081 16.8216C102.267 15.5707 101.866 14.1505 101.03 12.9127C102.824 13.6833 104.872 14.6922 106.438 15.8909C107.063 16.0063 108.696 15.07 108.676 14.4018C109.009 14.2789 109.412 14.9416 109.608 14.5879C106.423 12.5963 103.762 9.62553 100.284 8.07315C98.4383 7.24857 95.7886 8.1867 94.1309 9.18997Z" fill="#F5F8F6"/>
<path d="M117.254 11.0513C118.412 13.9197 119.956 16.6503 121.356 19.4275C122.736 19.2953 123.894 18.0091 125.272 17.9384C124.502 17.0338 124 15.0421 123.279 13.7876C122.555 12.5311 121.904 10.8243 121.17 9.56226C120.088 9.85821 118.796 10.0816 117.627 10.3068C117.92 10.6567 117.278 10.908 117.254 11.0513Z" fill="#C1C5C3"/>
<path d="M70.6355 11.9821C70.1488 11.9448 70.4527 11.3809 70.6355 11.0514C70.2569 11.2692 69.7777 11.6656 69.8896 12.1682C70.1767 12.3153 70.4676 12.0267 70.6355 11.9821Z" fill="#2A7D8D"/>
<path d="M72.5008 19.6137C71.6542 21.7393 73.4163 23.2954 73.8061 25.1977C74.6228 27.0237 75.4601 29.2518 76.6031 30.968C76.5043 30.713 75.5272 28.7064 75.4899 27.7999C75.4507 26.8916 77.6063 25.6985 78.4678 25.9423C79.2062 26.9735 79.4598 27.8725 80.5656 29.2462C81.6714 30.6218 83.5846 29.2295 85.1808 29.4789C85.2237 28.3341 88.0636 28.1089 89.4081 27.5561C90.7525 27.0051 92.9174 26.2382 93.199 24.8255C92.3524 26.3983 90.346 26.4151 88.8692 27.0182C87.3923 27.6212 85.4511 27.7273 83.9351 28.6078C82.421 29.4882 80.7428 29.5868 80.0025 27.7608C79.2622 25.9348 78.5928 25.0191 77.7219 23.3364C77.2334 22.3945 76.6814 21.2982 76.6031 20.1721C80.9162 18.6402 85.2665 17.0599 89.4696 15.3325C89.8034 18.0576 92.082 20.1609 92.8261 22.778C92.9286 22.9511 93.1132 23.1112 93.199 23.3364C93.1188 22.6551 92.675 21.4918 92.8876 20.6058C93.1002 19.7198 94.1295 19.2674 94.3178 18.4968C94.8008 18.4205 95.5578 19.0385 95.6231 18.4968C94.6479 16.5927 93.9132 14.2734 92.0802 12.9128C88.5484 10.292 84.6624 12.6447 81.2071 13.9719C77.7536 15.3009 74 15.8444 72.5008 19.6137Z" fill="#EFF2F0"/>
<path d="M110.726 14.7741C110.445 15.2003 109.902 14.6717 109.607 14.5879C109.412 14.9416 109.009 14.2789 108.675 14.4018C108.696 15.07 107.062 16.0063 106.438 15.8909C107.088 16.3879 107.629 17.2218 108.302 17.7522C109.732 18.8784 111.185 20.1683 112.964 20.5443C113.425 19.5987 113.887 18.6476 113.896 17.5661C113.945 16.6875 113.98 15.7122 114.083 14.9602C114.083 14.7201 114.049 14.452 114.083 14.2157C113.796 14.5191 113.784 15.0905 113.71 15.5186C113.012 14.4427 111.692 14.5712 110.913 13.8434C111.013 14.0128 110.853 15.1631 110.726 14.7741Z" fill="#D6DCD8"/>
<path d="M114.083 14.2157C114.05 14.452 114.083 14.7201 114.083 14.9602C114.083 15.8574 114.022 16.8029 113.897 17.5661C113.888 18.6476 113.425 19.5987 112.964 20.5443C111.186 20.1683 109.733 18.8784 108.303 17.7522C109.14 18.588 109.673 19.0664 110.497 20.0287C111.322 20.991 112.644 20.8961 113.71 21.2888C113.664 20.6206 114.451 20.1646 114.27 19.4275C114.089 18.6904 114.352 17.8714 114.456 17.1938C114.449 16.2464 114.227 14.9472 114.27 13.8434C114.251 13.9327 114.108 14.0388 114.083 14.2157Z" fill="#464B4D"/>
<path d="M113.896 17.5661C114.021 16.803 114.083 15.8574 114.083 14.9602C113.98 15.7122 113.945 16.6875 113.896 17.5661Z" fill="#8E8F89"/>
<path d="M77.7204 23.3364C77.6495 23.1018 77.6533 22.2847 77.5339 21.8473C81.7314 21.7226 84.92 18.5527 89.0951 18.3107C89.1436 18.7556 89.3487 19.2284 89.6545 18.683C89.6023 19.8836 90.3034 22.4708 91.7057 21.6612C91.7057 22.4876 92.4292 22.7035 92.8245 22.778C92.0805 20.1609 89.8018 18.0576 89.468 15.3325C85.265 17.0599 80.9146 18.6402 76.6016 20.1721C76.6799 21.2982 77.2318 22.3945 77.7204 23.3364Z" fill="#151B22"/>
<path d="M99.5391 18.3107C100.654 20.8496 102.06 23.2749 103.268 25.7561C104.751 25.6053 105.961 24.6263 107.371 24.267C106.369 21.5792 104.505 19.2637 103.082 16.8216C101.956 16.6075 100.96 17.5549 99.7255 17.7522C100.164 18.0035 99.5689 18.7332 99.5391 18.3107Z" fill="#C4C8C7"/>
<path d="M77.7216 23.3363C78.5924 25.019 79.2619 25.9348 80.0022 27.7608C80.7425 29.5868 82.4207 29.4882 83.9348 28.6077C85.4508 27.7273 87.392 27.6212 88.8688 27.0181C90.3457 26.415 92.3521 26.3983 93.1987 24.8254C93.3572 24.2037 93.2714 23.9543 93.1987 23.3363C93.1129 23.1111 92.9283 22.951 92.8257 22.7779C92.4304 22.7035 91.7069 22.4876 91.7069 21.6611C90.3047 22.4708 89.6035 19.8835 89.6557 18.6829C89.3499 19.2283 89.1448 18.7555 89.0963 18.3107C84.9213 18.5526 81.7326 21.7225 77.5352 21.8473C77.6545 22.2847 77.6508 23.1018 77.7216 23.3363Z" fill="#23303A"/>
<path d="M93.1979 23.3364C93.2706 23.9544 93.3564 24.2038 93.1979 24.8255C92.9163 26.2383 90.7514 27.0052 89.407 27.5561C88.0625 28.109 85.2226 28.3342 85.1797 29.4789C83.5835 29.2295 81.6703 30.6218 80.5645 29.2462C79.4588 27.8726 79.2052 26.9735 78.4667 25.9423C77.6052 25.6985 75.4496 26.8916 75.4888 27.8C75.5261 28.7064 76.5032 30.713 76.602 30.968C77.6071 32.4757 80.3613 33.7507 82.1961 33.5739C84.031 33.3971 86.815 32.1891 88.5399 31.5301C90.2666 30.8731 93.0972 30.3277 94.4566 29.2462C95.8141 28.1648 97.9622 26.3239 98.2326 24.6394C98.5776 22.482 96.4928 20.1963 95.622 18.4969C95.5568 19.0385 94.7997 18.4206 94.3167 18.4969C94.1284 19.2675 93.0991 19.7198 92.8865 20.6058C92.6739 21.4918 93.1177 22.6552 93.1979 23.3364Z" fill="#C0C3C1"/>
<path d="M66.533 29.2928C66.5162 29.1811 66.6076 28.6376 66.533 28.3621C67.4877 27.8539 69.0093 28.1089 69.5165 26.873C70.3314 27.0777 70.6633 28.349 71.1947 28.3621C70.5011 26.8655 69.703 25.5272 69.0168 24.0214C68.3324 22.5137 67.8103 21.0879 66.863 19.6565C65.9157 18.2251 63.6557 20.5053 62.2441 20.3582C63.6278 23.3364 65.0841 26.3667 66.533 29.2928Z" fill="#F1F6F4"/>
<path d="M98.2323 24.6394C97.9619 26.3239 95.8138 28.1648 94.4563 29.2462C93.0969 30.3277 90.2663 30.8731 88.5396 31.5301C86.8147 32.1891 84.0307 33.3971 82.1959 33.5739C80.361 33.7507 77.6068 32.4757 76.6017 30.968C75.4587 29.2518 74.6214 27.0238 73.8047 25.1978C73.9389 27.2267 73.7935 29.183 74.9664 31.2975C76.1393 33.412 76.5831 34.687 78.8991 35.5618C81.215 36.4367 83.2905 35.8801 85.364 35.0611C87.4376 34.244 89.554 33.855 91.5045 32.8145C93.4568 31.7758 95.1257 31.1858 96.1345 29.2462C97.1433 27.3067 99.2971 26.8916 99.3512 24.6394C98.9204 24.7548 98.5773 24.3881 98.2323 24.6394Z" fill="#181E23"/>
<path d="M48.4445 32.0847C48.8249 31.2639 51.2341 31.6641 51.8009 30.9679C51.2173 31.8874 49.4533 31.6603 48.6309 32.457C49.2276 33.8512 49.7218 35.2081 50.4956 36.552C50.5889 37.0397 50.9208 35.653 50.3092 35.4352C51.8196 35.6865 53.3729 34.4338 54.598 35.0629C53.4624 33.1941 52.3398 31.1801 51.2415 29.2927C54.1691 30.8674 57.451 31.7087 60.565 32.8293C60.9287 33.1699 60.4979 32.3416 60.1921 32.2709C61.7902 31.6845 63.6493 31.0703 65.2268 31.154C62.1221 29.2219 58.7712 28.5035 55.5453 26.858C52.3175 25.2144 48.7503 23.945 45.4609 26.5006C46.4697 28.3434 47.4972 30.2476 48.4445 32.0847Z" fill="#F1F5F4"/>
<path d="M66.5334 29.2927C66.772 30.5398 67.8442 31.3569 68.3981 32.457C67.2681 32.256 66.2518 31.6771 65.2281 31.1541C63.6505 31.0703 61.7914 31.6845 60.1934 32.2709C60.4992 32.3416 60.9299 33.1699 60.5663 32.8293C62.1811 33.5496 63.6095 34.1955 65.243 35.048C66.8746 35.9005 68.2955 36.176 69.9327 37.2537C71.5699 38.3315 73.1848 36.794 74.9245 36.552C75.4168 35.975 74.0071 34.6813 73.8635 33.8884C73.7181 33.0973 72.9069 31.8632 72.644 31.0107C72.3811 30.1582 71.6333 29.114 71.1951 28.362C70.6637 28.349 70.3318 27.0777 69.5169 26.8729C69.0097 28.1089 67.4881 27.8539 66.5334 28.362C66.6079 28.6375 66.5166 29.181 66.5334 29.2927Z" fill="#C4C8C6"/>
<path d="M23.645 34.6907C23.5275 35.2212 24.458 35.9732 24.5624 36.567C24.6687 37.1607 25.4631 37.9407 25.5097 38.5996C31.7453 36.2208 38.0219 33.9946 44.1568 31.3403C43.4016 30.136 42.6874 28.8423 42.4785 27.4314C40.8544 27.718 39.3682 28.7641 37.8205 29.2983C36.2746 29.8307 34.6579 30.5715 33.1587 31.1578C31.6614 31.746 29.6866 32.1686 28.3105 32.8331C26.9362 33.4994 24.3983 33.5609 23.645 34.6907Z" fill="#F8FBFB"/>
<path d="M54.5987 35.063C54.7795 35.3608 55.186 35.6958 55.3445 35.9936C55.5739 35.7088 55.0462 35.102 54.9716 34.6907C55.4527 34.0876 55.9674 34.9699 55.904 34.1323C58.7775 34.3891 60.6627 36.3194 62.9469 37.7117C65.2331 39.104 67.8865 39.8429 70.2212 41.0603C72.5558 42.2776 76.2236 38.7298 75.6698 36.3659C75.3827 36.2375 75.157 36.5204 74.9239 36.552C73.1842 36.794 71.5693 38.3315 69.9321 37.2538C68.2949 36.176 66.874 35.9006 65.2424 35.0481C63.6089 34.1956 62.1805 33.5497 60.5657 32.8293C57.4517 31.7088 54.1698 30.8674 51.2422 29.2927C52.3405 31.1801 53.4631 33.1941 54.5987 35.063Z" fill="#171E24"/>
<path d="M48.4453 32.0848C48.4863 32.1667 48.6094 32.4031 48.6318 32.4571C49.4541 31.6604 51.2181 31.8875 51.8018 30.968C51.2349 31.6642 48.8257 31.264 48.4453 32.0848Z" fill="#7F8A8B"/>
<path d="M23.6453 34.6907C23.0896 35.921 23.5707 37.5907 23.8318 39.1579C24.0929 40.7252 24.5758 42.3725 25.4541 43.6829C26.3305 44.9914 26.6997 46.7635 27.192 48.0888C27.6861 49.4122 27.7551 51.4225 28.6241 52.2433C29.4912 53.066 29.8697 55.8041 31.1023 55.9083C32.3349 56.0144 34.9305 55.2029 36.1202 54.7748C37.3118 54.3466 39.2156 53.4495 40.0547 52.7459C42.2849 53.1479 43.5212 51.0297 45.6489 51.0707C46.8385 49.7975 48.1326 49.4122 49.5181 48.0459C50.9017 46.6778 49.6673 44.608 49.0053 43.6252C49.2999 44.3381 49.3932 45.2855 49.9377 45.8588C49.7419 46.125 49.3596 46.2739 49.0053 46.2311C43.3254 48.5857 37.3882 50.5495 31.6636 52.932C30.4217 50.7207 29.6478 48.3568 28.68 46.045C28.2157 44.9933 26.9384 43.413 26.8302 42.3074C26.7221 41.2017 29.5192 40.5614 30.3583 40.2748C29.4241 40.0086 31.5144 38.6591 32.4057 38.9681C33.2952 39.2752 34.4215 37.9518 35.2065 37.6688C35.9915 37.3841 37.0917 37.1551 37.998 36.9187C38.9061 36.6842 39.7191 35.7498 40.7969 35.6176C41.8728 35.4836 42.7082 34.9215 43.6443 34.3649C44.5804 33.8084 44.4871 32.1704 44.1571 31.3402C38.0222 33.9945 31.7456 36.2207 25.51 38.5995C25.4634 37.9406 24.6691 37.1607 24.5628 36.5669C24.4583 35.9731 23.5279 35.2212 23.6453 34.6907Z" fill="#141D24"/>
<path d="M50.497 36.552C51.683 39.1467 52.9715 41.7359 54.04 44.3697C55.4404 43.7964 56.9135 43.2733 58.3288 42.6945C57.251 40.5558 56.4753 38.1285 55.3453 35.9936C55.1868 35.6957 54.7802 35.3607 54.5994 35.0629C53.3743 34.4337 51.821 35.6864 50.3105 35.4351C50.9222 35.6529 50.5903 37.0396 50.497 36.552Z" fill="#B8BDBB"/>
<path d="M30.3572 40.2747C29.5181 40.5614 26.7211 41.2017 26.8292 42.3073C26.9374 43.413 28.2147 44.9933 28.679 46.045C28.6771 46.0189 28.8263 45.9147 28.8655 45.8588C29.3261 45.1906 31.7576 44.4851 32.5949 44.3697C33.7491 43.6717 34.7542 43.0519 36.1509 42.7075C37.5494 42.365 38.6309 41.5889 40.0686 41.2203C41.5045 40.8499 42.4722 40.1035 44.0106 39.7573C45.549 39.4111 44.6856 37.5609 44.1561 36.3659C43.8279 36.2728 44.0218 35.8596 43.9696 35.6213C39.4402 37.1142 34.8903 38.7261 30.3572 40.2747Z" fill="#DFE4E0"/>
<path d="M1.26823 42.8807C1.10414 43.7443 2.22669 44.4982 2.55861 45.5015C2.89239 46.5029 3.36603 46.9235 4.93797 46.1716C6.50992 45.4196 8.93776 44.6378 10.534 43.9416C12.132 43.2436 12.1749 43.3404 13.4019 42.8937C14.6307 42.447 15.3561 42.2255 16.3761 41.9537C17.3979 41.6838 18.3508 40.9337 19.1843 40.8481C20.016 40.7624 21.3604 39.3664 21.9665 39.7164C21.7129 38.3129 20.6854 37.1737 20.2882 35.8075C18.4067 36.9262 15.9006 37.2631 13.9911 38.2701C12.0798 39.2771 9.348 39.614 7.54856 40.5875C5.74912 41.5591 2.30501 41.332 1.26823 42.8807Z" fill="#F8FBF9"/>
<path d="M44.1569 36.366C44.6865 37.561 45.5498 39.4111 44.0114 39.7574C42.473 40.1036 41.5053 40.85 40.0694 41.2204C38.6318 41.5889 37.5502 42.3651 36.1517 42.7076C34.755 43.052 33.75 43.6718 32.5957 44.3698C32.6535 44.3624 32.7356 44.5076 32.7822 44.556C33.3957 45.1925 34.0353 46.5085 34.4604 47.1619C35.6128 45.9762 38.2831 46.0357 39.8084 45.2409C41.3337 44.4443 43.4315 43.8189 45.0892 43.253C44.9009 42.7653 44.4105 43.4261 44.1569 43.0669C44.4795 42.4526 47.1852 40.6899 46.264 39.6606C45.3447 38.6294 44.7685 37.2092 44.1569 36.366Z" fill="#151D24"/>
<path d="M1.26826 42.8806C0.576453 44.2283 1.36149 46.9272 2.05703 48.7942C2.75256 50.6611 4.09515 52.3457 4.56692 54.2927C5.04055 56.2378 6.22278 58.2071 7.08987 59.9642C7.95882 61.7195 8.05579 64.8373 10.5918 63.7279C10.6794 63.0876 11.6211 62.9405 12.229 62.5701C12.835 62.1979 13.2397 61.6897 13.9483 61.4943C14.4107 60.5319 14.3398 59.3444 13.9483 58.8884C13.5958 58.9386 12.5684 60.035 11.8933 60.0015C11.2165 59.9661 10.1088 61.1313 9.45991 60.9228C8.80912 60.7125 8.59096 59.2495 8.35414 58.7022C7.02833 55.6347 5.78085 52.556 4.25179 49.5815C9.92795 47.7276 15.6339 45.9333 21.2206 43.8113C21.5022 44.4851 21.5488 45.2297 21.9665 45.8588C21.6625 44.1203 22.3506 41.5256 21.9665 39.7163C21.3605 39.3664 20.016 40.7624 19.1843 40.848C18.3508 40.9337 17.398 41.6838 16.3761 41.9537C15.3561 42.2254 14.6307 42.4469 13.4019 42.8937C12.1749 43.3404 12.132 43.2436 10.534 43.9416C8.93779 44.6378 6.50994 45.4195 4.938 46.1715C3.36605 46.9235 2.89242 46.5028 2.55863 45.5014C2.22672 44.4982 1.10416 43.7443 1.26826 42.8806Z" fill="#141B23"/>
<path d="M45.0894 43.2529C43.4317 43.8188 41.3339 44.4442 39.8086 45.2409C38.2832 46.0357 35.613 45.9761 34.4606 47.1618C34.5632 47.32 33.9888 47.3237 34.0877 47.5341C35.6018 47.2884 36.9388 46.769 38.3895 46.2441C39.8421 45.7211 41.0766 45.2725 42.5217 44.5987C43.9669 43.9249 45.4381 43.9398 46.969 43.2678C48.4981 42.594 49.5274 44.8798 49.0053 46.2311C49.3596 46.2739 49.7419 46.125 49.9377 45.8588C49.3932 45.2855 49.2999 44.3381 49.0053 43.6252C48.6156 43.2827 48.4981 42.6517 48.4459 42.1361C47.286 42.3706 46.2008 42.8732 45.0894 43.2529Z" fill="#DCE4E6"/>
<path d="M34.4603 47.1618C34.0351 46.5084 33.3955 45.1925 32.7821 44.5559C32.5825 45.4009 29.7016 45.7509 28.8662 45.8588C28.827 45.9147 28.6778 46.0189 28.6797 46.045C29.6475 48.3568 30.4213 50.7207 31.6632 52.932C37.3879 50.5495 43.3251 48.5857 49.005 46.2311C49.5271 44.8798 48.4978 42.594 46.9687 43.2678C45.4378 43.9398 43.9666 43.9249 42.5214 44.5987C41.0763 45.2725 39.8418 45.7211 38.3892 46.2441C36.9385 46.769 35.6015 47.2884 34.0873 47.5341C33.9885 47.3237 34.5628 47.32 34.4603 47.1618Z" fill="#B6BAB9"/>
<path d="M8.3543 58.7022C8.02425 57.0511 7.09749 55.093 6.4896 53.3042C7.70352 53.2391 9.17664 52.7049 10.4055 52.1874C10.7057 52.77 10.7952 54.2237 11.3378 54.2349C11.0451 53.5481 10.8549 52.757 10.7784 52.0013C14.7185 50.6555 18.681 49.3488 22.5261 47.7201C22.4328 47.1264 22.237 46.5307 21.9667 45.8588C21.549 45.2296 21.5023 44.4851 21.2208 43.8113C15.6341 45.9332 9.92812 47.7276 4.25195 49.5815C5.78101 52.556 7.0285 55.6347 8.3543 58.7022Z" fill="#DEE1DC"/>
<path d="M28.8652 45.8589C29.7006 45.7509 32.5816 45.401 32.7811 44.5559C32.7345 44.5075 32.6525 44.3623 32.5946 44.3698C31.7574 44.4852 29.3258 45.1906 28.8652 45.8589Z" fill="#7A8280"/>
<path d="M11.3368 54.235C11.8738 55.4895 12.6943 56.7925 13.3879 57.9577C13.4662 57.081 12.1535 56.0982 12.2691 54.9795C14.7641 55.1601 17.6991 53.6282 20.2873 52.932C21.602 51.335 22.87 49.9055 22.525 47.7202C18.68 49.3489 14.7175 50.6556 10.7773 52.0013C10.8538 52.7571 11.044 53.5481 11.3368 54.235Z" fill="#161E25"/>
<path d="M8.35494 58.7023C8.59176 59.2495 8.80993 60.7125 9.46071 60.9229C10.1096 61.1313 11.2173 59.9661 11.8941 60.0015C12.5692 60.035 13.5966 58.9387 13.9491 58.8884C13.6787 58.572 13.5948 58.3039 13.3896 57.9577C12.696 56.7925 11.8755 55.4896 11.3385 54.235C10.7958 54.2238 10.7063 52.7701 10.4061 52.1875C9.17727 52.705 7.70416 53.2392 6.49023 53.3043C7.09813 55.0931 8.02489 57.0512 8.35494 58.7023Z" fill="#B0B2B0"/>
</svg>
