<svg width="19" height="21" viewBox="0 0 19 21" fill="none" xmlns="http://www.w3.org/2000/svg">
<path d="M13.7543 12.0002C14.5341 12.0002 15.2213 12.3971 15.6247 13H9.5C8.93698 13 8.41743 13.1861 7.99952 13.5002H2.25254C1.83895 13.5002 1.50366 13.8355 1.50366 14.2491V14.8267C1.50366 15.3624 1.69477 15.8805 2.04263 16.2878C3.13774 17.5703 4.77689 18.3016 7 18.4657V19.5C7 19.6614 7.01529 19.8192 7.0445 19.972C4.36743 19.8033 2.30555 18.9056 0.901942 17.2619C0.322181 16.583 0.00366211 15.7195 0.00366211 14.8267V14.2491C0.00366211 13.007 1.01052 12.0002 2.25254 12.0002H13.7543ZM8.00012 0.00488281C10.7615 0.00488281 13.0001 2.24346 13.0001 5.00488C13.0001 7.76631 10.7615 10.0049 8.00012 10.0049C5.2387 10.0049 3.00012 7.76631 3.00012 5.00488C3.00012 2.24346 5.2387 0.00488281 8.00012 0.00488281ZM8.00012 1.50488C6.06712 1.50488 4.50012 3.07189 4.50012 5.00488C4.50012 6.93788 6.06712 8.50488 8.00012 8.50488C9.93312 8.50488 11.5001 6.93788 11.5001 5.00488C11.5001 3.07189 9.93312 1.50488 8.00012 1.50488ZM8 15.5C8 14.6716 8.67157 14 9.5 14H17.5C18.3284 14 19 14.6716 19 15.5V19.5C19 20.3284 18.3284 21 17.5 21H9.5C8.67157 21 8 20.3284 8 19.5V15.5ZM18 16C17.4477 16 17 15.5523 17 15H16C16 16.1046 16.8954 17 18 17V16ZM18 18C16.8954 18 16 18.8954 16 20H17C17 19.4477 17.4477 19 18 19V18ZM10 15C10 15.5523 9.55229 16 9 16V17C10.1046 17 11 16.1046 11 15H10ZM11 20C11 18.8954 10.1046 18 9 18V19C9.55228 19 10 19.4477 10 20H11ZM15.25 17.5C15.25 16.5335 14.4665 15.75 13.5 15.75C12.5335 15.75 11.75 16.5335 11.75 17.5C11.75 18.4665 12.5335 19.25 13.5 19.25C14.4665 19.25 15.25 18.4665 15.25 17.5Z" fill="#68748A"/>
</svg>
