<svg width="16" height="21" viewBox="0 0 16 21" fill="none" xmlns="http://www.w3.org/2000/svg">
<path d="M13.75 0.5C14.9926 0.5 16 1.50736 16 2.75V18.2546C16 19.4972 14.9926 20.5046 13.75 20.5046H2.25C1.00736 20.5046 0 19.4972 0 18.2546V2.75C0 1.55914 0.925161 0.584355 2.09595 0.505191L2.25 0.5H13.75ZM14.5 14.5H1.5V18.2546C1.5 18.6688 1.83579 19.0046 2.25 19.0046H13.75C14.1642 19.0046 14.5 18.6688 14.5 18.2546V14.5ZM3.75129 16H12.25C12.6642 16 13 16.3358 13 16.75C13 17.1297 12.7178 17.4435 12.3518 17.4932L12.25 17.5H3.75129C3.33707 17.5 3.00129 17.1642 3.00129 16.75C3.00129 16.3703 3.28344 16.0565 3.64952 16.0068L3.75129 16H12.25H3.75129ZM13.75 2H2.25L2.14823 2.00685C1.78215 2.05651 1.5 2.3703 1.5 2.75V13H4V10.7455C4 10.0983 4.49187 9.56599 5.12219 9.50198L5.25 9.49552H10.75C11.3972 9.49552 11.9295 9.9874 11.9935 10.6177L12 10.7455V13H14.5V2.75C14.5 2.33579 14.1642 2 13.75 2ZM10.5 10.9955H5.5V13H10.5V10.9955ZM8 3.49552C9.38071 3.49552 10.5 4.61481 10.5 5.99552C10.5 7.37624 9.38071 8.49552 8 8.49552C6.61929 8.49552 5.5 7.37624 5.5 5.99552C5.5 4.61481 6.61929 3.49552 8 3.49552ZM8 4.99552C7.44772 4.99552 7 5.44324 7 5.99552C7 6.54781 7.44772 6.99552 8 6.99552C8.55228 6.99552 9 6.54781 9 5.99552C9 5.44324 8.55228 4.99552 8 4.99552Z" fill="#242424"/>
</svg>
