<svg width="19" height="21" viewBox="0 0 19 21" fill="none" xmlns="http://www.w3.org/2000/svg">
<path d="M11.3557 2.09534C11.4445 1.98261 11.6098 1.96762 11.7175 2.06254L12.6385 2.87473L9.73828 6.5H11.6592L13.7648 3.86797L15.417 5.32489C15.5186 5.4145 15.5304 5.56873 15.4435 5.6727L14.7523 6.5H16.6965C17.1905 5.77893 17.0778 4.78948 16.4091 4.19984L12.7096 0.93749C11.9561 0.27305 10.7991 0.377958 10.1775 1.16709L5.9762 6.5H7.88576L11.3557 2.09534ZM13.25 13.5C12.8358 13.5 12.5 13.8358 12.5 14.25C12.5 14.6642 12.8358 15 13.25 15H15.25C15.6642 15 16 14.6642 16 14.25C16 13.8358 15.6642 13.5 15.25 13.5H13.25ZM1.5 6.75C1.5 6.33579 1.83579 6 2.25 6H5.37844L6.57 4.5H2.25C1.00736 4.5 0 5.50736 0 6.75V17.25C0 19.0449 1.45507 20.5 3.25 20.5H15.25C17.0449 20.5 18.5 19.0449 18.5 17.25V10.75C18.5 8.95507 17.0449 7.5 15.25 7.5L2.25 7.5C1.83579 7.5 1.5 7.16421 1.5 6.75ZM1.5 17.25V8.87197C1.73458 8.95488 1.98702 9 2.25 9H15.25C16.2165 9 17 9.7835 17 10.75V17.25C17 18.2165 16.2165 19 15.25 19H3.25C2.2835 19 1.5 18.2165 1.5 17.25Z" fill="#242424"/>
</svg>
