<svg width="24" height="25" viewBox="0 0 24 25" fill="none" xmlns="http://www.w3.org/2000/svg">
<path d="M11.0005 15.9609C11.0005 15.6103 11.0607 15.2737 11.1712 14.9609H4.25278C3.01076 14.9609 2.00391 15.9677 2.00391 17.2098V17.7874C2.00391 18.6802 2.32242 19.5437 2.90219 20.2226C4.46849 22.0568 6.8545 22.962 10.0004 22.962C10.3979 22.962 10.7834 22.9476 11.1566 22.9186C11.0554 22.6179 11.0005 22.2958 11.0005 21.9609V21.4264C10.6793 21.4501 10.346 21.462 10.0004 21.462C7.26206 21.462 5.29618 20.7162 4.04287 19.2485C3.69502 18.8412 3.50391 18.3231 3.50391 17.7874V17.2098C3.50391 16.7962 3.83919 16.4609 4.25278 16.4609H11.0005V15.9609ZM10.0004 2.96558C12.7618 2.96558 15.0004 5.20415 15.0004 7.96558C15.0004 10.727 12.7618 12.9656 10.0004 12.9656C7.23894 12.9656 5.00036 10.727 5.00036 7.96558C5.00036 5.20415 7.23894 2.96558 10.0004 2.96558ZM10.0004 4.46558C8.06737 4.46558 6.50036 6.03258 6.50036 7.96558C6.50036 9.89857 8.06737 11.4656 10.0004 11.4656C11.9334 11.4656 13.5004 9.89857 13.5004 7.96558C13.5004 6.03258 11.9334 4.46558 10.0004 4.46558ZM12.0005 15.9609C12.0005 14.8564 12.8959 13.9609 14.0005 13.9609H21.0005C22.1051 13.9609 23.0005 14.8564 23.0005 15.9609V21.9609C23.0005 23.0655 22.1051 23.9609 21.0005 23.9609H14.0005C12.8959 23.9609 12.0005 23.0655 12.0005 21.9609V15.9609ZM14.5005 16.9609C14.2243 16.9609 14.0005 17.1848 14.0005 17.4609C14.0005 17.7371 14.2243 17.9609 14.5005 17.9609H20.5005C20.7766 17.9609 21.0005 17.7371 21.0005 17.4609C21.0005 17.1848 20.7766 16.9609 20.5005 16.9609H14.5005ZM14.5005 19.9609C14.2243 19.9609 14.0005 20.1848 14.0005 20.4609C14.0005 20.7371 14.2243 20.9609 14.5005 20.9609H20.5005C20.7766 20.9609 21.0005 20.7371 21.0005 20.4609C21.0005 20.1848 20.7766 19.9609 20.5005 19.9609H14.5005Z" fill="white"/>
</svg>
