<svg width="62" height="62" viewBox="0 0 62 62" fill="none" xmlns="http://www.w3.org/2000/svg">
<g clip-path="url(#clip0_2553_3)">
<mask id="mask0_2553_3" style="mask-type:luminance" maskUnits="userSpaceOnUse" x="0" y="0" width="62" height="62">
<path d="M62 0H0V62H62V0Z" fill="white"/>
</mask>
<g mask="url(#mask0_2553_3)">
<path d="M8.59686 33.9536C8.486 34.1318 1.76658 28.5545 1.76658 28.5545C0.0804614 21.7126 0 16.7539 0 16.7539L12.9364 21.3563L8.59686 33.9517V33.9536Z" fill="url(#paint0_linear_2553_3)"/>
<path d="M2.46729 17.6328C2.46729 17.6328 3.46143 25.5397 3.7958 26.4754L10.2792 28.9949L10.424 28.5055C10.424 28.5055 4.41982 26.4323 4.16234 26.033C3.90487 25.6336 2.84993 17.7718 2.84993 17.7718L2.46729 17.6348V17.6328Z" fill="#7A9FC2"/>
<path d="M2.46729 17.6328L3.7958 26.4754C3.7958 26.4754 3.08952 23.9775 2.81238 21.9415C2.53523 19.9037 2.46729 17.6348 2.46729 17.6348V17.6328Z" fill="white"/>
<g style="mix-blend-mode:soft-light" opacity="0.4">
<path d="M3.25586 18.4251C3.27195 20.2359 4.1606 24.6524 4.57542 24.7992C4.99025 24.946 9.81615 26.561 10.4831 25.96C11.15 25.3591 12.6162 21.8353 12.2551 21.6259C11.8957 21.4144 3.2487 17.6166 3.25586 18.4251Z" fill="#D4EFFF"/>
</g>
<g style="mix-blend-mode:soft-light" opacity="0.4">
<path d="M0.341574 17.1901C0.482829 19.0127 0.987054 23.6914 1.29281 23.8519C1.59856 24.0124 2.6231 24.5429 2.78402 24.0594C3.03971 23.2901 2.38529 18.0338 1.96868 17.7696C1.55207 17.5053 0.305814 16.7438 0.341574 17.1901Z" fill="#D4EFFF"/>
</g>
<path style="mix-blend-mode:multiply" opacity="0.37" d="M1.44841 24.5001C1.241 24.9837 2.18866 28.202 2.41395 28.5133C2.63924 28.8245 7.83884 32.9434 8.30909 32.7887C8.77934 32.6321 10.5727 27.3309 10.3009 27.0627C10.0274 26.7925 1.67907 23.9657 1.44841 24.5021V24.5001Z" fill="url(#paint1_linear_2553_3)"/>
<g style="mix-blend-mode:multiply" opacity="0.5">
<path d="M8.58992 19.8096C8.58992 19.8096 7.81391 26.303 5.89893 31.9292L8.59886 33.9515L12.9384 21.3561L8.59171 19.8096H8.58992Z" fill="#A1C5EA"/>
</g>
<path d="M53.4013 33.9536C53.5121 34.1318 60.2315 28.5545 60.2315 28.5545C61.9177 21.7126 61.9999 16.7559 61.9999 16.7559L49.0635 21.3582L53.4031 33.9536H53.4013Z" fill="url(#paint2_linear_2553_3)"/>
<path d="M59.531 17.6328C59.531 17.6328 58.5368 25.5397 58.2025 26.4754L51.7191 28.9949L51.5742 28.5055C51.5742 28.5055 57.5784 26.4323 57.8359 26.033C58.0934 25.6336 59.1483 17.7718 59.1483 17.7718L59.531 17.6348V17.6328Z" fill="#7A9FC2"/>
<path d="M59.5306 17.6328L58.2021 26.4754C58.2021 26.4754 58.9083 23.9775 59.1855 21.9415C59.4626 19.9037 59.5306 17.6348 59.5306 17.6348V17.6328Z" fill="white"/>
<g style="mix-blend-mode:soft-light" opacity="0.4">
<path d="M58.744 18.4251C58.7279 20.2359 57.8393 24.6524 57.4245 24.7992C57.0096 24.946 52.1837 26.561 51.5168 25.96C50.8499 25.3591 49.3837 21.8353 49.7449 21.6259C50.1043 21.4144 58.7512 17.6166 58.744 18.4251Z" fill="#D4EFFF"/>
</g>
<g style="mix-blend-mode:soft-light" opacity="0.4">
<path d="M61.6587 17.1901C61.5175 19.0127 61.0133 23.6914 60.7075 23.8519C60.4017 24.0124 59.3772 24.5429 59.2163 24.0594C58.9606 23.2901 59.615 18.0338 60.0316 17.7696C60.4464 17.5053 61.6945 16.7438 61.6587 17.1901Z" fill="#D4EFFF"/>
</g>
<path style="mix-blend-mode:multiply" opacity="0.37" d="M60.5498 24.5001C60.7572 24.9837 59.8096 28.202 59.5843 28.5133C59.359 28.8245 54.1594 32.9434 53.6891 32.7887C53.2189 32.6321 51.4255 27.3309 51.6973 27.0627C51.9708 26.7925 60.3192 23.9657 60.5498 24.5021V24.5001Z" fill="url(#paint3_linear_2553_3)"/>
<g style="mix-blend-mode:multiply" opacity="0.5">
<path d="M53.4105 19.8096C53.4105 19.8096 54.1865 26.303 56.1015 31.9292L53.4016 33.9515L49.062 21.3561L53.4087 19.8096H53.4105Z" fill="#A1C5EA"/>
</g>
<path d="M30.9989 60.4243L54.5562 41.6859L45.5589 11.3662H16.4408L7.44336 41.6859L30.9989 60.4243Z" fill="#31414C"/>
<path d="M46.4011 10.0977H15.5987L6.08105 42.1695L31.0008 61.9924L55.9206 42.1695L46.4029 10.0977H46.4011ZM11.0088 40.4174L18.6437 14.6883H43.3543L50.9892 40.4174L30.999 56.3192L11.0088 40.4174Z" fill="url(#paint4_radial_2553_3)"/>
<g style="mix-blend-mode:multiply" opacity="0.2">
<path d="M18.6455 14.6885L30.999 56.3194L43.3543 14.6885H18.6455Z" fill="#0C363D"/>
</g>
<path d="M46.401 10.0977H15.5986L13.3975 17.5171C14.7653 17.5856 16.185 17.7755 17.6387 18.0789L18.6454 14.6883H43.356L50.9909 40.4174L48.0925 42.7235C48.7451 44.1114 49.3226 45.5464 49.8179 47.0244L55.9187 42.1714L46.401 10.0996V10.0977Z" fill="url(#paint5_radial_2553_3)"/>
<path style="mix-blend-mode:screen" d="M46.401 10.0977H15.5986L13.3975 17.5171C14.7653 17.5856 16.185 17.7755 17.6387 18.0789L18.6454 14.6883H43.356L50.9909 40.4174L48.0925 42.7235C48.7451 44.1114 49.3226 45.5464 49.8179 47.0244L55.9187 42.1714L46.401 10.0996V10.0977Z" fill="url(#paint6_linear_2553_3)"/>
<path style="mix-blend-mode:screen" d="M44.7114 51.0866C44.5648 49.2992 44.3216 47.6 43.9944 45.983L31.0008 56.3193L11.0106 40.4175L16.4927 21.9414C14.9353 21.9825 13.403 22.1744 11.9172 22.5072L6.08105 42.1696L31.0008 61.9925L44.7132 51.0846L44.7114 51.0866Z" fill="url(#paint7_linear_2553_3)"/>
<path d="M11.0088 40.4176L12.9846 39.9321L19.8649 16.744H42.1331L49.0152 39.9321L50.991 40.4176L43.3543 14.6885H18.6437L11.0088 40.4176Z" fill="#455A82"/>
<g style="mix-blend-mode:multiply" opacity="0.2">
<path d="M12.9847 39.9321L16.8343 29.1162C19.1141 22.7109 24.7499 19.933 31.0277 19.933C37.3341 19.933 42.9861 22.7481 45.2479 29.1926L49.0153 39.9321L42.1332 16.744H19.865L12.9829 39.9321H12.9847Z" fill="#2753A0"/>
</g>
<path d="M11.0088 40.417L12.9846 39.9315L30.999 54.2614L49.0152 39.9315L50.991 40.417L30.999 56.3188L11.0088 40.417Z" fill="url(#paint8_linear_2553_3)"/>
<g style="mix-blend-mode:multiply" opacity="0.6">
<path d="M12.9849 39.9321L20.0512 20.0838C20.3927 19.1265 21.2349 18.4942 22.1736 18.4942H39.9305C40.8728 18.4942 41.7185 19.1304 42.0583 20.0935L49.0173 39.9321L42.1352 16.744H19.867L12.9849 39.9321Z" fill="#2753A0"/>
</g>
<path d="M18.644 14.6885L19.8652 16.744H42.1334L43.3546 14.6885H18.644Z" fill="#2E3E54"/>
<g style="mix-blend-mode:multiply" opacity="0.35">
<path d="M9.4944 30.668L7.10738 40.4522C6.92142 41.2959 7.28797 42.4137 7.92272 42.9345L30.999 61.992L6.08105 42.171L9.4944 30.6699V30.668Z" fill="#455A82"/>
</g>
<g style="mix-blend-mode:multiply" opacity="0.6">
<path d="M12.9846 39.9315L30.1711 52.6052C30.6271 52.9419 31.3727 52.9419 31.8268 52.6052L49.0134 39.9315L30.9972 54.2614L12.981 39.9315H12.9846Z" fill="#2753A0"/>
</g>
<g style="mix-blend-mode:multiply" opacity="0.35">
<path d="M10.0557 28.7793L15.2607 12.4409C15.7989 10.7809 16.1887 10.3463 17.7961 10.2817L31.0007 10.0977H15.6004L10.0557 28.7793Z" fill="#455A82"/>
</g>
<path d="M19.9883 47.5588L30.999 56.3192L45.8701 44.4912L30.999 57.0631L19.9883 47.5588Z" fill="#F3FEFF"/>
<path d="M30.1641 10.0977H46.4012L49.7466 21.3755L45.7808 10.7241L30.1641 10.0977Z" fill="#F3FEFF"/>
<g style="mix-blend-mode:screen">
<path d="M36.6259 10.0977C36.4918 11.56 37.0729 13.1946 38.1975 14.6883H43.3542L44.6291 18.9853C46.2455 19.4179 47.7903 19.4336 49.0563 19.0518L46.3992 10.0977H36.6241H36.6259Z" fill="white"/>
</g>
<g style="mix-blend-mode:screen">
<path d="M35.3869 12.6508C34.3105 11.7953 33.0124 11.7405 32.4885 12.5294C32.113 13.0952 32.2399 13.9409 32.737 14.6887H36.5974C36.5366 13.9976 36.1021 13.2185 35.3869 12.6508Z" fill="white"/>
</g>
<g style="mix-blend-mode:screen">
<path d="M18.6492 46.494C18.2595 47.5923 18.9657 49.2308 20.3836 50.3584C21.8015 51.486 23.443 51.715 24.2762 50.9692L18.6492 46.494Z" fill="white"/>
</g>
<g style="mix-blend-mode:screen">
<path d="M24.3119 53.9678C24.0741 54.3671 23.4161 54.3593 22.8439 53.9502C22.27 53.541 21.9982 52.8852 22.236 52.4859C22.4738 52.0865 23.1318 52.0943 23.704 52.5035C24.2779 52.9126 24.5497 53.5684 24.3119 53.9678Z" fill="white"/>
</g>
<g style="mix-blend-mode:multiply" opacity="0.5">
<path d="M31.1226 37.8054L25.991 40.7575L26.9708 34.5029L22.8208 30.0728L28.5568 29.1586L31.1226 23.4678L33.6884 29.1586L39.4244 30.0728L35.2744 34.5029L36.2543 40.7575L31.1226 37.8054Z" fill="#89B1D9"/>
</g>
<path d="M38.8256 30.2866L36.0577 29.8461L35.3013 29.7247L33.5026 29.4389L31.1227 24.1592L28.7428 29.4389L23.4199 30.2866L27.2713 34.3956L26.3612 40.2L31.1227 37.4593L35.8842 40.2L34.9741 34.3956L38.8256 30.2866Z" fill="url(#paint9_linear_2553_3)"/>
<path style="mix-blend-mode:multiply" opacity="0.37" d="M23.3926 30.286L31.2331 32.5295L27.244 34.3951L23.3926 30.286Z" fill="url(#paint10_linear_2553_3)"/>
<path style="mix-blend-mode:multiply" opacity="0.37" d="M38.7986 30.286L31.2334 32.5295L34.9472 34.3951L38.7986 30.286Z" fill="url(#paint11_linear_2553_3)"/>
<path style="mix-blend-mode:multiply" opacity="0.37" d="M31.0955 37.4596L31.2332 32.5303L26.334 40.2003L31.0955 37.4596Z" fill="url(#paint12_linear_2553_3)"/>
<path style="mix-blend-mode:multiply" opacity="0.37" d="M35.8555 40.2003L31.2334 32.5303L31.0957 37.4596L35.8555 40.2003Z" fill="url(#paint13_linear_2553_3)"/>
<path style="mix-blend-mode:color-dodge" opacity="0.5" d="M31.0957 24.1592L31.2334 32.53L33.4756 29.4389L31.0957 24.1592Z" fill="url(#paint14_linear_2553_3)"/>
<path style="mix-blend-mode:color-dodge" opacity="0.5" d="M38.7986 30.2861L31.2334 32.5296L33.4756 29.4385L38.7986 30.2861Z" fill="url(#paint15_linear_2553_3)"/>
<path style="mix-blend-mode:color-dodge" opacity="0.5" d="M38.7986 30.2861L31.2334 32.5296L33.4756 29.4385L38.7986 30.2861Z" fill="url(#paint16_linear_2553_3)"/>
<path style="mix-blend-mode:color-dodge" opacity="0.5" d="M28.7138 29.4385L31.2331 32.5296L23.3926 30.2861L28.7138 29.4385Z" fill="url(#paint17_linear_2553_3)"/>
<path d="M33.4755 31.2752C33.0804 31.6412 33.4183 31.882 33.4183 31.882L35.4567 31.2771C35.4567 31.2771 34.391 30.4295 33.4773 31.2771L33.4755 31.2752Z" fill="white"/>
<g style="mix-blend-mode:multiply" opacity="0.5">
<path d="M26.3608 40.1997C26.3608 40.1997 29.9726 38.338 31.1223 37.8192L35.8838 40.1997L31.1223 37.459L26.3608 40.1997Z" fill="#89B1D9"/>
</g>
<g style="mix-blend-mode:multiply" opacity="0.5">
<path d="M23.3926 30.286L31.2331 32.5295L26.9276 36.5857L23.3926 30.286Z" fill="#89B1D9"/>
</g>
<g style="mix-blend-mode:multiply" opacity="0.5">
<path d="M38.7986 30.286L31.2334 32.5295L35.4013 37.124L38.7986 30.286Z" fill="#89B1D9"/>
</g>
<g style="mix-blend-mode:multiply" opacity="0.5">
<path d="M26.3608 40.1993L31.2331 32.5293L35.8838 40.1993L31.1223 39.3751L26.3608 40.1993Z" fill="#89B1D9"/>
</g>
<g style="mix-blend-mode:soft-light" opacity="0.4">
<path d="M29.3508 28.5247C28.8447 30.0615 30.774 31.1362 31.0333 30.6625C31.2926 30.1907 31.1281 27.5499 30.8026 27.1936C30.4772 26.8373 29.5582 27.8964 29.3508 28.5247Z" fill="white"/>
</g>
<g style="mix-blend-mode:soft-light" opacity="0.4">
<path d="M27.7719 36.4019C28.7964 36.5546 29.3704 35.2763 29.5867 34.3973C29.9354 32.98 25.9087 36.1259 27.7719 36.4019Z" fill="white"/>
</g>
</g>
</g>
<defs>
<linearGradient id="paint0_linear_2553_3" x1="2.68108" y1="31.8134" x2="7.10229" y2="19.3851" gradientUnits="userSpaceOnUse">
<stop stop-color="#96BBE0"/>
<stop offset="0.67" stop-color="#B4D5F8"/>
<stop offset="1" stop-color="#AFD1F5"/>
</linearGradient>
<linearGradient id="paint1_linear_2553_3" x1="6.04971" y1="25.48" x2="3.98601" y2="31.2812" gradientUnits="userSpaceOnUse">
<stop stop-color="#789DBF"/>
<stop offset="1" stop-color="white"/>
</linearGradient>
<linearGradient id="paint2_linear_2553_3" x1="59.3223" y1="31.8184" x2="54.9011" y2="19.3902" gradientUnits="userSpaceOnUse">
<stop stop-color="#96BBE0"/>
<stop offset="0.67" stop-color="#B4D5F8"/>
<stop offset="1" stop-color="#AFD1F5"/>
</linearGradient>
<linearGradient id="paint3_linear_2553_3" x1="55.9538" y1="25.4851" x2="58.0168" y2="31.2844" gradientUnits="userSpaceOnUse">
<stop stop-color="#789DBF"/>
<stop offset="1" stop-color="white"/>
</linearGradient>
<radialGradient id="paint4_radial_2553_3" cx="0" cy="0" r="1" gradientUnits="userSpaceOnUse" gradientTransform="translate(44.3145 11.8302) scale(39.5316 43.2812)">
<stop offset="0.01" stop-color="#5C6CBA"/>
<stop offset="1" stop-color="#81B3D4"/>
</radialGradient>
<radialGradient id="paint5_radial_2553_3" cx="0" cy="0" r="1" gradientUnits="userSpaceOnUse" gradientTransform="translate(51.5058 5.93961) scale(54.6887 59.876)">
<stop offset="0.01" stop-color="#5C6CBA"/>
<stop offset="1" stop-color="#81B3D4"/>
</radialGradient>
<linearGradient id="paint6_linear_2553_3" x1="53.866" y1="1.67982" x2="26.3237" y2="32.7101" gradientUnits="userSpaceOnUse">
<stop stop-color="#9CD3DE"/>
<stop offset="0.19" stop-color="#98CDDA"/>
<stop offset="0.41" stop-color="#8CBED0"/>
<stop offset="0.66" stop-color="#79A6C0"/>
<stop offset="0.93" stop-color="#5F84AA"/>
<stop offset="1" stop-color="#5779A3"/>
</linearGradient>
<linearGradient id="paint7_linear_2553_3" x1="14.3918" y1="55.9004" x2="38.5051" y2="28.2955" gradientUnits="userSpaceOnUse">
<stop stop-color="#42495E"/>
<stop offset="1" stop-color="#4A5780"/>
</linearGradient>
<linearGradient id="paint8_linear_2553_3" x1="30.999" y1="36.1396" x2="30.999" y2="45.1799" gradientUnits="userSpaceOnUse">
<stop stop-color="#B4E6F7"/>
<stop offset="0.23" stop-color="#CCEEF9"/>
<stop offset="0.51" stop-color="#E3F7FC"/>
<stop offset="0.77" stop-color="#F2FCFE"/>
<stop offset="1" stop-color="#F7FEFF"/>
</linearGradient>
<linearGradient id="paint9_linear_2553_3" x1="31.1227" y1="40.5014" x2="31.1227" y2="21.4381" gradientUnits="userSpaceOnUse">
<stop stop-color="#7CA7D2"/>
<stop offset="0.67" stop-color="#9EC1E4"/>
<stop offset="1" stop-color="#99BDE1"/>
</linearGradient>
<linearGradient id="paint10_linear_2553_3" x1="27.312" y1="30.286" x2="27.312" y2="34.3951" gradientUnits="userSpaceOnUse">
<stop stop-color="#5889BA"/>
<stop offset="1" stop-color="white"/>
</linearGradient>
<linearGradient id="paint11_linear_2553_3" x1="35.0151" y1="-0.000375901" x2="35.0151" y2="-0.000375901" gradientUnits="userSpaceOnUse">
<stop stop-color="#5889BA"/>
<stop offset="1" stop-color="white"/>
</linearGradient>
<linearGradient id="paint12_linear_2553_3" x1="28.7836" y1="32.5303" x2="28.7836" y2="40.2003" gradientUnits="userSpaceOnUse">
<stop stop-color="#5889BA"/>
<stop offset="1" stop-color="white"/>
</linearGradient>
<linearGradient id="paint13_linear_2553_3" x1="33.4756" y1="32.5303" x2="33.4756" y2="40.2003" gradientUnits="userSpaceOnUse">
<stop stop-color="#5889BA"/>
<stop offset="1" stop-color="white"/>
</linearGradient>
<linearGradient id="paint14_linear_2553_3" x1="31.8002" y1="25.4179" x2="33.0747" y2="36.0895" gradientUnits="userSpaceOnUse">
<stop stop-color="white"/>
<stop offset="1" stop-color="#0C2844"/>
</linearGradient>
<linearGradient id="paint15_linear_2553_3" x1="31.2334" y1="30.985" x2="38.7986" y2="30.985" gradientUnits="userSpaceOnUse">
<stop stop-color="white"/>
<stop offset="1" stop-color="#0C2844"/>
</linearGradient>
<linearGradient id="paint16_linear_2553_3" x1="34.3875" y1="25.1082" x2="35.662" y2="35.7797" gradientUnits="userSpaceOnUse">
<stop stop-color="white"/>
<stop offset="1" stop-color="#0C2844"/>
</linearGradient>
<linearGradient id="paint17_linear_2553_3" x1="26.7756" y1="26.0165" x2="28.05" y2="36.69" gradientUnits="userSpaceOnUse">
<stop stop-color="white"/>
<stop offset="1" stop-color="#0C2844"/>
</linearGradient>
<clipPath id="clip0_2553_3">
<rect width="62" height="62" fill="white"/>
</clipPath>
</defs>
</svg>
