<svg width="63" height="62" viewBox="0 0 63 62" fill="none" xmlns="http://www.w3.org/2000/svg">
<g clip-path="url(#clip0_2553_296)">
<path d="M24.2807 24.8229L0 16.7598L0.943739 21.5818L21.5683 28.9182L24.2807 24.8229Z" fill="url(#paint0_linear_2553_296)"/>
<g style="mix-blend-mode:multiply" opacity="0.5">
<path d="M22.1625 27.7005L0.666504 20.166L0.943769 21.5816L21.5683 28.918L22.1625 27.7005Z" fill="#ACC7E3"/>
</g>
<g style="mix-blend-mode:soft-light" opacity="0.4">
<path d="M10.276 20.4006C10.6945 21.1704 8.97748 22.7703 8.652 22.5929C8.32651 22.4155 1.27944 20.1457 1.03489 19.8271C0.790346 19.5085 0.192759 17.3334 0.519969 17.2026C0.847179 17.0717 10.0332 19.9563 10.2743 20.4006H10.276Z" fill="#DDF1FF"/>
</g>
<g style="mix-blend-mode:multiply" opacity="0.5">
<path d="M11.0116 20.3972C11.0116 20.3972 9.28767 22.5844 9.07929 23.1148C8.87091 23.6452 9.02245 24.4546 9.02245 24.4546L21.5667 28.9167L24.2791 24.8215L11.0116 20.3955V20.3972Z" fill="#ACC7E3"/>
</g>
<path d="M38.0752 24.8229L62.3559 16.7598L61.4105 21.5818L40.7876 28.9182L38.0752 24.8229Z" fill="url(#paint1_linear_2553_296)"/>
<g style="mix-blend-mode:multiply" opacity="0.5">
<path d="M40.1914 27.7005L61.6874 20.166L61.4101 21.5816L40.7872 28.918L40.1914 27.7005Z" fill="#ACC7E3"/>
</g>
<g style="mix-blend-mode:soft-light" opacity="0.4">
<path d="M52.078 20.4006C51.6596 21.1704 53.3766 22.7703 53.702 22.5929C54.0275 22.4155 61.0746 20.1457 61.3191 19.8271C61.5637 19.5085 62.1613 17.3334 61.8341 17.2026C61.5069 17.0717 52.3209 19.9563 52.0798 20.4006H52.078Z" fill="#DDF1FF"/>
</g>
<g style="mix-blend-mode:multiply" opacity="0.5">
<path d="M51.3427 20.3972C51.3427 20.3972 53.0666 22.5844 53.2749 23.1148C53.4833 23.6452 53.3318 24.4546 53.3318 24.4546L40.7876 28.9167L38.0752 24.8215L51.3427 20.3955V20.3972Z" fill="#ACC7E3"/>
</g>
<path d="M16.5912 29.0597L15.439 24.217L16.5808 22.2916L24.3185 16.0471V3.96441L25.3018 3.0155L28.4052 0V20.6142L16.5912 29.0597Z" fill="url(#paint2_linear_2553_296)"/>
<path d="M15.439 24.2171L25.3018 16.6586V3.01562L24.3184 3.96453V16.0472L16.5808 22.2917L15.439 24.2171Z" fill="url(#paint3_linear_2553_296)"/>
<g style="mix-blend-mode:soft-light" opacity="0.4">
<path d="M25.5256 3.01523C25.4739 3.78848 25.5721 13.3912 25.9079 13.6151C26.2437 13.8407 27.9848 12.5215 28.1295 11.9946C28.2741 11.4659 28.188 1.19147 27.9504 1.22763C27.7127 1.26552 25.5617 2.47275 25.5273 3.01523H25.5256Z" fill="#DAECFF"/>
</g>
<path style="mix-blend-mode:multiply" opacity="0.37" d="M25.5841 16.836C24.7041 17.8038 15.9366 24.2171 15.816 24.6339C15.6627 25.1695 16.8269 27.6683 17.3797 27.4582C17.9343 27.2481 28.3705 19.3348 28.3895 18.9611C28.4101 18.5857 28.4377 16.5312 28.1863 16.3968C27.9348 16.2625 25.9182 16.4674 25.5824 16.8377L25.5841 16.836Z" fill="url(#paint4_linear_2553_296)"/>
<path d="M15.439 24.6324L25.5084 16.8121L25.5636 2.78516L25.3018 3.01593V16.6589L15.439 24.2174V24.6324Z" fill="#809CB4"/>
<g style="mix-blend-mode:soft-light" opacity="0.4">
<path d="M24.4235 16.1863C23.8501 16.2362 16.6893 22.3843 16.6893 22.56C16.6893 22.7356 15.427 23.7775 15.7335 23.7517C16.0401 23.7259 25.09 16.8837 25.1021 16.6599C25.1141 16.436 24.7318 16.1604 24.4235 16.1863Z" fill="#DAECFF"/>
</g>
<g style="mix-blend-mode:soft-light" opacity="0.4">
<path d="M15.439 24.6319C15.439 24.6319 20.2042 21.4149 22.641 19.3621C25.0779 17.3093 25.5842 16.834 25.5842 16.834L15.439 24.6319Z" fill="#DAECFF"/>
</g>
<g style="mix-blend-mode:multiply" opacity="0.5">
<path d="M24.3186 14.4975L25.3019 13.3677H25.5138L28.4053 11.2529V20.6146L25.1039 22.8396L23.4868 16.7191L24.3186 16.0474V14.4975Z" fill="#A9C2DC"/>
</g>
<path d="M46.1968 29.0597L47.3489 24.217L46.2071 22.2916L38.4695 16.0471V3.96441L37.4861 3.0155L34.3208 0V20.5694L46.1968 29.0597Z" fill="url(#paint5_linear_2553_296)"/>
<path d="M47.3491 24.2171L37.4863 16.6586V3.01562L38.4697 3.96453V16.0472L46.2073 22.2917L47.3491 24.2171Z" fill="url(#paint6_linear_2553_296)"/>
<g style="mix-blend-mode:soft-light" opacity="0.4">
<path d="M37.0989 3.01523C37.1506 3.78848 37.2952 13.3912 36.9577 13.6151C36.6219 13.8407 34.755 12.3907 34.6104 11.8637C34.4657 11.335 34.5983 1.19147 34.8377 1.22764C35.0754 1.26552 37.0627 2.47275 37.0989 3.01523Z" fill="#DAECFF"/>
</g>
<path style="mix-blend-mode:multiply" opacity="0.37" d="M37.2039 16.836C38.0839 17.8038 46.8514 24.2171 46.9719 24.6339C47.1252 25.1695 45.961 27.6683 45.4082 27.4582C44.8537 27.2481 34.4174 19.3348 34.3985 18.9611C34.3778 18.5857 34.3502 16.5312 34.6017 16.3968C34.8531 16.2625 36.8698 16.4674 37.2056 16.8377L37.2039 16.836Z" fill="url(#paint7_linear_2553_296)"/>
<path d="M47.3489 24.6324L37.2795 16.8121L37.2261 2.78516L37.4861 3.01593V16.6589L47.3489 24.2174V24.6324Z" fill="#809CB4"/>
<g style="mix-blend-mode:soft-light" opacity="0.4">
<path d="M38.3643 16.1863C38.9378 16.2362 46.0985 22.3843 46.0985 22.56C46.0985 22.7356 47.3609 23.7775 47.0543 23.7517C46.7478 23.7259 37.6979 16.8837 37.6858 16.6599C37.6738 16.436 38.0561 16.1604 38.3643 16.1863Z" fill="#DAECFF"/>
</g>
<g style="mix-blend-mode:soft-light" opacity="0.4">
<path d="M47.3489 24.6319C47.3489 24.6319 42.5837 21.4149 40.1468 19.3621C37.71 17.3093 37.2036 16.834 37.2036 16.834L47.3489 24.6319Z" fill="#DAECFF"/>
</g>
<g style="mix-blend-mode:multiply" opacity="0.5">
<path d="M38.4695 14.4976L37.4362 13.3678H37.2243L34.3242 11.2393L34.3328 20.6147L37.6342 22.8397L39.2513 16.7192L38.4695 16.0475V14.4976Z" fill="#A9C2DC"/>
</g>
<path d="M9.81604 39.2776C9.70927 39.4343 3.2374 34.5279 3.2374 34.5279C1.61341 28.5089 1.53418 24.1484 1.53418 24.1484L13.994 28.1972L9.81432 39.2776H9.81604Z" fill="url(#paint8_linear_2553_296)"/>
<path d="M3.91455 24.9199C3.91455 24.9199 4.87207 31.8757 5.19411 32.6989L11.4386 34.9153L11.5781 34.4848C11.5781 34.4848 5.79515 32.661 5.54716 32.3097C5.29916 31.9584 4.28309 25.0405 4.28309 25.0405L3.91455 24.9199Z" fill="#7A9FC2"/>
<path d="M3.91455 24.9199L5.19411 32.6989C5.19411 32.6989 4.51386 30.5014 4.24692 28.7104C3.97999 26.9176 3.91455 24.9216 3.91455 24.9216V24.9199Z" fill="white"/>
<g style="mix-blend-mode:soft-light" opacity="0.4">
<path d="M4.67237 25.6177C4.68787 27.2107 5.54379 31.0959 5.94333 31.2251C6.34287 31.3542 10.991 32.775 11.6333 32.2463C12.274 31.7176 13.6879 28.6177 13.34 28.4335C12.9938 28.2475 4.66549 24.9065 4.67237 25.6177Z" fill="#D4EFFF"/>
</g>
<g style="mix-blend-mode:soft-light" opacity="0.4">
<path d="M1.86498 24.531C2.00103 26.1343 2.48668 30.2503 2.78116 30.3915C3.07565 30.5327 4.06245 30.9994 4.21744 30.574C4.46371 29.8972 3.8334 25.2732 3.43214 25.0408C3.03088 24.8083 1.83053 24.1383 1.86498 24.531Z" fill="#D4EFFF"/>
</g>
<path style="mix-blend-mode:multiply" opacity="0.37" d="M2.93268 30.961C2.73291 31.3864 3.64565 34.2176 3.86264 34.4914C4.07964 34.7653 9.08767 38.3887 9.5406 38.2526C9.99352 38.1148 11.7208 33.4512 11.4591 33.2153C11.1956 32.9777 3.15484 30.4909 2.93268 30.9627V30.961Z" fill="url(#paint9_linear_2553_296)"/>
<g style="mix-blend-mode:multiply" opacity="0.5">
<path d="M9.80962 26.835C9.80962 26.835 9.0622 32.5474 7.21777 37.4968L9.81823 39.2758L13.9979 28.1955L9.81134 26.835H9.80962Z" fill="#A1C5EA"/>
</g>
<path d="M52.9718 39.2776C53.0786 39.4343 59.5504 34.5279 59.5504 34.5279C61.1744 28.5089 61.2537 24.1484 61.2537 24.1484L48.7939 28.1972L52.9735 39.2776H52.9718Z" fill="url(#paint10_linear_2553_296)"/>
<path d="M58.8736 24.9199C58.8736 24.9199 57.916 31.8757 57.594 32.6989L51.3495 34.9153L51.21 34.4848C51.21 34.4848 56.993 32.661 57.241 32.3097C57.4889 31.9584 58.505 25.0405 58.505 25.0405L58.8736 24.9199Z" fill="#7A9FC2"/>
<path d="M58.8738 24.9199L57.5942 32.6989C57.5942 32.6989 58.2744 30.5014 58.5414 28.7104C58.8083 26.9176 58.8738 24.9216 58.8738 24.9216V24.9199Z" fill="white"/>
<g style="mix-blend-mode:soft-light" opacity="0.4">
<path d="M58.116 25.6177C58.1005 27.2107 57.2446 31.0959 56.845 31.2251C56.4455 31.3542 51.7974 32.775 51.155 32.2463C50.5127 31.7176 49.1005 28.6177 49.4484 28.4335C49.7945 28.2475 58.1229 24.9065 58.116 25.6177Z" fill="#D4EFFF"/>
</g>
<g style="mix-blend-mode:soft-light" opacity="0.4">
<path d="M60.923 24.531C60.787 26.1343 60.3013 30.2503 60.0069 30.3915C59.7124 30.5327 58.7256 30.9994 58.5706 30.574C58.3243 29.8972 58.9546 25.2732 59.3559 25.0408C59.7571 24.8083 60.9575 24.1383 60.923 24.531Z" fill="#D4EFFF"/>
</g>
<path style="mix-blend-mode:multiply" opacity="0.37" d="M59.855 30.961C60.0548 31.3864 59.1421 34.2176 58.9251 34.4914C58.7081 34.7653 53.7 38.3887 53.2471 38.2526C52.7942 38.1148 51.0669 33.4512 51.3286 33.2153C51.5921 32.9777 59.6329 30.4909 59.855 30.9627V30.961Z" fill="url(#paint11_linear_2553_296)"/>
<g style="mix-blend-mode:multiply" opacity="0.5">
<path d="M52.9788 26.835C52.9788 26.835 53.7262 32.5474 55.5706 37.4968L52.9702 39.2758L48.7905 28.1955L52.977 26.835H52.9788Z" fill="#A1C5EA"/>
</g>
<path d="M31.3933 59.9397L54.0827 43.4569L45.4168 16.7842H17.3715L8.70557 43.4569L31.3933 59.9397Z" fill="#31414C"/>
<path d="M46.2277 15.668H16.5601L7.39307 43.8821L31.3948 61.3206L55.3965 43.8821L46.2294 15.668H46.2277ZM12.1394 42.3407L19.493 19.7064H43.2932L50.6468 42.3407L31.3931 56.3298L12.1394 42.3407Z" fill="url(#paint12_radial_2553_296)"/>
<g style="mix-blend-mode:multiply" opacity="0.2">
<path d="M19.4946 19.7051L31.3947 56.3285L43.2931 19.7051H19.4946Z" fill="#0C363D"/>
</g>
<path d="M46.228 15.668H16.5604L14.4404 22.1949C15.7579 22.2552 17.1253 22.4223 18.5254 22.6892L19.4949 19.7064H43.2951L50.6488 42.3407L47.8571 44.3694C48.4857 45.5904 49.042 46.8528 49.519 48.153L55.395 43.8838L46.228 15.6697V15.668Z" fill="url(#paint13_radial_2553_296)"/>
<path style="mix-blend-mode:screen" d="M46.228 15.668H16.5604L14.4404 22.1949C15.7579 22.2552 17.1253 22.4223 18.5254 22.6892L19.4949 19.7064H43.2951L50.6488 42.3407L47.8571 44.3694C48.4857 45.5904 49.042 46.8528 49.519 48.153L55.395 43.8838L46.228 15.6697V15.668Z" fill="url(#paint14_linear_2553_296)"/>
<path style="mix-blend-mode:screen" d="M44.6003 51.7254C44.4591 50.1531 44.2249 48.6582 43.9097 47.2357L31.3948 56.3287L12.1411 42.3397L17.4212 26.0859C15.9212 26.1221 14.4453 26.2909 13.0142 26.5836L7.39307 43.881L31.3948 61.3195L44.602 51.7237L44.6003 51.7254Z" fill="url(#paint15_linear_2553_296)"/>
<path d="M12.1396 42.3411L14.0425 41.914L20.6694 21.5151H42.1172L48.7458 41.914L50.6488 42.3411L43.2934 19.7051H19.4949L12.1396 42.3411Z" fill="#455A82"/>
<g style="mix-blend-mode:multiply" opacity="0.2">
<path d="M14.0427 41.9136L17.7505 32.3987C19.9462 26.7638 25.3745 24.32 31.421 24.32C37.495 24.32 42.9388 26.7965 45.1173 32.4658L48.7459 41.9136L42.1173 21.5146H20.6695L14.041 41.9136H14.0427Z" fill="#2753A0"/>
</g>
<path d="M12.1396 42.3412L14.0425 41.9141L31.395 54.5202L48.7458 41.9141L50.6488 42.3412L31.395 56.3285L12.1396 42.3412Z" fill="url(#paint16_linear_2553_296)"/>
<g style="mix-blend-mode:multiply" opacity="0.6">
<path d="M14.0425 41.9136L20.8484 24.4526C21.1774 23.6105 21.9885 23.0543 22.8926 23.0543H39.9954C40.903 23.0543 41.7175 23.614 42.0448 24.4613L48.7474 41.9136L42.1188 21.5146H20.6711L14.0425 41.9136Z" fill="#2753A0"/>
</g>
<path d="M19.4946 19.7051L20.6691 21.5151H42.1169L43.2931 19.7051H19.4946Z" fill="#2E3E54"/>
<g style="mix-blend-mode:multiply" opacity="0.35">
<path d="M10.6809 33.7646L8.38184 42.3721C8.20274 43.1143 8.55578 44.0976 9.16714 44.5557L31.3933 61.3209L7.3916 43.8824L10.6792 33.7646H10.6809Z" fill="#455A82"/>
</g>
<g style="mix-blend-mode:multiply" opacity="0.6">
<path d="M14.0425 41.9141L30.5959 53.0633C31.0351 53.3595 31.7532 53.3595 32.1906 53.0633L48.744 41.9141L31.3916 54.5203L14.0391 41.9141H14.0425Z" fill="#2753A0"/>
</g>
<g style="mix-blend-mode:multiply" opacity="0.35">
<path d="M31.3933 61.3212L52.7653 44.8126C54.2601 43.7052 54.5821 43.4641 53.9105 41.3407L49.4501 25.5898L55.3933 43.8826L31.3916 61.3212H31.3933Z" fill="#455A82"/>
</g>
<g style="mix-blend-mode:multiply" opacity="0.35">
<path d="M11.2217 32.1006L16.2349 17.7274C16.7532 16.267 17.1287 15.8847 18.6769 15.8279L31.395 15.666H16.5621L11.2217 32.1006Z" fill="#455A82"/>
</g>
<path d="M20.7881 48.6231L31.3949 56.328L45.7164 45.9229L31.3949 56.9824L20.7881 48.6231Z" fill="#F3FEFF"/>
<path d="M30.5889 15.668H46.2278L49.4517 25.5893L45.6302 16.2173L30.5889 15.668Z" fill="#F3FEFF"/>
<g style="mix-blend-mode:screen">
<path d="M36.8127 15.668C36.6835 16.9544 37.2432 18.3924 38.3264 19.7064H43.2931L44.521 23.4866C46.0779 23.8672 47.5658 23.8809 48.7851 23.5451L46.226 15.668H36.8109H36.8127Z" fill="white"/>
</g>
<g style="mix-blend-mode:screen">
<path d="M35.6192 17.9119C34.5824 17.1593 33.3322 17.1111 32.8276 17.8051C32.4659 18.3028 32.5882 19.0468 33.0669 19.7046H36.7851C36.7265 19.0967 36.308 18.4113 35.6192 17.9119Z" fill="white"/>
</g>
<g style="mix-blend-mode:screen">
<path d="M19.4983 47.6865C19.1228 48.6527 19.8031 50.0941 21.1687 51.0861C22.5344 52.078 24.1154 52.2795 24.9179 51.6234L19.4983 47.6865Z" fill="white"/>
</g>
<g style="mix-blend-mode:screen">
<path d="M24.9541 54.26C24.7251 54.6113 24.0913 54.6044 23.5403 54.2445C22.9892 53.8845 22.7257 53.3076 22.9547 52.9563C23.1838 52.605 23.8175 52.6119 24.3686 52.9718C24.9197 53.3317 25.1832 53.9087 24.9541 54.26Z" fill="white"/>
</g>
<g style="mix-blend-mode:multiply" opacity="0.5">
<path d="M39 33.3653L36.4426 34.7103L36.9317 31.8636L34.8633 29.847L37.7221 29.4319L39 26.8418L40.2778 29.4319L43.1366 29.847L41.0683 31.8636L41.5556 34.7103L39 33.3653Z" fill="#89B1D9"/>
</g>
<path d="M42.8368 29.9434L41.4573 29.7437L41.0819 29.6886L40.1864 29.5577L38.9998 27.1553L37.8132 29.5577L35.1611 29.9434L37.0813 31.8137L36.6284 34.4555L38.9998 33.2087L41.3712 34.4555L40.9183 31.8137L42.8368 29.9434Z" fill="url(#paint17_linear_2553_296)"/>
<path style="mix-blend-mode:multiply" opacity="0.37" d="M35.1475 29.9434L39.0551 30.9646L37.0677 31.8136L35.1475 29.9434Z" fill="url(#paint18_linear_2553_296)"/>
<path style="mix-blend-mode:multiply" opacity="0.37" d="M42.825 29.9434L39.0552 30.9646L40.9048 31.8136L42.825 29.9434Z" fill="url(#paint19_linear_2553_296)"/>
<path style="mix-blend-mode:multiply" opacity="0.37" d="M38.9861 33.2088L39.055 30.9648L36.6147 34.4557L38.9861 33.2088Z" fill="url(#paint20_linear_2553_296)"/>
<path style="mix-blend-mode:multiply" opacity="0.37" d="M41.3577 34.4557L39.0552 30.9648L38.9863 33.2088L41.3577 34.4557Z" fill="url(#paint21_linear_2553_296)"/>
<path style="mix-blend-mode:color-dodge" opacity="0.5" d="M38.9863 27.1553L39.0552 30.9647L40.1729 29.5577L38.9863 27.1553Z" fill="url(#paint22_linear_2553_296)"/>
<path style="mix-blend-mode:color-dodge" opacity="0.5" d="M42.825 29.9434L39.0552 30.9646L40.1729 29.5576L42.825 29.9434Z" fill="url(#paint23_linear_2553_296)"/>
<path style="mix-blend-mode:color-dodge" opacity="0.5" d="M42.825 29.9434L39.0552 30.9646L40.1729 29.5576L42.825 29.9434Z" fill="url(#paint24_linear_2553_296)"/>
<path style="mix-blend-mode:color-dodge" opacity="0.5" d="M37.7996 29.5576L39.0551 30.9646L35.1475 29.9434L37.7996 29.5576Z" fill="url(#paint25_linear_2553_296)"/>
<path d="M40.1727 30.3951C39.9764 30.5621 40.1434 30.6706 40.1434 30.6706L41.1595 30.3951C41.1595 30.3951 40.6291 30.0093 40.1727 30.3951Z" fill="white"/>
<g style="mix-blend-mode:multiply" opacity="0.5">
<path d="M36.6284 34.4558C36.6284 34.4558 38.428 33.6085 38.9998 33.3726L41.3712 34.4558L38.9998 33.209L36.6284 34.4558Z" fill="#89B1D9"/>
</g>
<g style="mix-blend-mode:multiply" opacity="0.5">
<path d="M35.1475 29.9434L39.0551 30.9646L36.9093 32.8107L35.1475 29.9434Z" fill="#89B1D9"/>
</g>
<g style="mix-blend-mode:multiply" opacity="0.5">
<path d="M42.825 29.9434L39.0552 30.9646L41.1321 33.057L42.825 29.9434Z" fill="#89B1D9"/>
</g>
<g style="mix-blend-mode:multiply" opacity="0.5">
<path d="M36.6284 34.4557L39.0549 30.9648L41.3712 34.4557L38.9998 34.0802L36.6284 34.4557Z" fill="#89B1D9"/>
</g>
<g style="mix-blend-mode:soft-light" opacity="0.4">
<path d="M38.1164 29.1425C37.8632 29.8417 38.8259 30.3308 38.955 30.1156C39.0842 29.9003 39.0016 28.6982 38.8398 28.5363C38.6779 28.3745 38.2197 28.8567 38.1164 29.1425Z" fill="white"/>
</g>
<g style="mix-blend-mode:soft-light" opacity="0.4">
<path d="M37.3314 32.726C37.8429 32.7949 38.1287 32.2128 38.2355 31.8133C38.4094 31.1692 36.4031 32.6003 37.3314 32.726Z" fill="white"/>
</g>
<g style="mix-blend-mode:multiply" opacity="0.5">
<path d="M23.9501 33.3653L21.3945 34.7103L21.8818 31.8636L19.8135 29.847L22.6723 29.4319L23.9501 26.8418L25.2297 29.4319L28.0868 29.847L26.0185 31.8636L26.5075 34.7103L23.9501 33.3653Z" fill="#89B1D9"/>
</g>
<path d="M27.7885 29.9434L26.409 29.7437L26.0319 29.6886L25.1364 29.5577L23.9498 27.1553L22.765 29.5577L20.1128 29.9434L22.0313 31.8137L21.5784 34.4555L23.9498 33.2087L26.3229 34.4555L25.87 31.8137L27.7885 29.9434Z" fill="url(#paint26_linear_2553_296)"/>
<path style="mix-blend-mode:multiply" opacity="0.37" d="M20.0991 29.9434L24.0049 30.9646L22.0176 31.8136L20.0991 29.9434Z" fill="url(#paint27_linear_2553_296)"/>
<path style="mix-blend-mode:multiply" opacity="0.37" d="M27.7747 29.9434L24.0049 30.9646L25.8562 31.8136L27.7747 29.9434Z" fill="url(#paint28_linear_2553_296)"/>
<path style="mix-blend-mode:multiply" opacity="0.37" d="M23.9363 33.2088L24.0052 30.9648L21.5649 34.4557L23.9363 33.2088Z" fill="url(#paint29_linear_2553_296)"/>
<path style="mix-blend-mode:multiply" opacity="0.37" d="M26.3091 34.4557L24.0048 30.9648L23.936 33.2088L26.3091 34.4557Z" fill="url(#paint30_linear_2553_296)"/>
<path style="mix-blend-mode:color-dodge" opacity="0.5" d="M23.936 27.1553L24.0048 30.9647L25.1225 29.5577L23.936 27.1553Z" fill="url(#paint31_linear_2553_296)"/>
<path style="mix-blend-mode:color-dodge" opacity="0.5" d="M27.7747 29.9434L24.0049 30.9646L25.1225 29.5576L27.7747 29.9434Z" fill="url(#paint32_linear_2553_296)"/>
<path style="mix-blend-mode:color-dodge" opacity="0.5" d="M27.7747 29.9434L24.0049 30.9646L25.1225 29.5576L27.7747 29.9434Z" fill="url(#paint33_linear_2553_296)"/>
<path style="mix-blend-mode:color-dodge" opacity="0.5" d="M22.7512 29.5576L24.0049 30.9646L20.0991 29.9434L22.7512 29.5576Z" fill="url(#paint34_linear_2553_296)"/>
<path d="M25.1229 30.3951C24.9266 30.5621 25.0936 30.6706 25.0936 30.6706L26.1097 30.3951C26.1097 30.3951 25.5793 30.0093 25.1229 30.3951Z" fill="white"/>
<g style="mix-blend-mode:multiply" opacity="0.5">
<path d="M21.5786 34.4558C21.5786 34.4558 23.3782 33.6085 23.95 33.3726L26.3214 34.4558L23.95 33.209L21.5786 34.4558Z" fill="#89B1D9"/>
</g>
<g style="mix-blend-mode:multiply" opacity="0.5">
<path d="M20.0991 29.9434L24.005 30.9646L21.8609 32.8107L20.0991 29.9434Z" fill="#89B1D9"/>
</g>
<g style="mix-blend-mode:multiply" opacity="0.5">
<path d="M27.7747 29.9434L24.0049 30.9646L26.0818 33.057L27.7747 29.9434Z" fill="#89B1D9"/>
</g>
<g style="mix-blend-mode:multiply" opacity="0.5">
<path d="M21.5786 34.4557L24.0051 30.9648L26.3231 34.4557L23.95 34.0802L21.5786 34.4557Z" fill="#89B1D9"/>
</g>
<g style="mix-blend-mode:soft-light" opacity="0.4">
<path d="M23.0681 29.1425C22.8149 29.8417 23.7776 30.3308 23.9068 30.1156C24.0359 29.9003 23.9533 28.6982 23.7914 28.5363C23.6295 28.3745 23.1714 28.8567 23.0681 29.1425Z" fill="white"/>
</g>
<g style="mix-blend-mode:soft-light" opacity="0.4">
<path d="M22.281 32.726C22.7925 32.7949 23.0784 32.2128 23.1852 31.8133C23.3591 31.1692 21.3528 32.6003 22.281 32.726Z" fill="white"/>
</g>
<g style="mix-blend-mode:multiply" opacity="0.5">
<path d="M31.1417 43.8328L26.5022 46.2713L27.3891 41.1049L23.6348 37.447L28.8219 36.6927L31.1417 31.9912L33.4631 36.6927L38.6503 37.447L34.896 41.1049L35.7829 46.2713L31.1417 43.8328Z" fill="#89B1D9"/>
</g>
<path d="M38.1082 37.6229L35.6042 37.2596L34.9205 37.1597L33.2948 36.9237L31.1421 32.5615L28.9911 36.9237L24.1777 37.6229L27.6599 41.0173L26.8384 45.8118L31.1421 43.5472L35.4475 45.8118L34.626 41.0173L38.1082 37.6229Z" fill="url(#paint35_linear_2553_296)"/>
<path style="mix-blend-mode:multiply" opacity="0.37" d="M24.1514 37.623L31.2415 39.4761L27.6353 41.0174L24.1514 37.623Z" fill="url(#paint36_linear_2553_296)"/>
<path style="mix-blend-mode:multiply" opacity="0.37" d="M38.0838 37.623L31.2417 39.4761L34.5999 41.0174L38.0838 37.623Z" fill="url(#paint37_linear_2553_296)"/>
<path style="mix-blend-mode:multiply" opacity="0.37" d="M31.1179 43.5468L31.2419 39.4756L26.8125 45.8114L31.1179 43.5468Z" fill="url(#paint38_linear_2553_296)"/>
<path style="mix-blend-mode:multiply" opacity="0.37" d="M35.4231 45.8114L31.2417 39.4756L31.1177 43.5468L35.4231 45.8114Z" fill="url(#paint39_linear_2553_296)"/>
<path style="mix-blend-mode:color-dodge" opacity="0.5" d="M31.1177 32.5615L31.2417 39.476L33.2704 36.9237L31.1177 32.5615Z" fill="url(#paint40_linear_2553_296)"/>
<path style="mix-blend-mode:color-dodge" opacity="0.5" d="M38.0838 37.623L31.2417 39.4761L33.2704 36.9238L38.0838 37.623Z" fill="url(#paint41_linear_2553_296)"/>
<path style="mix-blend-mode:color-dodge" opacity="0.5" d="M38.0838 37.623L31.2417 39.4761L33.2704 36.9238L38.0838 37.623Z" fill="url(#paint42_linear_2553_296)"/>
<path style="mix-blend-mode:color-dodge" opacity="0.5" d="M28.9648 36.9238L31.2415 39.4761L24.1514 37.623L28.9648 36.9238Z" fill="url(#paint43_linear_2553_296)"/>
<path d="M33.2705 38.4407C32.9123 38.7438 33.2189 38.9418 33.2189 38.9418L35.0616 38.4424C35.0616 38.4424 34.0972 37.7415 33.2705 38.4424V38.4407Z" fill="white"/>
<g style="mix-blend-mode:multiply" opacity="0.5">
<path d="M26.8384 45.8117C26.8384 45.8117 30.1036 44.2739 31.1438 43.845L35.4492 45.8117L31.1438 43.5488L26.8384 45.8117Z" fill="#89B1D9"/>
</g>
<g style="mix-blend-mode:multiply" opacity="0.5">
<path d="M24.1519 37.623L31.242 39.4761L27.3499 42.8257L24.1519 37.623Z" fill="#89B1D9"/>
</g>
<g style="mix-blend-mode:multiply" opacity="0.5">
<path d="M38.0838 37.623L31.2417 39.4761L35.0115 43.2717L38.0838 37.623Z" fill="#89B1D9"/>
</g>
<g style="mix-blend-mode:multiply" opacity="0.5">
<path d="M26.8384 45.8114L31.242 39.4756L35.4475 45.8114L31.1421 45.1312L26.8384 45.8114Z" fill="#89B1D9"/>
</g>
<g style="mix-blend-mode:soft-light" opacity="0.4">
<path d="M29.5402 36.1693C29.0821 37.4386 30.8266 38.3255 31.0609 37.9346C31.2951 37.5436 31.147 35.3634 30.8525 35.0689C30.558 34.7744 29.7279 35.6492 29.5402 36.1693Z" fill="white"/>
</g>
<g style="mix-blend-mode:soft-light" opacity="0.4">
<path d="M28.1127 42.6737C29.0392 42.7994 29.5593 41.7437 29.7539 41.017C30.0691 39.8476 26.4267 42.4447 28.1127 42.6737Z" fill="white"/>
</g>
</g>
<defs>
<linearGradient id="paint0_linear_2553_296" x1="9.37608" y1="29.2117" x2="12.0854" y2="20.8747" gradientUnits="userSpaceOnUse">
<stop stop-color="#A1BDD9"/>
<stop offset="0.67" stop-color="#BED7F2"/>
<stop offset="1" stop-color="#BAD3EF"/>
</linearGradient>
<linearGradient id="paint1_linear_2553_296" x1="52.9774" y1="29.2109" x2="50.2685" y2="20.8722" gradientUnits="userSpaceOnUse">
<stop stop-color="#A1BDD9"/>
<stop offset="0.67" stop-color="#BED7F2"/>
<stop offset="1" stop-color="#BAD3EF"/>
</linearGradient>
<linearGradient id="paint2_linear_2553_296" x1="21.9212" y1="28.45" x2="21.9212" y2="9.70436" gradientUnits="userSpaceOnUse">
<stop stop-color="#9EB8D2"/>
<stop offset="0.67" stop-color="#BBD2EC"/>
<stop offset="1" stop-color="#B6CEE8"/>
</linearGradient>
<linearGradient id="paint3_linear_2553_296" x1="20.3695" y1="22.5828" x2="20.3695" y2="4.92033" gradientUnits="userSpaceOnUse">
<stop stop-color="#9EB8D2"/>
<stop offset="0.67" stop-color="#BBD2EC"/>
<stop offset="1" stop-color="#B6CEE8"/>
</linearGradient>
<linearGradient id="paint4_linear_2553_296" x1="22.1036" y1="16.3538" x2="22.1036" y2="27.4703" gradientUnits="userSpaceOnUse">
<stop stop-color="#7E9AB2"/>
<stop offset="1" stop-color="white"/>
</linearGradient>
<linearGradient id="paint5_linear_2553_296" x1="40.834" y1="28.45" x2="40.834" y2="9.70436" gradientUnits="userSpaceOnUse">
<stop stop-color="#9EB8D2"/>
<stop offset="0.67" stop-color="#BBD2EC"/>
<stop offset="1" stop-color="#B6CEE8"/>
</linearGradient>
<linearGradient id="paint6_linear_2553_296" x1="42.4169" y1="22.5828" x2="42.4169" y2="4.92033" gradientUnits="userSpaceOnUse">
<stop stop-color="#9EB8D2"/>
<stop offset="0.67" stop-color="#BBD2EC"/>
<stop offset="1" stop-color="#B6CEE8"/>
</linearGradient>
<linearGradient id="paint7_linear_2553_296" x1="40.6843" y1="16.3538" x2="40.6843" y2="27.4703" gradientUnits="userSpaceOnUse">
<stop stop-color="#7E9AB2"/>
<stop offset="1" stop-color="white"/>
</linearGradient>
<linearGradient id="paint8_linear_2553_296" x1="4.1157" y1="37.3978" x2="7.73502" y2="26.2586" gradientUnits="userSpaceOnUse">
<stop stop-color="#96BBE0"/>
<stop offset="0.67" stop-color="#B4D5F8"/>
<stop offset="1" stop-color="#AFD1F5"/>
</linearGradient>
<linearGradient id="paint9_linear_2553_296" x1="7.36022" y1="31.826" x2="5.67056" y2="37.0262" gradientUnits="userSpaceOnUse">
<stop stop-color="#789DBF"/>
<stop offset="1" stop-color="white"/>
</linearGradient>
<linearGradient id="paint10_linear_2553_296" x1="58.6665" y1="37.3936" x2="55.0467" y2="26.2528" gradientUnits="userSpaceOnUse">
<stop stop-color="#96BBE0"/>
<stop offset="0.67" stop-color="#B4D5F8"/>
<stop offset="1" stop-color="#AFD1F5"/>
</linearGradient>
<linearGradient id="paint11_linear_2553_296" x1="55.4219" y1="31.8218" x2="57.111" y2="37.0204" gradientUnits="userSpaceOnUse">
<stop stop-color="#789DBF"/>
<stop offset="1" stop-color="white"/>
</linearGradient>
<radialGradient id="paint12_radial_2553_296" cx="0" cy="0" r="1" gradientUnits="userSpaceOnUse" gradientTransform="translate(44.218 -0.652939) scale(38.0752 38.0752)">
<stop offset="0.01" stop-color="#5C6CBA"/>
<stop offset="1" stop-color="#81B3D4"/>
</radialGradient>
<radialGradient id="paint13_radial_2553_296" cx="0" cy="0" r="1" gradientUnits="userSpaceOnUse" gradientTransform="translate(51.1465 12.0084) scale(52.6739 52.6739)">
<stop offset="0.01" stop-color="#5C6CBA"/>
<stop offset="1" stop-color="#81B3D4"/>
</radialGradient>
<linearGradient id="paint14_linear_2553_296" x1="53.418" y1="8.26094" x2="29.5437" y2="37.7116" gradientUnits="userSpaceOnUse">
<stop stop-color="#9CD3DE"/>
<stop offset="0.19" stop-color="#98CDDA"/>
<stop offset="0.41" stop-color="#8CBED0"/>
<stop offset="0.66" stop-color="#79A6C0"/>
<stop offset="0.93" stop-color="#5F84AA"/>
<stop offset="1" stop-color="#5779A3"/>
</linearGradient>
<linearGradient id="paint15_linear_2553_296" x1="15.3994" y1="55.9619" x2="36.2719" y2="29.7989" gradientUnits="userSpaceOnUse">
<stop stop-color="#42495E"/>
<stop offset="1" stop-color="#4A5780"/>
</linearGradient>
<linearGradient id="paint16_linear_2553_296" x1="31.3933" y1="-0.738624" x2="31.3933" y2="-0.738624" gradientUnits="userSpaceOnUse">
<stop stop-color="#B4E6F7"/>
<stop offset="0.23" stop-color="#CCEEF9"/>
<stop offset="0.51" stop-color="#E3F7FC"/>
<stop offset="0.77" stop-color="#F2FCFE"/>
<stop offset="1" stop-color="#F7FEFF"/>
</linearGradient>
<linearGradient id="paint17_linear_2553_296" x1="38.9998" y1="34.5933" x2="38.9998" y2="25.917" gradientUnits="userSpaceOnUse">
<stop stop-color="#7CA7D2"/>
<stop offset="0.67" stop-color="#9EC1E4"/>
<stop offset="1" stop-color="#99BDE1"/>
</linearGradient>
<linearGradient id="paint18_linear_2553_296" x1="37.1022" y1="29.9434" x2="37.1022" y2="31.8136" gradientUnits="userSpaceOnUse">
<stop stop-color="#5889BA"/>
<stop offset="1" stop-color="white"/>
</linearGradient>
<linearGradient id="paint19_linear_2553_296" x1="40.9393" y1="29.9434" x2="40.9393" y2="31.8136" gradientUnits="userSpaceOnUse">
<stop stop-color="#5889BA"/>
<stop offset="1" stop-color="white"/>
</linearGradient>
<linearGradient id="paint20_linear_2553_296" x1="37.834" y1="30.9648" x2="37.834" y2="34.4557" gradientUnits="userSpaceOnUse">
<stop stop-color="#5889BA"/>
<stop offset="1" stop-color="white"/>
</linearGradient>
<linearGradient id="paint21_linear_2553_296" x1="40.1729" y1="30.9648" x2="40.1729" y2="34.4557" gradientUnits="userSpaceOnUse">
<stop stop-color="#5889BA"/>
<stop offset="1" stop-color="white"/>
</linearGradient>
<linearGradient id="paint22_linear_2553_296" x1="39.3376" y1="27.7288" x2="39.8681" y2="32.5956" gradientUnits="userSpaceOnUse">
<stop stop-color="white"/>
<stop offset="1" stop-color="#0C2844"/>
</linearGradient>
<linearGradient id="paint23_linear_2553_296" x1="39.0552" y1="30.262" x2="42.825" y2="30.262" gradientUnits="userSpaceOnUse">
<stop stop-color="white"/>
<stop offset="1" stop-color="#0C2844"/>
</linearGradient>
<linearGradient id="paint24_linear_2553_296" x1="40.6275" y1="27.5875" x2="41.158" y2="32.456" gradientUnits="userSpaceOnUse">
<stop stop-color="white"/>
<stop offset="1" stop-color="#0C2844"/>
</linearGradient>
<linearGradient id="paint25_linear_2553_296" x1="36.8335" y1="28.0008" x2="37.3657" y2="32.8693" gradientUnits="userSpaceOnUse">
<stop stop-color="white"/>
<stop offset="1" stop-color="#0C2844"/>
</linearGradient>
<linearGradient id="paint26_linear_2553_296" x1="23.9498" y1="34.5933" x2="23.9498" y2="25.917" gradientUnits="userSpaceOnUse">
<stop stop-color="#7CA7D2"/>
<stop offset="0.67" stop-color="#9EC1E4"/>
<stop offset="1" stop-color="#99BDE1"/>
</linearGradient>
<linearGradient id="paint27_linear_2553_296" x1="22.052" y1="29.9434" x2="22.052" y2="31.8136" gradientUnits="userSpaceOnUse">
<stop stop-color="#5889BA"/>
<stop offset="1" stop-color="white"/>
</linearGradient>
<linearGradient id="paint28_linear_2553_296" x1="25.8906" y1="29.9434" x2="25.8906" y2="31.8136" gradientUnits="userSpaceOnUse">
<stop stop-color="#5889BA"/>
<stop offset="1" stop-color="white"/>
</linearGradient>
<linearGradient id="paint29_linear_2553_296" x1="22.7859" y1="30.9648" x2="22.7859" y2="34.4557" gradientUnits="userSpaceOnUse">
<stop stop-color="#5889BA"/>
<stop offset="1" stop-color="white"/>
</linearGradient>
<linearGradient id="paint30_linear_2553_296" x1="25.1225" y1="30.9648" x2="25.1225" y2="34.4557" gradientUnits="userSpaceOnUse">
<stop stop-color="#5889BA"/>
<stop offset="1" stop-color="white"/>
</linearGradient>
<linearGradient id="paint31_linear_2553_296" x1="24.2873" y1="27.7288" x2="24.8194" y2="32.5956" gradientUnits="userSpaceOnUse">
<stop stop-color="white"/>
<stop offset="1" stop-color="#0C2844"/>
</linearGradient>
<linearGradient id="paint32_linear_2553_296" x1="24.0049" y1="30.262" x2="27.7747" y2="30.262" gradientUnits="userSpaceOnUse">
<stop stop-color="white"/>
<stop offset="1" stop-color="#0C2844"/>
</linearGradient>
<linearGradient id="paint33_linear_2553_296" x1="25.5772" y1="27.5875" x2="26.1076" y2="32.456" gradientUnits="userSpaceOnUse">
<stop stop-color="white"/>
<stop offset="1" stop-color="#0C2844"/>
</linearGradient>
<linearGradient id="paint34_linear_2553_296" x1="21.7851" y1="28.0008" x2="22.3155" y2="32.8693" gradientUnits="userSpaceOnUse">
<stop stop-color="white"/>
<stop offset="1" stop-color="#0C2844"/>
</linearGradient>
<linearGradient id="paint35_linear_2553_296" x1="31.1421" y1="46.0598" x2="31.1421" y2="30.3141" gradientUnits="userSpaceOnUse">
<stop stop-color="#7CA7D2"/>
<stop offset="0.67" stop-color="#9EC1E4"/>
<stop offset="1" stop-color="#99BDE1"/>
</linearGradient>
<linearGradient id="paint36_linear_2553_296" x1="27.6973" y1="37.623" x2="27.6973" y2="41.0174" gradientUnits="userSpaceOnUse">
<stop stop-color="#5889BA"/>
<stop offset="1" stop-color="white"/>
</linearGradient>
<linearGradient id="paint37_linear_2553_296" x1="34.6636" y1="37.623" x2="34.6636" y2="41.0174" gradientUnits="userSpaceOnUse">
<stop stop-color="#5889BA"/>
<stop offset="1" stop-color="white"/>
</linearGradient>
<linearGradient id="paint38_linear_2553_296" x1="29.0272" y1="39.4756" x2="29.0272" y2="45.8114" gradientUnits="userSpaceOnUse">
<stop stop-color="#5889BA"/>
<stop offset="1" stop-color="white"/>
</linearGradient>
<linearGradient id="paint39_linear_2553_296" x1="33.2704" y1="39.4756" x2="33.2704" y2="45.8114" gradientUnits="userSpaceOnUse">
<stop stop-color="#5889BA"/>
<stop offset="1" stop-color="white"/>
</linearGradient>
<linearGradient id="paint40_linear_2553_296" x1="31.7549" y1="33.6017" x2="32.7193" y2="42.4364" gradientUnits="userSpaceOnUse">
<stop stop-color="white"/>
<stop offset="1" stop-color="#0C2844"/>
</linearGradient>
<linearGradient id="paint41_linear_2553_296" x1="31.2417" y1="38.1999" x2="38.0838" y2="38.1999" gradientUnits="userSpaceOnUse">
<stop stop-color="white"/>
<stop offset="1" stop-color="#0C2844"/>
</linearGradient>
<linearGradient id="paint42_linear_2553_296" x1="34.0953" y1="33.3469" x2="35.0597" y2="42.1816" gradientUnits="userSpaceOnUse">
<stop stop-color="white"/>
<stop offset="1" stop-color="#0C2844"/>
</linearGradient>
<linearGradient id="paint43_linear_2553_296" x1="27.2117" y1="34.0978" x2="28.1761" y2="42.9324" gradientUnits="userSpaceOnUse">
<stop stop-color="white"/>
<stop offset="1" stop-color="#0C2844"/>
</linearGradient>
<clipPath id="clip0_2553_296">
<rect width="63" height="62" fill="white"/>
</clipPath>
</defs>
</svg>
