<svg width="64" height="61" viewBox="0 0 64 61" fill="none" xmlns="http://www.w3.org/2000/svg">
<path d="M20.9602 28.5447L1.28061 22.3174L2.12127 26.2615L18.8457 31.9517L20.9602 28.5447Z" fill="url(#paint0_linear_2520_1421)"/>
<path d="M2.97226 22.8633L5.25209 23.5846L6.18483 27.6429L3.85895 26.8517L2.97226 22.8633Z" fill="url(#paint1_linear_2520_1421)"/>
<g style="mix-blend-mode:multiply" opacity="0.5">
<path d="M19.3028 30.9421L1.87579 25.1035L2.12134 26.2613L18.8458 31.9515L19.3028 30.9421Z" fill="#A2C0E0"/>
</g>
<g style="mix-blend-mode:soft-light" opacity="0.4">
<path d="M9.61394 25.1393C9.9635 25.7651 8.60789 27.107 8.34358 26.9655C8.07928 26.8257 2.3686 25.0762 2.16739 24.817C1.96618 24.5595 1.4478 22.7827 1.7104 22.6702C1.97129 22.5576 9.41273 24.7761 9.61564 25.1376L9.61394 25.1393Z" fill="#DFEAF7"/>
</g>
<g style="mix-blend-mode:multiply" opacity="0.5">
<path d="M12.8862 25.9902C12.8862 25.9902 11.5357 27.8148 11.3754 28.253C11.2168 28.6912 11.3515 29.3546 11.3515 29.3546L18.8441 31.9516L20.9602 28.5446L12.8862 25.9902Z" fill="#A2C0E0"/>
</g>
<path d="M22.8171 23.5266L0 16.3086L0.975372 20.8819L20.3633 27.4776L22.8171 23.5266Z" fill="url(#paint2_linear_2520_1421)"/>
<path d="M1.96097 16.9414L4.60401 17.7769L5.6851 22.4833L2.98749 21.5659L1.96097 16.9414Z" fill="url(#paint3_linear_2520_1421)"/>
<g style="mix-blend-mode:multiply" opacity="0.5">
<path d="M20.8954 26.3077L0.688904 19.5381L0.975374 20.8818L20.3634 27.4774L20.8954 26.3077Z" fill="#A2C0E0"/>
</g>
<g style="mix-blend-mode:soft-light" opacity="0.4">
<path d="M9.66159 19.581C10.0674 20.3057 8.49524 21.8625 8.18831 21.6988C7.88137 21.5351 1.26013 19.5077 1.02652 19.2093C0.792909 18.9092 0.192686 16.851 0.496209 16.7197C0.799733 16.5884 9.42798 19.1615 9.66159 19.581Z" fill="#DFEAF7"/>
</g>
<g style="mix-blend-mode:multiply" opacity="0.5">
<path d="M13.4539 20.5662C13.4539 20.5662 11.8886 22.6823 11.7027 23.1904C11.5185 23.6986 11.6754 24.4676 11.6754 24.4676L20.3634 27.4773L22.8154 23.5264L13.4539 20.5645V20.5662Z" fill="#A2C0E0"/>
</g>
<path d="M42.7899 28.5447L62.4695 22.3174L61.6289 26.2615L44.9061 31.9517L42.7899 28.5447Z" fill="url(#paint4_linear_2520_1421)"/>
<path d="M60.7779 22.8633L58.498 23.5846L57.5653 27.6429L59.8929 26.8517L60.7779 22.8633Z" fill="url(#paint5_linear_2520_1421)"/>
<g style="mix-blend-mode:multiply" opacity="0.5">
<path d="M44.4473 30.9421L61.8743 25.1035L61.6288 26.2613L44.906 31.9515L44.4473 30.9421Z" fill="#A2C0E0"/>
</g>
<g style="mix-blend-mode:soft-light" opacity="0.4">
<path d="M54.1362 25.1393C53.7866 25.7651 55.1422 27.107 55.4065 26.9655C55.6708 26.8257 61.3815 25.0762 61.5827 24.817C61.7839 24.5595 62.3023 22.7827 62.0397 22.6702C61.7788 22.5576 54.3374 24.7761 54.1345 25.1376L54.1362 25.1393Z" fill="#DFEAF7"/>
</g>
<g style="mix-blend-mode:multiply" opacity="0.5">
<path d="M50.8639 25.9902C50.8639 25.9902 52.2144 27.8148 52.3747 28.253C52.5333 28.6912 52.3986 29.3546 52.3986 29.3546L44.906 31.9516L42.7899 28.5446L50.8639 25.9902Z" fill="#A2C0E0"/>
</g>
<path d="M40.9347 23.5266L63.7501 16.3086L62.7748 20.8819L43.3868 27.4776L40.9347 23.5266Z" fill="url(#paint6_linear_2520_1421)"/>
<path d="M61.7891 16.9414L59.146 17.7769L58.0649 22.4833L60.7626 21.5659L61.7891 16.9414Z" fill="url(#paint7_linear_2520_1421)"/>
<g style="mix-blend-mode:multiply" opacity="0.5">
<path d="M42.8547 26.3077L63.0611 19.5381L62.7747 20.8818L43.3867 27.4774L42.8547 26.3077Z" fill="#A2C0E0"/>
</g>
<g style="mix-blend-mode:soft-light" opacity="0.4">
<path d="M54.0884 19.581C53.6826 20.3057 55.2548 21.8625 55.5617 21.6988C55.8686 21.5351 62.4899 19.5077 62.7235 19.2093C62.9571 18.9109 63.5573 16.851 63.2538 16.7197C62.9503 16.5884 54.322 19.1615 54.0884 19.581Z" fill="#DFEAF7"/>
</g>
<g style="mix-blend-mode:multiply" opacity="0.5">
<path d="M50.2961 20.5662C50.2961 20.5662 51.8615 22.6823 52.0473 23.1904C52.2315 23.6986 52.0746 24.4676 52.0746 24.4676L43.3867 27.4773L40.9346 23.5264L50.2961 20.5645V20.5662Z" fill="#A2C0E0"/>
</g>
<path d="M17.3332 28.7733L16.1924 23.9783L17.323 22.0719L24.9861 15.8889V3.92534L25.958 2.98578L29.0308 0V20.4111L17.3332 28.7733Z" fill="url(#paint8_linear_2520_1421)"/>
<path d="M16.1925 23.9779L25.9581 16.4938V2.98535L24.9862 3.92491V15.8885L17.323 22.0715L16.1925 23.9779Z" fill="url(#paint9_linear_2520_1421)"/>
<g style="mix-blend-mode:soft-light" opacity="0.4">
<path d="M26.1798 2.9859C26.1287 3.75153 26.2258 13.2597 26.5584 13.4813C26.8909 13.7047 28.6148 12.3985 28.758 11.8767C28.9013 11.3533 28.816 1.18011 28.5807 1.21591C28.3454 1.25343 26.2156 2.44876 26.1815 2.9859H26.1798Z" fill="#DAECFF"/>
</g>
<path style="mix-blend-mode:multiply" opacity="0.37" d="M26.2395 16.6701C25.3681 17.6284 16.687 23.9785 16.5677 24.3912C16.4159 24.9215 17.5686 27.3957 18.116 27.1877C18.665 26.9797 28.9985 19.1443 29.0172 18.7743C29.0377 18.4026 29.065 16.3683 28.816 16.2353C28.5671 16.1023 26.5703 16.3052 26.2378 16.6718L26.2395 16.6701Z" fill="url(#paint10_linear_2520_1421)"/>
<path d="M16.1925 24.3888L26.1627 16.6456L26.2173 2.75684L25.9581 2.98533V16.4938L16.1925 23.9779V24.3888Z" fill="#809CB4"/>
<g style="mix-blend-mode:soft-light" opacity="0.4">
<path d="M25.0885 16.0271C24.5206 16.0765 17.4305 22.164 17.4305 22.338C17.4305 22.5119 16.1806 23.5435 16.4841 23.518C16.7876 23.4924 25.7484 16.7177 25.7603 16.496C25.7723 16.2743 25.3937 16.0015 25.0885 16.0271Z" fill="#DAECFF"/>
</g>
<g style="mix-blend-mode:soft-light" opacity="0.4">
<path d="M16.1925 24.3891C16.1925 24.3891 20.9108 21.2038 23.3236 19.1712C25.7364 17.1386 26.2378 16.668 26.2378 16.668L16.1925 24.3891Z" fill="#DAECFF"/>
</g>
<g style="mix-blend-mode:multiply" opacity="0.5">
<path d="M24.9862 14.3542L25.9581 13.2356H26.1679L29.0309 11.1416V20.411L25.762 22.6141L24.1609 16.5539L24.9862 15.8888V14.3542Z" fill="#A9C2DC"/>
</g>
<path d="M46.6471 28.7733L47.7879 23.9783L46.6574 22.0719L38.996 15.8889V3.92534L38.0223 2.98578L34.8882 0V20.3668L46.6471 28.7733Z" fill="url(#paint11_linear_2520_1421)"/>
<path d="M47.7878 23.9779L38.0222 16.4938V2.98535L38.9959 3.92491V15.8885L46.6573 22.0715L47.7878 23.9779Z" fill="url(#paint12_linear_2520_1421)"/>
<g style="mix-blend-mode:soft-light" opacity="0.4">
<path d="M37.6403 2.9859C37.6914 3.75153 37.8347 13.2597 37.5004 13.4813C37.1679 13.7047 35.3195 12.2689 35.1763 11.7472C35.033 11.2237 35.1643 1.18011 35.4013 1.21592C35.6367 1.25343 37.6044 2.44877 37.6403 2.9859Z" fill="#DAECFF"/>
</g>
<path style="mix-blend-mode:multiply" opacity="0.37" d="M37.7426 16.6701C38.6139 17.6284 47.295 23.9785 47.4144 24.3912C47.5662 24.9215 46.4134 27.3957 45.8661 27.1877C45.317 26.9797 34.9836 19.1443 34.9648 18.7743C34.9444 18.4026 34.9171 16.3683 35.1677 16.2353C35.4167 16.1023 37.4135 16.3052 37.746 16.6718L37.7426 16.6701Z" fill="url(#paint13_linear_2520_1421)"/>
<path d="M47.7878 24.3888L37.8193 16.6456L37.7647 2.75684L38.0222 2.98533V16.4938L47.7878 23.9779V24.3888Z" fill="#809CB4"/>
<g style="mix-blend-mode:soft-light" opacity="0.4">
<path d="M38.8919 16.0271C39.4597 16.0765 46.5498 22.164 46.5498 22.338C46.5498 22.5119 47.7997 23.5435 47.4962 23.518C47.1927 23.4924 38.2319 16.7177 38.22 16.496C38.2081 16.2743 38.5866 16.0015 38.8919 16.0271Z" fill="#DAECFF"/>
</g>
<g style="mix-blend-mode:soft-light" opacity="0.4">
<path d="M47.7878 24.3891C47.7878 24.3891 43.0696 21.2038 40.6567 19.1712C38.2439 17.1386 37.7426 16.668 37.7426 16.668L47.7878 24.3891Z" fill="#DAECFF"/>
</g>
<g style="mix-blend-mode:multiply" opacity="0.5">
<path d="M38.9959 14.3541L37.9728 13.2355H37.7647L34.8915 11.1279L34.9017 20.411L38.1706 22.6141L39.77 16.5538L38.9959 15.8888V14.3541Z" fill="#A9C2DC"/>
</g>
<path d="M10.6267 42.5807C10.521 42.7358 4.11292 37.8777 4.11292 37.8777C2.50492 31.9181 2.42648 27.6006 2.42648 27.6006L14.7635 31.6095L10.625 42.5807H10.6267Z" fill="url(#paint14_linear_2520_1421)"/>
<path d="M4.78131 28.3643C4.78131 28.3643 5.72939 35.2515 6.04826 36.0666L12.2313 38.2612L12.3694 37.8349C12.3694 37.8349 6.64337 36.0291 6.39783 35.6812C6.15228 35.3334 5.14622 28.4836 5.14622 28.4836L4.78131 28.3643Z" fill="#7A9FC2"/>
<path d="M4.78131 28.3643L6.04826 36.0666C6.04826 36.0666 5.37471 33.8908 5.11041 32.1174C4.84611 30.3423 4.78131 28.366 4.78131 28.366V28.3643Z" fill="white"/>
<g style="mix-blend-mode:soft-light" opacity="0.4">
<path d="M5.5333 29.0552C5.54865 30.6325 6.39612 34.4794 6.79173 34.6073C7.18733 34.7352 11.7896 36.142 12.4257 35.6185C13.0617 35.095 14.46 32.0257 14.1155 31.8432C13.7728 31.6591 5.52648 28.351 5.5333 29.0552Z" fill="#D4EFFF"/>
</g>
<g style="mix-blend-mode:soft-light" opacity="0.4">
<path d="M2.75212 27.979C2.88683 29.5666 3.3677 33.642 3.65928 33.7818C3.95087 33.9216 4.92795 34.3837 5.08141 33.9625C5.32526 33.2924 4.70116 28.714 4.30385 28.4838C3.90654 28.2536 2.71802 27.5902 2.75212 27.979Z" fill="#D4EFFF"/>
</g>
<path style="mix-blend-mode:multiply" opacity="0.37" d="M3.80938 34.3462C3.61158 34.7674 4.51533 37.5707 4.73019 37.8418C4.94504 38.1129 9.90372 41.7007 10.3522 41.5659C10.8006 41.4295 12.511 36.8119 12.2518 36.5783C11.9909 36.343 4.02935 33.8807 3.80938 34.3479V34.3462Z" fill="url(#paint15_linear_2520_1421)"/>
<g style="mix-blend-mode:multiply" opacity="0.5">
<path d="M10.6182 30.2607C10.6182 30.2607 9.8781 35.9168 8.05185 40.8176L10.6267 42.579L14.7652 31.6078L10.6199 30.2607H10.6182Z" fill="#A1C5EA"/>
</g>
<path d="M53.3553 42.5807C53.461 42.7358 59.8691 37.8777 59.8691 37.8777C61.4771 31.9181 61.5555 27.6006 61.5555 27.6006L49.2185 31.6095L53.357 42.5807H53.3553Z" fill="url(#paint16_linear_2520_1421)"/>
<path d="M59.2006 28.3643C59.2006 28.3643 58.2525 35.2515 57.9337 36.0666L51.7507 38.2612L51.6125 37.8349C51.6125 37.8349 57.3386 36.0291 57.5841 35.6812C57.8297 35.3334 58.8357 28.4836 58.8357 28.4836L59.2006 28.3643Z" fill="#7A9FC2"/>
<path d="M59.2007 28.3643L57.9337 36.0666C57.9337 36.0666 58.6073 33.8908 58.8716 32.1174C59.1359 30.3423 59.2007 28.366 59.2007 28.366V28.3643Z" fill="white"/>
<g style="mix-blend-mode:soft-light" opacity="0.4">
<path d="M58.4486 29.0552C58.4333 30.6325 57.5858 34.4794 57.1902 34.6073C56.7946 34.7352 52.1923 36.142 51.5563 35.6185C50.9202 35.095 49.522 32.0257 49.8664 31.8432C50.2092 31.6591 58.4555 28.351 58.4486 29.0552Z" fill="#D4EFFF"/>
</g>
<g style="mix-blend-mode:soft-light" opacity="0.4">
<path d="M61.2281 27.979C61.0934 29.5666 60.6125 33.642 60.3209 33.7818C60.0293 33.9216 59.0523 34.3837 58.8988 33.9625C58.655 33.2924 59.2791 28.714 59.6764 28.4838C60.0737 28.2536 61.2622 27.5902 61.2281 27.979Z" fill="#D4EFFF"/>
</g>
<path style="mix-blend-mode:multiply" opacity="0.37" d="M60.1726 34.3462C60.3704 34.7674 59.4666 37.5707 59.2518 37.8418C59.0369 38.1129 54.0782 41.7007 53.6298 41.5659C53.1813 41.4295 51.471 36.8119 51.7302 36.5783C51.9911 36.343 59.9526 33.8807 60.1726 34.3479V34.3462Z" fill="url(#paint17_linear_2520_1421)"/>
<g style="mix-blend-mode:multiply" opacity="0.5">
<path d="M53.3621 30.2607C53.3621 30.2607 54.1021 35.9168 55.9284 40.8176L53.3535 42.579L49.2151 31.6078L53.3604 30.2607H53.3621Z" fill="#A1C5EA"/>
</g>
<path d="M31.7762 59.3494L54.242 43.0291L45.6598 16.6191H17.8925L9.31033 43.0291L31.7762 59.3494Z" fill="#31414C"/>
<path d="M46.4629 15.5137H17.0877L8.01096 43.4498L31.7761 60.7165L55.5413 43.4498L46.4646 15.5137H46.4629ZM12.7122 41.9236L19.9933 19.5123H43.559L50.8401 41.9236L31.7761 55.7748L12.7122 41.9236Z" fill="url(#paint18_radial_2520_1421)"/>
<g style="mix-blend-mode:multiply" opacity="0.2">
<path d="M19.9933 19.5107L31.7762 55.7733L43.559 19.5107H19.9933Z" fill="#0C363D"/>
</g>
<path d="M46.4629 15.5137H17.0877L14.9886 21.9763C16.2931 22.036 17.647 22.2014 19.0333 22.4657L19.9933 19.5123H43.559L50.8401 41.9236L48.076 43.9323C48.6984 45.1413 49.2492 46.3912 49.7216 47.6786L55.5396 43.4515L46.4629 15.5154V15.5137Z" fill="url(#paint19_radial_2520_1421)"/>
<path style="mix-blend-mode:screen" d="M46.4629 15.5137H17.0877L14.9886 21.9763C16.2931 22.036 17.647 22.2014 19.0333 22.4657L19.9933 19.5123H43.559L50.8401 41.9236L48.076 43.9323C48.6984 45.1413 49.2492 46.3912 49.7216 47.6786L55.5396 43.4515L46.4629 15.5154V15.5137Z" fill="url(#paint20_linear_2520_1421)"/>
<path style="mix-blend-mode:screen" d="M44.8532 51.215C44.7134 49.6581 44.4815 48.178 44.1694 46.7695L31.7778 55.7729L12.7139 41.9217L17.942 25.8281C16.4567 25.8639 14.9954 26.031 13.5784 26.3209L8.01266 43.4478L31.7778 60.7146L44.8549 51.2132L44.8532 51.215Z" fill="url(#paint21_linear_2520_1421)"/>
<path d="M12.7122 41.9237L14.5947 41.5008L21.158 21.3029H42.3944L48.9576 41.5008L50.8402 41.9237L43.559 19.5107H19.9933L12.7122 41.9237Z" fill="#455A82"/>
<g style="mix-blend-mode:multiply" opacity="0.2">
<path d="M14.5947 41.5007L18.266 32.0795C20.4401 26.5001 25.8149 24.0805 31.8018 24.0805C37.816 24.0805 43.2061 26.5325 45.3631 32.146L48.9559 41.5007L42.3927 21.3027H21.1563L14.593 41.5007H14.5947Z" fill="#2753A0"/>
</g>
<path d="M12.7122 41.9239L14.5947 41.501L31.7762 53.9829L48.9576 41.501L50.8402 41.9239L31.7762 55.7734L12.7122 41.9239Z" fill="url(#paint22_linear_2520_1421)"/>
<g style="mix-blend-mode:multiply" opacity="0.6">
<path d="M14.5947 41.5007L21.3336 24.2118C21.6593 23.3779 22.4625 22.8272 23.3577 22.8272H40.2919C41.1905 22.8272 41.9971 23.3814 42.3211 24.2203L48.9576 41.5007L42.3944 21.3027H21.158L14.5947 41.5007Z" fill="#2753A0"/>
</g>
<path d="M19.9933 19.5107L21.158 21.3029H42.3944L43.559 19.5107H19.9933Z" fill="#2E3E54"/>
<g style="mix-blend-mode:multiply" opacity="0.35">
<path d="M11.2661 33.4316L8.98973 41.9542C8.81239 42.6891 9.16195 43.6628 9.76729 44.1163L31.7744 60.7163L8.00925 43.4496L11.2645 33.4316H11.2661Z" fill="#455A82"/>
</g>
<g style="mix-blend-mode:multiply" opacity="0.6">
<path d="M14.5947 41.501L30.985 52.5404C31.4198 52.8337 32.1309 52.8337 32.564 52.5404L48.9543 41.501L31.7728 53.9829L14.5913 41.501H14.5947Z" fill="#2753A0"/>
</g>
<g style="mix-blend-mode:multiply" opacity="0.35">
<path d="M31.7762 60.7161L52.9375 44.3702C54.4177 43.2738 54.7365 43.035 54.0715 40.9326L49.6551 25.3369L55.5397 43.4494L31.7745 60.7161H31.7762Z" fill="#455A82"/>
</g>
<path d="M21.2739 48.1444L31.7762 55.7734L45.9582 45.4707L31.7762 56.4214L21.2739 48.1444Z" fill="#F3FEFF"/>
<path d="M30.9799 15.5137H46.4629L49.6551 25.3373L45.8713 16.0576L30.9799 15.5137Z" fill="#F3FEFF"/>
<g style="mix-blend-mode:screen">
<path d="M37.1424 15.5137C37.0145 16.7874 37.5687 18.2113 38.6413 19.5123H43.559L44.7748 23.2552C46.3163 23.6321 47.7896 23.6457 48.9969 23.3132L46.463 15.5137H37.1407H37.1424Z" fill="white"/>
</g>
<g style="mix-blend-mode:screen">
<path d="M19.9985 47.2168C19.6267 48.1734 20.3003 49.6006 21.6525 50.5828C23.0047 51.565 24.5701 51.7645 25.3647 51.1149L19.9985 47.2168Z" fill="white"/>
</g>
<g style="mix-blend-mode:screen">
<path d="M25.3988 53.725C25.172 54.0729 24.5445 54.0661 23.9988 53.7097C23.4515 53.3533 23.1923 52.7821 23.4191 52.4342C23.6459 52.0864 24.2734 52.0932 24.819 52.4496C25.3647 52.8059 25.6256 53.3772 25.3988 53.725Z" fill="white"/>
</g>
<g style="mix-blend-mode:multiply" opacity="0.35">
<path d="M11.8016 31.7843L16.7654 17.5528C17.2787 16.1068 17.6504 15.7283 19.1834 15.672L31.7762 15.5117H17.0894L11.8016 31.7843Z" fill="#455A82"/>
</g>
<g style="mix-blend-mode:screen">
<path d="M36.2148 17.7361C35.1882 16.9909 33.9503 16.9432 33.4507 17.6303C33.0926 18.1231 33.2136 18.8598 33.6877 19.5112H37.3692C37.3112 18.9092 36.8968 18.2306 36.2148 17.7361Z" fill="white"/>
</g>
<g style="mix-blend-mode:multiply" opacity="0.5">
<path d="M31.6977 42.4433L24.2188 46.3755L25.646 38.0457L19.596 32.1491L27.9583 30.9333L31.6977 23.3555L35.4372 30.9333L43.7994 32.1491L37.7477 38.0457L39.1767 46.3755L31.6977 42.4433Z" fill="#89B1D9"/>
</g>
<path d="M42.9247 32.432L38.8903 31.8454L37.787 31.6852L35.1679 31.3049L31.6978 24.2744L28.2277 31.3049L20.4691 32.432L26.0843 37.904L24.7577 45.6319L31.6978 41.9828L38.6362 45.6319L37.3113 37.904L42.9247 32.432Z" fill="url(#paint23_linear_2520_1421)"/>
<path style="mix-blend-mode:multiply" opacity="0.37" d="M20.4299 32.4316L31.858 35.4191L26.0433 37.9036L20.4299 32.4316Z" fill="url(#paint24_linear_2520_1421)"/>
<path style="mix-blend-mode:multiply" opacity="0.37" d="M42.8855 32.4316L31.858 35.4191L37.272 37.9036L42.8855 32.4316Z" fill="url(#paint25_linear_2520_1421)"/>
<path style="mix-blend-mode:multiply" opacity="0.37" d="M31.6585 41.9832L31.858 35.4199L24.7184 45.6323L31.6585 41.9832Z" fill="url(#paint26_linear_2520_1421)"/>
<path style="mix-blend-mode:multiply" opacity="0.37" d="M38.5969 45.6323L31.8581 35.4199L31.6585 41.9832L38.5969 45.6323Z" fill="url(#paint27_linear_2520_1421)"/>
<path style="mix-blend-mode:color-dodge" opacity="0.5" d="M31.6585 24.2744L31.8581 35.4195L35.1269 31.3049L31.6585 24.2744Z" fill="url(#paint28_linear_2520_1421)"/>
<path style="mix-blend-mode:color-dodge" opacity="0.5" d="M42.8855 32.4318L31.858 35.4193L35.1269 31.3047L42.8855 32.4318Z" fill="url(#paint29_linear_2520_1421)"/>
<path style="mix-blend-mode:color-dodge" opacity="0.5" d="M42.8855 32.4318L31.858 35.4193L35.1269 31.3047L42.8855 32.4318Z" fill="url(#paint30_linear_2520_1421)"/>
<path style="mix-blend-mode:color-dodge" opacity="0.5" d="M28.1885 31.3047L31.858 35.4193L20.4299 32.4318L28.1885 31.3047Z" fill="url(#paint31_linear_2520_1421)"/>
<path d="M35.1269 33.7505C34.5505 34.2382 35.0433 34.5571 35.0433 34.5571L38.0138 33.7522C38.0138 33.7522 36.4603 32.6234 35.1269 33.7505Z" fill="white"/>
<g style="mix-blend-mode:multiply" opacity="0.5">
<path d="M24.7577 45.6318C24.7577 45.6318 30.0216 43.1524 31.6961 42.4618L38.6345 45.6318L31.6961 41.9844L24.7577 45.6318Z" fill="#89B1D9"/>
</g>
<g style="mix-blend-mode:multiply" opacity="0.5">
<path d="M20.4299 32.4326L31.8581 35.4201L25.583 40.8187L20.4299 32.4326Z" fill="#89B1D9"/>
</g>
<g style="mix-blend-mode:multiply" opacity="0.5">
<path d="M42.8855 32.4326L31.8581 35.4201L37.9354 41.5383L42.8855 32.4326Z" fill="#89B1D9"/>
</g>
<g style="mix-blend-mode:multiply" opacity="0.5">
<path d="M24.7577 45.6323L31.8581 35.4199L38.6362 45.6323L31.6978 44.5359L24.7577 45.6323Z" fill="#89B1D9"/>
</g>
<g style="mix-blend-mode:soft-light" opacity="0.4">
<path d="M29.1144 30.0892C28.376 32.1355 31.1879 33.5644 31.5664 32.9352C31.945 32.306 31.7046 28.7899 31.2305 28.3158C30.7565 27.8418 29.4162 29.2503 29.1144 30.0892Z" fill="white"/>
</g>
<g style="mix-blend-mode:soft-light" opacity="0.4">
<path d="M26.8141 40.5741C28.3079 40.777 29.1451 39.0752 29.4606 37.9038C29.967 36.0178 24.0978 40.2058 26.8141 40.5741Z" fill="white"/>
</g>
<g style="mix-blend-mode:multiply" opacity="0.5">
<path d="M39.3642 28.8144L37.5516 29.7676L37.8978 27.7487L36.4313 26.318L38.4571 26.023L39.3642 24.1865L40.2714 26.023L42.2989 26.318L40.8324 27.7487L41.1785 29.7676L39.3642 28.8144Z" fill="#89B1D9"/>
</g>
<path d="M42.0873 26.3882L41.1086 26.2449L40.8408 26.2057L40.2065 26.1136L39.3641 24.4102L38.5235 26.1136L36.6427 26.3882L38.0034 27.7148L37.6828 29.5871L39.3641 28.7038L41.0472 29.5871L40.7249 27.7148L42.0873 26.3882Z" fill="url(#paint32_linear_2520_1421)"/>
<path style="mix-blend-mode:multiply" opacity="0.37" d="M36.6324 26.3887L39.4033 27.1117L37.9932 27.7153L36.6324 26.3887Z" fill="url(#paint33_linear_2520_1421)"/>
<path style="mix-blend-mode:multiply" opacity="0.37" d="M42.0771 26.3887L39.4034 27.1117L40.7163 27.7153L42.0771 26.3887Z" fill="url(#paint34_linear_2520_1421)"/>
<path style="mix-blend-mode:multiply" opacity="0.37" d="M39.3556 28.704L39.4034 27.1113L37.6726 29.5873L39.3556 28.704Z" fill="url(#paint35_linear_2520_1421)"/>
<path style="mix-blend-mode:multiply" opacity="0.37" d="M41.0369 29.5873L39.4033 27.1113L39.3556 28.704L41.0369 29.5873Z" fill="url(#paint36_linear_2520_1421)"/>
<path style="mix-blend-mode:color-dodge" opacity="0.5" d="M39.3556 24.4102L39.4033 27.1112L40.1962 26.1136L39.3556 24.4102Z" fill="url(#paint37_linear_2520_1421)"/>
<path style="mix-blend-mode:color-dodge" opacity="0.5" d="M42.0771 26.3878L39.4034 27.1108L40.1962 26.1133L42.0771 26.3878Z" fill="url(#paint38_linear_2520_1421)"/>
<path style="mix-blend-mode:color-dodge" opacity="0.5" d="M42.0771 26.3878L39.4034 27.1108L40.1962 26.1133L42.0771 26.3878Z" fill="url(#paint39_linear_2520_1421)"/>
<path style="mix-blend-mode:color-dodge" opacity="0.5" d="M38.5132 26.1133L39.4033 27.1108L36.6324 26.3878L38.5132 26.1133Z" fill="url(#paint40_linear_2520_1421)"/>
<path d="M40.1962 26.7072C40.0564 26.8249 40.1758 26.9033 40.1758 26.9033L40.8954 26.7089C40.8954 26.7089 40.5185 26.4344 40.1962 26.7089V26.7072Z" fill="white"/>
<g style="mix-blend-mode:multiply" opacity="0.5">
<path d="M37.6828 29.5871C37.6828 29.5871 38.9583 28.9852 39.3658 28.8181L41.0488 29.5871L39.3658 28.7021L37.6828 29.5871Z" fill="#89B1D9"/>
</g>
<g style="mix-blend-mode:multiply" opacity="0.5">
<path d="M36.6324 26.3877L39.4034 27.1107L37.8823 28.4203L36.6324 26.3877Z" fill="#89B1D9"/>
</g>
<g style="mix-blend-mode:multiply" opacity="0.5">
<path d="M42.0771 26.3877L39.4034 27.1107L40.8766 28.5942L42.0771 26.3877Z" fill="#89B1D9"/>
</g>
<g style="mix-blend-mode:multiply" opacity="0.5">
<path d="M37.6828 29.5873L39.4033 27.1113L41.0471 29.5873L39.3641 29.3213L37.6828 29.5873Z" fill="#89B1D9"/>
</g>
<g style="mix-blend-mode:soft-light" opacity="0.4">
<path d="M38.7383 25.8188C38.5593 26.315 39.2414 26.6611 39.3334 26.5094C39.4255 26.3576 39.3676 25.505 39.2516 25.3891C39.1356 25.2748 38.8117 25.6158 38.7383 25.8188Z" fill="white"/>
</g>
<g style="mix-blend-mode:soft-light" opacity="0.4">
<path d="M38.1808 28.3604C38.5423 28.4099 38.7452 27.9972 38.8219 27.7125C38.9447 27.2555 37.5226 28.27 38.1808 28.3604Z" fill="white"/>
</g>
<g style="mix-blend-mode:multiply" opacity="0.5">
<path d="M24.1761 28.8144L22.3618 29.7676L22.708 27.7487L21.2415 26.318L23.269 26.023L24.1761 24.1865L25.0816 26.023L27.1091 26.318L25.6426 27.7487L25.9888 29.7676L24.1761 28.8144Z" fill="#89B1D9"/>
</g>
<path d="M26.8977 26.3882L25.9189 26.2449L25.6529 26.2057L25.0169 26.1136L24.1762 24.4102L23.3338 26.1136L21.453 26.3882L22.8155 27.7148L22.4932 29.5871L24.1762 28.7038L25.8575 29.5871L25.5369 27.7148L26.8977 26.3882Z" fill="url(#paint41_linear_2520_1421)"/>
<path style="mix-blend-mode:multiply" opacity="0.37" d="M21.4446 26.3887L24.2155 27.1117L22.8053 27.7153L21.4446 26.3887Z" fill="url(#paint42_linear_2520_1421)"/>
<path style="mix-blend-mode:multiply" opacity="0.37" d="M26.8876 26.3887L24.2155 27.1117L25.5268 27.7153L26.8876 26.3887Z" fill="url(#paint43_linear_2520_1421)"/>
<path style="mix-blend-mode:multiply" opacity="0.37" d="M24.1661 28.704L24.2155 27.1113L22.4831 29.5873L24.1661 28.704Z" fill="url(#paint44_linear_2520_1421)"/>
<path style="mix-blend-mode:multiply" opacity="0.37" d="M25.8491 29.5873L24.2155 27.1113L24.166 28.704L25.8491 29.5873Z" fill="url(#paint45_linear_2520_1421)"/>
<path style="mix-blend-mode:color-dodge" opacity="0.5" d="M24.166 24.4102L24.2155 27.1112L25.0067 26.1136L24.166 24.4102Z" fill="url(#paint46_linear_2520_1421)"/>
<path style="mix-blend-mode:color-dodge" opacity="0.5" d="M26.8876 26.3878L24.2155 27.1108L25.0067 26.1133L26.8876 26.3878Z" fill="url(#paint47_linear_2520_1421)"/>
<path style="mix-blend-mode:color-dodge" opacity="0.5" d="M26.8876 26.3878L24.2155 27.1108L25.0067 26.1133L26.8876 26.3878Z" fill="url(#paint48_linear_2520_1421)"/>
<path style="mix-blend-mode:color-dodge" opacity="0.5" d="M23.3254 26.1133L24.2155 27.1108L21.4446 26.3878L23.3254 26.1133Z" fill="url(#paint49_linear_2520_1421)"/>
<path d="M25.0067 26.7072C24.8669 26.8249 24.9862 26.9033 24.9862 26.9033L25.7058 26.7089C25.7058 26.7089 25.329 26.4344 25.0067 26.7089V26.7072Z" fill="white"/>
<g style="mix-blend-mode:multiply" opacity="0.5">
<path d="M22.4932 29.5871C22.4932 29.5871 23.7687 28.9852 24.1762 28.8181L25.8593 29.5871L24.1762 28.7021L22.4932 29.5871Z" fill="#89B1D9"/>
</g>
<g style="mix-blend-mode:multiply" opacity="0.5">
<path d="M21.4445 26.3877L24.2154 27.1107L22.6927 28.4203L21.4445 26.3877Z" fill="#89B1D9"/>
</g>
<g style="mix-blend-mode:multiply" opacity="0.5">
<path d="M26.8875 26.3877L24.2154 27.1107L25.6887 28.5942L26.8875 26.3877Z" fill="#89B1D9"/>
</g>
<g style="mix-blend-mode:multiply" opacity="0.5">
<path d="M22.4932 29.5873L24.2155 27.1113L25.8576 29.5873L24.1762 29.3213L22.4932 29.5873Z" fill="#89B1D9"/>
</g>
<g style="mix-blend-mode:soft-light" opacity="0.4">
<path d="M23.5487 25.8188C23.3697 26.315 24.0517 26.6611 24.1438 26.5094C24.2359 26.3576 24.1779 25.505 24.062 25.3891C23.9477 25.2748 23.622 25.6158 23.5487 25.8188Z" fill="white"/>
</g>
<g style="mix-blend-mode:soft-light" opacity="0.4">
<path d="M22.9911 28.3604C23.3526 28.4099 23.5555 27.9972 23.6322 27.7125C23.755 27.2555 22.3329 28.27 22.9911 28.3604Z" fill="white"/>
</g>
<g style="mix-blend-mode:multiply" opacity="0.5">
<path d="M31.6585 47.9941L29.8442 48.9473L30.1904 46.9283L28.7239 45.4977L30.7514 45.2027L31.6585 43.3662L32.564 45.2027L34.5914 45.4977L33.125 46.9283L33.4711 48.9473L31.6585 47.9941Z" fill="#89B1D9"/>
</g>
<path d="M34.38 45.5679L33.4013 45.4246L33.1336 45.3854L32.4992 45.2933L31.6586 43.5898L30.8162 45.2933L28.9354 45.5679L30.2961 46.8945L29.9756 48.7668L31.6586 47.8835L33.3399 48.7668L33.0193 46.8945L34.38 45.5679Z" fill="url(#paint50_linear_2520_1421)"/>
<path style="mix-blend-mode:multiply" opacity="0.37" d="M28.9269 45.5674L31.6961 46.2904L30.2876 46.894L28.9269 45.5674Z" fill="url(#paint51_linear_2520_1421)"/>
<path style="mix-blend-mode:multiply" opacity="0.37" d="M34.3699 45.5674L31.6961 46.2904L33.0091 46.894L34.3699 45.5674Z" fill="url(#paint52_linear_2520_1421)"/>
<path style="mix-blend-mode:multiply" opacity="0.37" d="M31.6484 47.8837L31.6961 46.291L29.9653 48.7669L31.6484 47.8837Z" fill="url(#paint53_linear_2520_1421)"/>
<path style="mix-blend-mode:multiply" opacity="0.37" d="M33.3314 48.7669L31.6961 46.291L31.6484 47.8837L33.3314 48.7669Z" fill="url(#paint54_linear_2520_1421)"/>
<path style="mix-blend-mode:color-dodge" opacity="0.5" d="M31.6484 43.5898L31.6961 46.2909L32.489 45.2933L31.6484 43.5898Z" fill="url(#paint55_linear_2520_1421)"/>
<path style="mix-blend-mode:color-dodge" opacity="0.5" d="M34.3699 45.5675L31.6961 46.2905L32.4891 45.293L34.3699 45.5675Z" fill="url(#paint56_linear_2520_1421)"/>
<path style="mix-blend-mode:color-dodge" opacity="0.5" d="M34.3699 45.5675L31.6961 46.2905L32.4891 45.293L34.3699 45.5675Z" fill="url(#paint57_linear_2520_1421)"/>
<path style="mix-blend-mode:color-dodge" opacity="0.5" d="M30.8077 45.293L31.6961 46.2905L28.9269 45.5675L30.8077 45.293Z" fill="url(#paint58_linear_2520_1421)"/>
<path d="M32.489 45.8869C32.3492 46.0046 32.4686 46.083 32.4686 46.083L33.1882 45.8886C33.1882 45.8886 32.8113 45.6141 32.489 45.8886V45.8869Z" fill="white"/>
<g style="mix-blend-mode:multiply" opacity="0.5">
<path d="M29.9755 48.7668C29.9755 48.7668 31.251 48.1649 31.6585 47.9978L33.3416 48.7668L31.6585 47.8818L29.9755 48.7668Z" fill="#89B1D9"/>
</g>
<g style="mix-blend-mode:multiply" opacity="0.5">
<path d="M28.9268 45.5674L31.6961 46.2904L30.1751 47.6L28.9268 45.5674Z" fill="#89B1D9"/>
</g>
<g style="mix-blend-mode:multiply" opacity="0.5">
<path d="M34.3698 45.5674L31.6961 46.2904L33.1694 47.7739L34.3698 45.5674Z" fill="#89B1D9"/>
</g>
<g style="mix-blend-mode:multiply" opacity="0.5">
<path d="M29.9755 48.7669L31.6961 46.291L33.3399 48.7669L31.6585 48.5009L29.9755 48.7669Z" fill="#89B1D9"/>
</g>
<g style="mix-blend-mode:soft-light" opacity="0.4">
<path d="M31.031 44.9985C30.852 45.4947 31.5341 45.8408 31.6261 45.6891C31.7182 45.5373 31.6602 44.6847 31.5443 44.5687C31.43 44.4545 31.1044 44.7955 31.031 44.9985Z" fill="white"/>
</g>
<g style="mix-blend-mode:soft-light" opacity="0.4">
<path d="M30.4735 47.5401C30.835 47.5896 31.0379 47.1769 31.1146 46.8921C31.2374 46.4352 29.8153 47.4497 30.4735 47.5401Z" fill="white"/>
</g>
<defs>
<linearGradient id="paint0_linear_2520_1421" x1="8.93543" y1="32.5566" x2="11.0785" y2="25.4781" gradientUnits="userSpaceOnUse">
<stop stop-color="#95B6D9"/>
<stop offset="0.67" stop-color="#B9D0EA"/>
<stop offset="1" stop-color="#B3CCE7"/>
</linearGradient>
<linearGradient id="paint1_linear_2520_1421" x1="2.44781" y1="24.608" x2="6.71402" y2="25.8993" gradientUnits="userSpaceOnUse">
<stop stop-color="#8DB0D5"/>
<stop offset="0.11" stop-color="#769CC3"/>
<stop offset="0.25" stop-color="#628BB4"/>
<stop offset="0.39" stop-color="#5681AB"/>
<stop offset="0.52" stop-color="#527EA9"/>
<stop offset="0.64" stop-color="#5682AC"/>
<stop offset="0.79" stop-color="#658EB7"/>
<stop offset="0.94" stop-color="#7CA2C9"/>
<stop offset="1" stop-color="#88ACD2"/>
</linearGradient>
<linearGradient id="paint2_linear_2520_1421" x1="8.88243" y1="28.166" x2="11.3669" y2="19.9594" gradientUnits="userSpaceOnUse">
<stop stop-color="#95B6D9"/>
<stop offset="0.67" stop-color="#B9D0EA"/>
<stop offset="1" stop-color="#B3CCE7"/>
</linearGradient>
<linearGradient id="paint3_linear_2520_1421" x1="1.35191" y1="18.9639" x2="6.2987" y2="20.4612" gradientUnits="userSpaceOnUse">
<stop stop-color="#8DB0D5"/>
<stop offset="0.11" stop-color="#769CC3"/>
<stop offset="0.25" stop-color="#628BB4"/>
<stop offset="0.39" stop-color="#5681AB"/>
<stop offset="0.52" stop-color="#527EA9"/>
<stop offset="0.64" stop-color="#5682AC"/>
<stop offset="0.79" stop-color="#658EB7"/>
<stop offset="0.94" stop-color="#7CA2C9"/>
<stop offset="1" stop-color="#88ACD2"/>
</linearGradient>
<linearGradient id="paint4_linear_2520_1421" x1="54.8147" y1="32.5568" x2="52.6716" y2="25.4783" gradientUnits="userSpaceOnUse">
<stop stop-color="#95B6D9"/>
<stop offset="0.67" stop-color="#B9D0EA"/>
<stop offset="1" stop-color="#B3CCE7"/>
</linearGradient>
<linearGradient id="paint5_linear_2520_1421" x1="61.3032" y1="24.6072" x2="57.0354" y2="25.899" gradientUnits="userSpaceOnUse">
<stop stop-color="#8DB0D5"/>
<stop offset="0.11" stop-color="#769CC3"/>
<stop offset="0.25" stop-color="#628BB4"/>
<stop offset="0.39" stop-color="#5681AB"/>
<stop offset="0.52" stop-color="#527EA9"/>
<stop offset="0.64" stop-color="#5682AC"/>
<stop offset="0.79" stop-color="#658EB7"/>
<stop offset="0.94" stop-color="#7CA2C9"/>
<stop offset="1" stop-color="#88ACD2"/>
</linearGradient>
<linearGradient id="paint6_linear_2520_1421" x1="54.8673" y1="28.1679" x2="52.3832" y2="19.9596" gradientUnits="userSpaceOnUse">
<stop stop-color="#95B6D9"/>
<stop offset="0.67" stop-color="#B9D0EA"/>
<stop offset="1" stop-color="#B3CCE7"/>
</linearGradient>
<linearGradient id="paint7_linear_2520_1421" x1="62.399" y1="18.9631" x2="57.4506" y2="20.4608" gradientUnits="userSpaceOnUse">
<stop stop-color="#8DB0D5"/>
<stop offset="0.11" stop-color="#769CC3"/>
<stop offset="0.25" stop-color="#628BB4"/>
<stop offset="0.39" stop-color="#5681AB"/>
<stop offset="0.52" stop-color="#527EA9"/>
<stop offset="0.64" stop-color="#5682AC"/>
<stop offset="0.79" stop-color="#658EB7"/>
<stop offset="0.94" stop-color="#7CA2C9"/>
<stop offset="1" stop-color="#88ACD2"/>
</linearGradient>
<linearGradient id="paint8_linear_2520_1421" x1="22.6108" y1="28.1697" x2="22.6108" y2="9.60873" gradientUnits="userSpaceOnUse">
<stop stop-color="#9EB8D2"/>
<stop offset="0.67" stop-color="#BBD2EC"/>
<stop offset="1" stop-color="#B6CEE8"/>
</linearGradient>
<linearGradient id="paint9_linear_2520_1421" x1="21.0762" y1="22.3597" x2="21.0762" y2="4.87129" gradientUnits="userSpaceOnUse">
<stop stop-color="#9EB8D2"/>
<stop offset="0.67" stop-color="#BBD2EC"/>
<stop offset="1" stop-color="#B6CEE8"/>
</linearGradient>
<linearGradient id="paint10_linear_2520_1421" x1="22.7916" y1="16.1927" x2="22.7916" y2="27.1996" gradientUnits="userSpaceOnUse">
<stop stop-color="#7E9AB2"/>
<stop offset="1" stop-color="white"/>
</linearGradient>
<linearGradient id="paint11_linear_2520_1421" x1="41.3389" y1="28.1697" x2="41.3389" y2="9.60873" gradientUnits="userSpaceOnUse">
<stop stop-color="#9EB8D2"/>
<stop offset="0.67" stop-color="#BBD2EC"/>
<stop offset="1" stop-color="#B6CEE8"/>
</linearGradient>
<linearGradient id="paint12_linear_2520_1421" x1="42.9059" y1="22.3597" x2="42.9059" y2="4.87129" gradientUnits="userSpaceOnUse">
<stop stop-color="#9EB8D2"/>
<stop offset="0.67" stop-color="#BBD2EC"/>
<stop offset="1" stop-color="#B6CEE8"/>
</linearGradient>
<linearGradient id="paint13_linear_2520_1421" x1="41.1888" y1="16.1927" x2="41.1888" y2="27.1996" gradientUnits="userSpaceOnUse">
<stop stop-color="#7E9AB2"/>
<stop offset="1" stop-color="white"/>
</linearGradient>
<linearGradient id="paint14_linear_2520_1421" x1="4.97773" y1="40.7214" x2="8.56192" y2="29.6904" gradientUnits="userSpaceOnUse">
<stop stop-color="#96BBE0"/>
<stop offset="0.67" stop-color="#B4D5F8"/>
<stop offset="1" stop-color="#AFD1F5"/>
</linearGradient>
<linearGradient id="paint15_linear_2520_1421" x1="8.19018" y1="35.2047" x2="6.51717" y2="40.3537" gradientUnits="userSpaceOnUse">
<stop stop-color="#789DBF"/>
<stop offset="1" stop-color="white"/>
</linearGradient>
<linearGradient id="paint16_linear_2520_1421" x1="58.9913" y1="40.7127" x2="55.4071" y2="29.6817" gradientUnits="userSpaceOnUse">
<stop stop-color="#96BBE0"/>
<stop offset="0.67" stop-color="#B4D5F8"/>
<stop offset="1" stop-color="#AFD1F5"/>
</linearGradient>
<linearGradient id="paint17_linear_2520_1421" x1="55.7783" y1="35.1943" x2="57.4513" y2="40.3433" gradientUnits="userSpaceOnUse">
<stop stop-color="#789DBF"/>
<stop offset="1" stop-color="white"/>
</linearGradient>
<radialGradient id="paint18_radial_2520_1421" cx="0" cy="0" r="1" gradientUnits="userSpaceOnUse" gradientTransform="translate(44.4747 -0.646386) scale(37.7 37.7)">
<stop offset="0.01" stop-color="#5C6CBA"/>
<stop offset="1" stop-color="#81B3D4"/>
</radialGradient>
<radialGradient id="paint19_radial_2520_1421" cx="0" cy="0" r="1" gradientUnits="userSpaceOnUse" gradientTransform="translate(51.333 11.8901) scale(52.1549 52.1549)">
<stop offset="0.01" stop-color="#5C6CBA"/>
<stop offset="1" stop-color="#81B3D4"/>
</radialGradient>
<linearGradient id="paint20_linear_2520_1421" x1="53.5838" y1="8.17966" x2="29.9448" y2="37.3401" gradientUnits="userSpaceOnUse">
<stop stop-color="#9CD3DE"/>
<stop offset="0.19" stop-color="#98CDDA"/>
<stop offset="0.41" stop-color="#8CBED0"/>
<stop offset="0.66" stop-color="#79A6C0"/>
<stop offset="0.93" stop-color="#5F84AA"/>
<stop offset="1" stop-color="#5779A3"/>
</linearGradient>
<linearGradient id="paint21_linear_2520_1421" x1="15.9384" y1="55.4097" x2="36.6052" y2="29.5045" gradientUnits="userSpaceOnUse">
<stop stop-color="#42495E"/>
<stop offset="1" stop-color="#4A5780"/>
</linearGradient>
<linearGradient id="paint22_linear_2520_1421" x1="31.7762" y1="-0.731391" x2="31.7762" y2="-0.731391" gradientUnits="userSpaceOnUse">
<stop stop-color="#B4E6F7"/>
<stop offset="0.23" stop-color="#CCEEF9"/>
<stop offset="0.51" stop-color="#E3F7FC"/>
<stop offset="0.77" stop-color="#F2FCFE"/>
<stop offset="1" stop-color="#F7FEFF"/>
</linearGradient>
<linearGradient id="paint23_linear_2520_1421" x1="31.6978" y1="46.0326" x2="31.6978" y2="20.6526" gradientUnits="userSpaceOnUse">
<stop stop-color="#7CA7D2"/>
<stop offset="0.67" stop-color="#9EC1E4"/>
<stop offset="1" stop-color="#99BDE1"/>
</linearGradient>
<linearGradient id="paint24_linear_2520_1421" x1="26.144" y1="32.4316" x2="26.144" y2="37.9036" gradientUnits="userSpaceOnUse">
<stop stop-color="#5889BA"/>
<stop offset="1" stop-color="white"/>
</linearGradient>
<linearGradient id="paint25_linear_2520_1421" x1="37.3726" y1="32.4316" x2="37.3726" y2="37.9036" gradientUnits="userSpaceOnUse">
<stop stop-color="#5889BA"/>
<stop offset="1" stop-color="white"/>
</linearGradient>
<linearGradient id="paint26_linear_2520_1421" x1="28.289" y1="35.4199" x2="28.289" y2="45.6323" gradientUnits="userSpaceOnUse">
<stop stop-color="#5889BA"/>
<stop offset="1" stop-color="white"/>
</linearGradient>
<linearGradient id="paint27_linear_2520_1421" x1="35.1269" y1="35.4199" x2="35.1269" y2="45.6323" gradientUnits="userSpaceOnUse">
<stop stop-color="#5889BA"/>
<stop offset="1" stop-color="white"/>
</linearGradient>
<linearGradient id="paint28_linear_2520_1421" x1="32.6851" y1="25.9506" x2="34.2385" y2="40.1923" gradientUnits="userSpaceOnUse">
<stop stop-color="white"/>
<stop offset="1" stop-color="#0C2844"/>
</linearGradient>
<linearGradient id="paint29_linear_2520_1421" x1="31.858" y1="33.3628" x2="42.8855" y2="33.3628" gradientUnits="userSpaceOnUse">
<stop stop-color="white"/>
<stop offset="1" stop-color="#0C2844"/>
</linearGradient>
<linearGradient id="paint30_linear_2520_1421" x1="36.4569" y1="25.5377" x2="38.0103" y2="39.7812" gradientUnits="userSpaceOnUse">
<stop stop-color="white"/>
<stop offset="1" stop-color="#0C2844"/>
</linearGradient>
<linearGradient id="paint31_linear_2520_1421" x1="25.3613" y1="26.7484" x2="26.9147" y2="40.9919" gradientUnits="userSpaceOnUse">
<stop stop-color="white"/>
<stop offset="1" stop-color="#0C2844"/>
</linearGradient>
<linearGradient id="paint32_linear_2520_1421" x1="39.3642" y1="29.6843" x2="39.3642" y2="23.532" gradientUnits="userSpaceOnUse">
<stop stop-color="#7CA7D2"/>
<stop offset="0.67" stop-color="#9EC1E4"/>
<stop offset="1" stop-color="#99BDE1"/>
</linearGradient>
<linearGradient id="paint33_linear_2520_1421" x1="38.0187" y1="26.3887" x2="38.0187" y2="27.7153" gradientUnits="userSpaceOnUse">
<stop stop-color="#5889BA"/>
<stop offset="1" stop-color="white"/>
</linearGradient>
<linearGradient id="paint34_linear_2520_1421" x1="40.7402" y1="26.3887" x2="40.7402" y2="27.7153" gradientUnits="userSpaceOnUse">
<stop stop-color="#5889BA"/>
<stop offset="1" stop-color="white"/>
</linearGradient>
<linearGradient id="paint35_linear_2520_1421" x1="38.5371" y1="27.1113" x2="38.5371" y2="29.5873" gradientUnits="userSpaceOnUse">
<stop stop-color="#5889BA"/>
<stop offset="1" stop-color="white"/>
</linearGradient>
<linearGradient id="paint36_linear_2520_1421" x1="40.1962" y1="27.1113" x2="40.1962" y2="29.5873" gradientUnits="userSpaceOnUse">
<stop stop-color="#5889BA"/>
<stop offset="1" stop-color="white"/>
</linearGradient>
<linearGradient id="paint37_linear_2520_1421" x1="39.6045" y1="24.816" x2="39.9797" y2="28.269" gradientUnits="userSpaceOnUse">
<stop stop-color="white"/>
<stop offset="1" stop-color="#0C2844"/>
</linearGradient>
<linearGradient id="paint38_linear_2520_1421" x1="39.4034" y1="26.6129" x2="42.0771" y2="26.6129" gradientUnits="userSpaceOnUse">
<stop stop-color="white"/>
<stop offset="1" stop-color="#0C2844"/>
</linearGradient>
<linearGradient id="paint39_linear_2520_1421" x1="40.5185" y1="24.715" x2="40.8954" y2="28.168" gradientUnits="userSpaceOnUse">
<stop stop-color="white"/>
<stop offset="1" stop-color="#0C2844"/>
</linearGradient>
<linearGradient id="paint40_linear_2520_1421" x1="37.8278" y1="25.01" x2="38.2046" y2="28.463" gradientUnits="userSpaceOnUse">
<stop stop-color="white"/>
<stop offset="1" stop-color="#0C2844"/>
</linearGradient>
<linearGradient id="paint41_linear_2520_1421" x1="24.1762" y1="29.6843" x2="24.1762" y2="23.532" gradientUnits="userSpaceOnUse">
<stop stop-color="#7CA7D2"/>
<stop offset="0.67" stop-color="#9EC1E4"/>
<stop offset="1" stop-color="#99BDE1"/>
</linearGradient>
<linearGradient id="paint42_linear_2520_1421" x1="22.8292" y1="26.3887" x2="22.8292" y2="27.7153" gradientUnits="userSpaceOnUse">
<stop stop-color="#5889BA"/>
<stop offset="1" stop-color="white"/>
</linearGradient>
<linearGradient id="paint43_linear_2520_1421" x1="25.5524" y1="26.3887" x2="25.5524" y2="27.7153" gradientUnits="userSpaceOnUse">
<stop stop-color="#5889BA"/>
<stop offset="1" stop-color="white"/>
</linearGradient>
<linearGradient id="paint44_linear_2520_1421" x1="23.3493" y1="27.1113" x2="23.3493" y2="29.5873" gradientUnits="userSpaceOnUse">
<stop stop-color="#5889BA"/>
<stop offset="1" stop-color="white"/>
</linearGradient>
<linearGradient id="paint45_linear_2520_1421" x1="25.0067" y1="27.1113" x2="25.0067" y2="29.5873" gradientUnits="userSpaceOnUse">
<stop stop-color="#5889BA"/>
<stop offset="1" stop-color="white"/>
</linearGradient>
<linearGradient id="paint46_linear_2520_1421" x1="24.415" y1="24.816" x2="24.7918" y2="28.269" gradientUnits="userSpaceOnUse">
<stop stop-color="white"/>
<stop offset="1" stop-color="#0C2844"/>
</linearGradient>
<linearGradient id="paint47_linear_2520_1421" x1="24.2155" y1="26.6129" x2="26.8876" y2="26.6129" gradientUnits="userSpaceOnUse">
<stop stop-color="white"/>
<stop offset="1" stop-color="#0C2844"/>
</linearGradient>
<linearGradient id="paint48_linear_2520_1421" x1="25.329" y1="24.715" x2="25.7059" y2="28.168" gradientUnits="userSpaceOnUse">
<stop stop-color="white"/>
<stop offset="1" stop-color="#0C2844"/>
</linearGradient>
<linearGradient id="paint49_linear_2520_1421" x1="22.6399" y1="25.01" x2="23.0168" y2="28.463" gradientUnits="userSpaceOnUse">
<stop stop-color="white"/>
<stop offset="1" stop-color="#0C2844"/>
</linearGradient>
<linearGradient id="paint50_linear_2520_1421" x1="31.6586" y1="48.864" x2="31.6586" y2="42.7117" gradientUnits="userSpaceOnUse">
<stop stop-color="#7CA7D2"/>
<stop offset="0.67" stop-color="#9EC1E4"/>
<stop offset="1" stop-color="#99BDE1"/>
</linearGradient>
<linearGradient id="paint51_linear_2520_1421" x1="30.3115" y1="45.5674" x2="30.3115" y2="46.894" gradientUnits="userSpaceOnUse">
<stop stop-color="#5889BA"/>
<stop offset="1" stop-color="white"/>
</linearGradient>
<linearGradient id="paint52_linear_2520_1421" x1="33.033" y1="45.5674" x2="33.033" y2="46.894" gradientUnits="userSpaceOnUse">
<stop stop-color="#5889BA"/>
<stop offset="1" stop-color="white"/>
</linearGradient>
<linearGradient id="paint53_linear_2520_1421" x1="30.8316" y1="46.291" x2="30.8316" y2="48.7669" gradientUnits="userSpaceOnUse">
<stop stop-color="#5889BA"/>
<stop offset="1" stop-color="white"/>
</linearGradient>
<linearGradient id="paint54_linear_2520_1421" x1="32.489" y1="46.291" x2="32.489" y2="48.7669" gradientUnits="userSpaceOnUse">
<stop stop-color="#5889BA"/>
<stop offset="1" stop-color="white"/>
</linearGradient>
<linearGradient id="paint55_linear_2520_1421" x1="31.8973" y1="43.9957" x2="32.2742" y2="47.4487" gradientUnits="userSpaceOnUse">
<stop stop-color="white"/>
<stop offset="1" stop-color="#0C2844"/>
</linearGradient>
<linearGradient id="paint56_linear_2520_1421" x1="31.6961" y1="45.7926" x2="34.3699" y2="45.7926" gradientUnits="userSpaceOnUse">
<stop stop-color="white"/>
<stop offset="1" stop-color="#0C2844"/>
</linearGradient>
<linearGradient id="paint57_linear_2520_1421" x1="32.8113" y1="43.8947" x2="33.1882" y2="47.3477" gradientUnits="userSpaceOnUse">
<stop stop-color="white"/>
<stop offset="1" stop-color="#0C2844"/>
</linearGradient>
<linearGradient id="paint58_linear_2520_1421" x1="30.1222" y1="44.1897" x2="30.4991" y2="47.6427" gradientUnits="userSpaceOnUse">
<stop stop-color="white"/>
<stop offset="1" stop-color="#0C2844"/>
</linearGradient>
</defs>
</svg>
