<svg width="22" height="20" viewBox="0 0 22 20" fill="none" xmlns="http://www.w3.org/2000/svg">
<path d="M13.4207 7C14.2134 7 14.8831 7.52713 15.0982 8.25H14.4167C14.0072 8.25 13.6186 8.3395 13.2694 8.5H7.91858C7.78051 8.5 7.66858 8.61193 7.66858 8.75V13.499C7.66858 14.8046 8.50243 15.9156 9.66666 16.3283V17.8878C7.66358 17.432 6.16858 15.6401 6.16858 13.499V8.75C6.16858 7.7835 6.95209 7 7.91858 7H13.4207ZM17.9167 8.25C19.4315 8.25 20.6603 9.47485 20.6667 10.9882V8.75C20.6667 7.7835 19.8832 7 18.9167 7L15.5413 6.99906C15.8336 7.3526 16.0391 7.78043 16.1253 8.25H17.9167ZM2.41666 7L5.79794 6.99906C5.45457 7.41447 5.2309 7.93246 5.17978 8.50019L2.41666 8.5C2.27859 8.5 2.16666 8.61193 2.16666 8.75V11.9988C2.16666 13.3802 3.2865 14.5 4.6679 14.5C4.86789 14.5 5.0624 14.4765 5.24882 14.4322C5.33353 14.9361 5.48821 15.4167 5.70152 15.864C5.37243 15.953 5.02565 16 4.6679 16C2.45807 16 0.666656 14.2086 0.666656 11.9988V8.75C0.666656 7.7835 1.45016 7 2.41666 7ZM10.6667 0C12.3235 0 13.6667 1.34315 13.6667 3C13.6667 4.65685 12.3235 6 10.6667 6C9.0098 6 7.66666 4.65685 7.66666 3C7.66666 1.34315 9.0098 0 10.6667 0ZM10.6667 1.5C9.83823 1.5 9.16666 2.17157 9.16666 3C9.16666 3.82843 9.83823 4.5 10.6667 4.5C11.4951 4.5 12.1667 3.82843 12.1667 3C12.1667 2.17157 11.4951 1.5 10.6667 1.5ZM17.1667 1C18.5474 1 19.6667 2.11929 19.6667 3.5C19.6667 4.88071 18.5474 6 17.1667 6C15.7859 6 14.6667 4.88071 14.6667 3.5C14.6667 2.11929 15.7859 1 17.1667 1ZM17.1667 2.5C16.6144 2.5 16.1667 2.94772 16.1667 3.5C16.1667 4.05228 16.6144 4.5 17.1667 4.5C17.7189 4.5 18.1667 4.05228 18.1667 3.5C18.1667 2.94772 17.7189 2.5 17.1667 2.5ZM4.16666 1C5.54737 1 6.66666 2.11929 6.66666 3.5C6.66666 4.88071 5.54737 6 4.16666 6C2.78594 6 1.66666 4.88071 1.66666 3.5C1.66666 2.11929 2.78594 1 4.16666 1ZM4.16666 2.5C3.61437 2.5 3.16666 2.94772 3.16666 3.5C3.16666 4.05228 3.61437 4.5 4.16666 4.5C4.71894 4.5 5.16666 4.05228 5.16666 3.5C5.16666 2.94772 4.71894 2.5 4.16666 2.5ZM12.6667 12H12.1667C11.3382 12 10.6667 12.6716 10.6667 13.5V15H13.1667V14.75C13.1667 14.3358 13.5024 14 13.9167 14C14.3309 14 14.6667 14.3358 14.6667 14.75V15H17.6667V14.75C17.6667 14.3358 18.0024 14 18.4167 14C18.8309 14 19.1667 14.3358 19.1667 14.75V15H21.6667V13.5C21.6667 12.6716 20.9951 12 20.1667 12H19.6667V11C19.6667 10.0335 18.8832 9.25 17.9167 9.25H14.4167C13.4502 9.25 12.6667 10.0335 12.6667 11V12ZM14.1667 11C14.1667 10.8619 14.2786 10.75 14.4167 10.75H17.9167C18.0548 10.75 18.1667 10.8619 18.1667 11V12H14.1667V11ZM10.6667 18.5V16.5H13.1667V17.25C13.1667 17.6642 13.5024 18 13.9167 18C14.3309 18 14.6667 17.6642 14.6667 17.25V16.5H17.6667V17.25C17.6667 17.6642 18.0024 18 18.4167 18C18.8309 18 19.1667 17.6642 19.1667 17.25V16.5H21.6667V18.5C21.6667 19.3284 20.9951 20 20.1667 20H12.1667C11.3382 20 10.6667 19.3284 10.6667 18.5Z" fill="#68748A"/>
</svg>
