<svg width="20" height="20" viewBox="0 0 20 20" fill="none" xmlns="http://www.w3.org/2000/svg">
<path fill-rule="evenodd" clip-rule="evenodd" d="M16.9618 2.76501C18.8129 4.52443 19.899 6.91661 19.9931 9.44201C20.0421 10.7349 19.8293 12.0245 19.3671 13.2364C18.9048 14.4482 18.2022 15.5584 17.2998 16.5028C16.3974 17.4471 15.313 18.207 14.1094 18.7386C12.9057 19.2701 11.6065 19.5627 10.2867 19.5997H10.0007C8.50047 19.6001 7.01935 19.2699 5.66691 18.6336L0.432397 19.7746H0.417179C0.406231 19.7746 0.395419 19.7723 0.385459 19.7678C0.3755 19.7633 0.366628 19.7568 0.359429 19.7487C0.352229 19.7406 0.346881 19.7311 0.343717 19.7209C0.340562 19.7106 0.339672 19.6997 0.34111 19.6891L1.22553 14.503C0.392623 13.0097 -0.0292053 11.3297 0.0015712 9.62817C0.0323387 7.92665 0.514641 6.2623 1.40102 4.79889C2.2874 3.33548 3.54731 2.12343 5.05679 1.282C6.56625 0.440562 8.27324 -0.00126102 10.0099 2.7033e-06H10.0586C12.6374 0.0149788 15.1106 1.0056 16.9618 2.76501ZM10.0007 17.8951H10.237L10.2462 17.8981C12.4128 17.8318 14.466 16.9343 15.9636 15.3987C17.4612 13.8631 18.2832 11.8124 18.2527 9.68848C18.2221 7.56458 17.3412 5.53746 15.8001 4.04389C14.2588 2.55032 12.1805 1.70984 10.013 1.70355H9.77252C8.33688 1.74355 6.93666 2.14935 5.70974 2.88094C4.48276 3.61255 3.47145 4.64472 2.77538 5.87582C2.07932 7.10691 1.72251 8.49445 1.74011 9.90177C1.7577 11.3091 2.14908 12.6877 2.8757 13.9016L3.02784 14.1541L2.37265 17.6735L5.92249 16.8516L6.19026 16.9887C7.36793 17.5858 8.67485 17.8967 10.0007 17.8951ZM6.16528 5.14689C6.27817 5.09755 6.40006 5.07091 6.52356 5.06854V5.06557H6.54486L6.54567 5.06559C6.71276 5.07056 6.87983 5.07552 7.02565 5.08544L7.02675 5.08552C7.20401 5.09843 7.40631 5.11315 7.57638 5.53469C7.69769 5.82008 7.89822 6.35166 8.05747 6.77383C8.17386 7.08236 8.2682 7.33245 8.29348 7.38533C8.33105 7.45102 8.35136 7.52483 8.35262 7.60013C8.35388 7.67542 8.33599 7.74984 8.30058 7.81668C8.23217 7.96069 8.14337 8.09453 8.03685 8.21424C7.99547 8.25892 7.95356 8.30583 7.91159 8.35281C7.82195 8.45315 7.73205 8.55378 7.6464 8.63366C7.52056 8.75094 7.38267 8.88014 7.52056 9.13061C7.87749 9.77589 8.33006 10.3657 8.86343 10.8808C9.43438 11.4287 10.1048 11.8669 10.8402 12.1729C10.9253 12.2166 11.0191 12.2413 11.115 12.2455C11.1672 12.2446 11.2184 12.233 11.2656 12.2114C11.3128 12.1898 11.3548 12.1588 11.3889 12.1203C11.5451 11.9652 12.0107 11.4275 12.2135 11.1801C12.2451 11.1292 12.2888 11.0868 12.341 11.0563C12.3931 11.0257 12.4521 11.0082 12.5127 11.0051C12.6058 11.0118 12.6968 11.0351 12.7815 11.0736C12.971 11.148 13.8401 11.5991 14.2713 11.8229C14.3594 11.8686 14.4292 11.9049 14.4712 11.9265C14.5068 11.9448 14.5407 11.9619 14.5728 11.9781C14.7638 12.0748 14.8916 12.1395 14.9429 12.2246C15.0026 12.324 14.9874 12.821 14.7603 13.3894C14.5331 13.9579 13.4914 14.4808 13.0299 14.5086C12.9852 14.5112 12.9412 14.5149 12.8961 14.5186C12.803 14.5264 12.7056 14.5345 12.5888 14.5345C12.1679 14.5345 11.5187 14.4271 10.038 13.8019C7.71166 12.8227 6.22936 10.5182 5.92078 10.0385C5.89517 9.99866 5.87764 9.97141 5.86839 9.95854L5.86739 9.95715C5.74301 9.78406 4.88469 8.58963 4.92313 7.38234C4.95925 6.24764 5.54696 5.67006 5.81681 5.40486C5.83485 5.38713 5.85147 5.3708 5.86641 5.35579C5.95072 5.26726 6.05238 5.19623 6.16528 5.14689Z" fill="url(#paint0_linear_2282_2638)"/>
<defs>
<linearGradient id="paint0_linear_2282_2638" x1="9.99999" y1="0" x2="9.99999" y2="19.7746" gradientUnits="userSpaceOnUse">
<stop stop-color="#00D45E"/>
<stop offset="1" stop-color="#00D45E"/>
</linearGradient>
</defs>
</svg>
