<svg width="62" height="62" viewBox="0 0 62 62" fill="none" xmlns="http://www.w3.org/2000/svg">
<g clip-path="url(#clip0_2227_2235)">
<path d="M8.59686 33.953C8.486 34.1312 1.76658 28.5539 1.76658 28.5539C0.0804614 21.712 0 16.7533 0 16.7533L12.9364 21.3557L8.59686 33.951V33.953Z" fill="url(#paint0_linear_2227_2235)"/>
<path d="M2.46753 17.6323C2.46753 17.6323 3.46167 25.5392 3.79604 26.4749L10.2794 28.9944L10.4243 28.505C10.4243 28.505 4.42006 26.4319 4.16258 26.0325C3.90511 25.6331 2.85017 17.7713 2.85017 17.7713L2.46753 17.6343V17.6323Z" fill="#7A9FC2"/>
<path d="M2.46753 17.6323L3.79604 26.4749C3.79604 26.4749 3.08976 23.977 2.81262 21.9411C2.53547 19.9032 2.46753 17.6343 2.46753 17.6343V17.6323Z" fill="white"/>
<g style="mix-blend-mode:soft-light" opacity="0.4">
<path d="M3.25599 18.4251C3.27208 20.2359 4.16073 24.6523 4.57555 24.7992C4.99038 24.946 9.81628 26.561 10.4832 25.96C11.1501 25.359 12.6163 21.8353 12.2552 21.6258C11.8958 21.4144 3.24883 17.6166 3.25599 18.4251Z" fill="#D4EFFF"/>
</g>
<g style="mix-blend-mode:soft-light" opacity="0.4">
<path d="M0.341574 17.1899C0.482829 19.0124 0.987054 23.6911 1.29281 23.8517C1.59856 24.0122 2.6231 24.5427 2.78403 24.0592C3.03971 23.2898 2.38529 18.0336 1.96868 17.7693C1.55207 17.505 0.305814 16.7435 0.341574 17.1899Z" fill="#D4EFFF"/>
</g>
<path style="mix-blend-mode:multiply" opacity="0.37" d="M1.44829 24.4997C1.24088 24.9832 2.18854 28.2015 2.41383 28.5128C2.63912 28.8241 7.83872 32.9429 8.30897 32.7882C8.77922 32.6316 10.5726 27.3304 10.3008 27.0622C10.0273 26.792 1.67895 23.9652 1.44829 24.5016V24.4997Z" fill="url(#paint1_linear_2227_2235)"/>
<g style="mix-blend-mode:multiply" opacity="0.5">
<path d="M8.58967 19.8092C8.58967 19.8092 7.81366 26.3027 5.89868 31.9289L8.59861 33.9511L12.9382 21.3557L8.59146 19.8092H8.58967Z" fill="#A1C5EA"/>
</g>
<path d="M53.4014 33.953C53.5122 34.1311 60.2316 28.5539 60.2316 28.5539C61.9178 21.712 62 16.7552 62 16.7552L49.0636 21.3576L53.4032 33.953H53.4014Z" fill="url(#paint2_linear_2227_2235)"/>
<path d="M59.5307 17.6323C59.5307 17.6323 58.5366 25.5392 58.2022 26.4749L51.7188 28.9944L51.574 28.505C51.574 28.505 57.5782 26.4319 57.8357 26.0325C58.0931 25.6331 59.1481 17.7713 59.1481 17.7713L59.5307 17.6343V17.6323Z" fill="#7A9FC2"/>
<path d="M59.5307 17.6323L58.2021 26.4749C58.2021 26.4749 58.9084 23.977 59.1856 21.9411C59.4627 19.9032 59.5307 17.6343 59.5307 17.6343V17.6323Z" fill="white"/>
<g style="mix-blend-mode:soft-light" opacity="0.4">
<path d="M58.7439 18.4251C58.7278 20.2359 57.8392 24.6523 57.4243 24.7992C57.0095 24.946 52.1836 26.561 51.5167 25.96C50.8498 25.359 49.3836 21.8353 49.7447 21.6258C50.1041 21.4144 58.7511 17.6166 58.7439 18.4251Z" fill="#D4EFFF"/>
</g>
<g style="mix-blend-mode:soft-light" opacity="0.4">
<path d="M61.6585 17.1899C61.5172 19.0124 61.013 23.6911 60.7072 23.8517C60.4015 24.0122 59.3769 24.5427 59.216 24.0592C58.9603 23.2898 59.6148 18.0336 60.0314 17.7693C60.4462 17.505 61.6942 16.7435 61.6585 17.1899Z" fill="#D4EFFF"/>
</g>
<path style="mix-blend-mode:multiply" opacity="0.37" d="M60.5499 24.4997C60.7573 24.9832 59.8096 28.2015 59.5843 28.5128C59.359 28.8241 54.1594 32.9429 53.6892 32.7882C53.2189 32.6316 51.4255 27.3304 51.6973 27.0622C51.9709 26.792 60.3192 23.9652 60.5499 24.5016V24.4997Z" fill="url(#paint3_linear_2227_2235)"/>
<g style="mix-blend-mode:multiply" opacity="0.5">
<path d="M53.4103 19.8092C53.4103 19.8092 54.1863 26.3027 56.1012 31.9289L53.4013 33.9511L49.0618 21.3557L53.4085 19.8092H53.4103Z" fill="#A1C5EA"/>
</g>
<path d="M30.9991 60.4241L54.5564 41.6857L45.5591 11.366H16.441L7.4436 41.6857L30.9991 60.4241Z" fill="#31414C"/>
<path d="M46.4012 10.0974H15.5987L6.08105 42.1692L31.0009 61.9921L55.9206 42.1692L46.403 10.0974H46.4012ZM11.0089 40.4171L18.6438 14.688H43.3544L50.9893 40.4171L30.9991 56.3189L11.0089 40.4171Z" fill="url(#paint4_radial_2227_2235)"/>
<g style="mix-blend-mode:multiply" opacity="0.2">
<path d="M18.6456 14.688L30.9991 56.3189L43.3544 14.688H18.6456Z" fill="#0C363D"/>
</g>
<path d="M46.4012 10.0974H15.5988L13.3977 17.5168C14.7655 17.5853 16.1852 17.7752 17.6389 18.0787L18.6456 14.688H43.3562L50.9911 40.4171L48.0927 42.7232C48.7453 44.1112 49.3228 45.5461 49.8181 47.0241L55.9189 42.1712L46.4012 10.0994V10.0974Z" fill="url(#paint5_radial_2227_2235)"/>
<path style="mix-blend-mode:screen" d="M46.4012 10.0974H15.5988L13.3977 17.5168C14.7655 17.5853 16.1852 17.7752 17.6389 18.0787L18.6456 14.688H43.3562L50.9911 40.4171L48.0927 42.7232C48.7453 44.1112 49.3228 45.5461 49.8181 47.0241L55.9189 42.1712L46.4012 10.0994V10.0974Z" fill="url(#paint6_linear_2227_2235)"/>
<path style="mix-blend-mode:screen" d="M44.7115 51.0862C44.5649 49.2989 44.3217 47.5997 43.9945 45.9827L31.0009 56.3189L11.0107 40.4171L16.4928 21.941C14.9354 21.9822 13.403 22.174 11.9172 22.5068L6.08105 42.1692L31.0009 61.9921L44.7133 51.0842L44.7115 51.0862Z" fill="url(#paint7_linear_2227_2235)"/>
<path d="M11.0089 40.4171L12.9847 39.9316L19.865 16.7435H42.1332L49.0153 39.9316L50.9911 40.4171L43.3544 14.688H18.6438L11.0089 40.4171Z" fill="#455A82"/>
<g style="mix-blend-mode:multiply" opacity="0.2">
<path d="M12.9847 39.9316L16.8343 29.1157C19.1141 22.7104 24.7499 19.9325 31.0277 19.9325C37.3341 19.9325 42.9861 22.7476 45.2479 29.1921L49.0153 39.9316L42.1332 16.7435H19.865L12.9829 39.9316H12.9847Z" fill="#2753A0"/>
</g>
<path d="M11.0089 40.4171L12.9847 39.9316L30.9991 54.2615L49.0153 39.9316L50.9911 40.4171L30.9991 56.3189L11.0089 40.4171Z" fill="url(#paint8_linear_2227_2235)"/>
<g style="mix-blend-mode:multiply" opacity="0.6">
<path d="M12.9847 39.9316L20.051 20.0832C20.3926 19.126 21.2347 18.4936 22.1734 18.4936H39.9304C40.8727 18.4936 41.7184 19.1299 42.0581 20.093L49.0172 39.9316L42.135 16.7435H19.8669L12.9847 39.9316Z" fill="#2753A0"/>
</g>
<path d="M18.6438 14.688L19.865 16.7435H42.1332L43.3544 14.688H18.6438Z" fill="#2E3E54"/>
<g style="mix-blend-mode:multiply" opacity="0.35">
<path d="M9.49441 30.6682L7.10739 40.4524C6.92143 41.2962 7.28798 42.414 7.92273 42.9347L30.9991 61.9922L6.08105 42.1712L9.49441 30.6702V30.6682Z" fill="#455A82"/>
</g>
<g style="mix-blend-mode:multiply" opacity="0.6">
<path d="M12.9847 39.9316L30.1712 52.6053C30.6272 52.942 31.3728 52.942 31.8269 52.6053L49.0135 39.9316L30.9973 54.2615L12.9811 39.9316H12.9847Z" fill="#2753A0"/>
</g>
<g style="mix-blend-mode:multiply" opacity="0.35">
<path d="M30.9991 61.9921L53.1886 43.2263C54.7406 41.9675 55.0749 41.6935 54.3776 39.2797L49.7466 21.3752L55.9171 42.1692L30.9973 61.9921H30.9991Z" fill="#455A82"/>
</g>
<g style="mix-blend-mode:multiply" opacity="0.35">
<path d="M10.0559 28.779L15.2609 12.4407C15.7991 10.7806 16.1889 10.346 17.7963 10.2814L31.0009 10.0974H15.6006L10.0559 28.779Z" fill="#455A82"/>
</g>
<path d="M19.9884 47.5586L30.9991 56.3189L45.8702 44.491L30.9991 57.0628L19.9884 47.5586Z" fill="#F3FEFF"/>
<path d="M30.1641 10.0974H46.4012L49.7466 21.3753L45.7807 10.7239L30.1641 10.0974Z" fill="#F3FEFF"/>
<g style="mix-blend-mode:screen">
<path d="M36.6261 10.0974C36.492 11.5598 37.0731 13.1944 38.1977 14.688H43.3544L44.6293 18.985C46.2457 19.4177 47.7905 19.4333 49.0565 19.0516L46.3994 10.0974H36.6243H36.6261Z" fill="white"/>
</g>
<g style="mix-blend-mode:screen">
<path d="M35.387 12.6502C34.3106 11.7947 33.0125 11.7399 32.4886 12.5288C32.1131 13.0946 32.24 13.9403 32.7371 14.6881H36.5975C36.5367 13.997 36.1022 13.2179 35.387 12.6502Z" fill="white"/>
</g>
<g style="mix-blend-mode:screen">
<path d="M18.6492 46.4937C18.2594 47.5919 18.9657 49.2304 20.3836 50.358C21.8015 51.4856 23.4429 51.7146 24.2761 50.9688L18.6492 46.4937Z" fill="white"/>
</g>
<g style="mix-blend-mode:screen">
<path d="M24.3119 53.9678C24.0741 54.3671 23.4161 54.3593 22.8439 53.9502C22.27 53.541 21.9982 52.8852 22.236 52.4859C22.4738 52.0865 23.1318 52.0943 23.704 52.5035C24.2779 52.9126 24.5497 53.5684 24.3119 53.9678Z" fill="white"/>
</g>
<g style="mix-blend-mode:multiply" opacity="0.5">
<path d="M31.1225 37.8057L25.9909 40.7578L26.9707 34.5032L22.8207 30.0731L28.5567 29.1588L31.1225 23.468L33.6883 29.1588L39.4243 30.0731L35.2743 34.5032L36.2542 40.7578L31.1225 37.8057Z" fill="#89B1D9"/>
</g>
<path d="M38.8254 30.2864L36.0575 29.846L35.3011 29.7246L33.5024 29.4388L31.1225 24.1591L28.7426 29.4388L23.4197 30.2864L27.2711 34.3955L26.361 40.1999L31.1225 37.4592L35.884 40.1999L34.9739 34.3955L38.8254 30.2864Z" fill="url(#paint9_linear_2227_2235)"/>
<path style="mix-blend-mode:multiply" opacity="0.37" d="M23.3928 30.2864L31.2333 32.5298L27.2442 34.3954L23.3928 30.2864Z" fill="url(#paint10_linear_2227_2235)"/>
<path style="mix-blend-mode:multiply" opacity="0.37" d="M38.7986 30.2864L31.2334 32.5298L34.9471 34.3954L38.7986 30.2864Z" fill="url(#paint11_linear_2227_2235)"/>
<path style="mix-blend-mode:multiply" opacity="0.37" d="M31.0956 37.4592L31.2333 32.5299L26.3341 40.1999L31.0956 37.4592Z" fill="url(#paint12_linear_2227_2235)"/>
<path style="mix-blend-mode:multiply" opacity="0.37" d="M35.8554 40.1999L31.2334 32.5299L31.0957 37.4592L35.8554 40.1999Z" fill="url(#paint13_linear_2227_2235)"/>
<path style="mix-blend-mode:color-dodge" opacity="0.5" d="M31.0957 24.1591L31.2334 32.5299L33.4756 29.4388L31.0957 24.1591Z" fill="url(#paint14_linear_2227_2235)"/>
<path style="mix-blend-mode:color-dodge" opacity="0.5" d="M38.7986 30.2864L31.2334 32.5298L33.4756 29.4387L38.7986 30.2864Z" fill="url(#paint15_linear_2227_2235)"/>
<path style="mix-blend-mode:color-dodge" opacity="0.5" d="M38.7986 30.2864L31.2334 32.5298L33.4756 29.4387L38.7986 30.2864Z" fill="url(#paint16_linear_2227_2235)"/>
<path style="mix-blend-mode:color-dodge" opacity="0.5" d="M28.714 29.4387L31.2333 32.5298L23.3928 30.2864L28.714 29.4387Z" fill="url(#paint17_linear_2227_2235)"/>
<path d="M33.4755 31.275C33.0803 31.6411 33.4183 31.8819 33.4183 31.8819L35.4566 31.277C35.4566 31.277 34.391 30.4294 33.4773 31.277L33.4755 31.275Z" fill="white"/>
<g style="mix-blend-mode:multiply" opacity="0.5">
<path d="M26.361 40.1999C26.361 40.1999 29.9728 38.3382 31.1225 37.8194L35.884 40.1999L31.1225 37.4592L26.361 40.1999Z" fill="#89B1D9"/>
</g>
<g style="mix-blend-mode:multiply" opacity="0.5">
<path d="M23.3928 30.2864L31.2333 32.5298L26.9278 36.586L23.3928 30.2864Z" fill="#89B1D9"/>
</g>
<g style="mix-blend-mode:multiply" opacity="0.5">
<path d="M38.7986 30.2864L31.2334 32.5298L35.4013 37.1244L38.7986 30.2864Z" fill="#89B1D9"/>
</g>
<g style="mix-blend-mode:multiply" opacity="0.5">
<path d="M26.361 40.1999L31.2333 32.5299L35.884 40.1999L31.1225 39.3757L26.361 40.1999Z" fill="#89B1D9"/>
</g>
<g style="mix-blend-mode:soft-light" opacity="0.4">
<path d="M29.3506 28.5246C28.8445 30.0614 30.7738 31.1361 31.0331 30.6624C31.2924 30.1906 31.1279 27.5497 30.8024 27.1934C30.477 26.8372 29.558 27.8962 29.3506 28.5246Z" fill="white"/>
</g>
<g style="mix-blend-mode:soft-light" opacity="0.4">
<path d="M27.7718 36.402C28.7963 36.5547 29.3703 35.2764 29.5866 34.3974C29.9353 32.9801 25.9086 36.126 27.7718 36.402Z" fill="white"/>
</g>
<path style="mix-blend-mode:color-dodge" opacity="0.5" d="M43.3402 32.5201C51.5424 32.5201 58.1916 25.2402 58.1916 16.26C58.1916 7.27987 51.5424 0 43.3402 0C35.138 0 28.4888 7.27987 28.4888 16.26C28.4888 25.2402 35.138 32.5201 43.3402 32.5201Z" fill="url(#paint18_radial_2227_2235)"/>
<path style="mix-blend-mode:color-dodge" opacity="0.5" d="M33.0507 49.8743C33.3696 42.8359 28.4167 36.8471 21.9881 36.4979C15.5594 36.1488 10.0895 41.5715 9.77056 48.6099C9.45164 55.6483 14.4046 61.6371 20.8332 61.9862C27.2618 62.3354 32.7318 56.9127 33.0507 49.8743Z" fill="url(#paint19_radial_2227_2235)"/>
</g>
<defs>
<linearGradient id="paint0_linear_2227_2235" x1="2.68108" y1="31.8128" x2="7.10229" y2="19.3845" gradientUnits="userSpaceOnUse">
<stop stop-color="#96BBE0"/>
<stop offset="0.67" stop-color="#B4D5F8"/>
<stop offset="1" stop-color="#AFD1F5"/>
</linearGradient>
<linearGradient id="paint1_linear_2227_2235" x1="6.04959" y1="25.4795" x2="3.98589" y2="31.2807" gradientUnits="userSpaceOnUse">
<stop stop-color="#789DBF"/>
<stop offset="1" stop-color="white"/>
</linearGradient>
<linearGradient id="paint2_linear_2227_2235" x1="59.3224" y1="31.8178" x2="54.9012" y2="19.3896" gradientUnits="userSpaceOnUse">
<stop stop-color="#96BBE0"/>
<stop offset="0.67" stop-color="#B4D5F8"/>
<stop offset="1" stop-color="#AFD1F5"/>
</linearGradient>
<linearGradient id="paint3_linear_2227_2235" x1="55.9538" y1="25.4846" x2="58.0169" y2="31.2839" gradientUnits="userSpaceOnUse">
<stop stop-color="#789DBF"/>
<stop offset="1" stop-color="white"/>
</linearGradient>
<radialGradient id="paint4_radial_2227_2235" cx="0" cy="0" r="1" gradientUnits="userSpaceOnUse" gradientTransform="translate(44.3145 11.8299) scale(39.5316 43.2812)">
<stop offset="0.01" stop-color="#5C6CBA"/>
<stop offset="1" stop-color="#81B3D4"/>
</radialGradient>
<radialGradient id="paint5_radial_2227_2235" cx="0" cy="0" r="1" gradientUnits="userSpaceOnUse" gradientTransform="translate(51.506 5.93941) scale(54.6887 59.876)">
<stop offset="0.01" stop-color="#5C6CBA"/>
<stop offset="1" stop-color="#81B3D4"/>
</radialGradient>
<linearGradient id="paint6_linear_2227_2235" x1="53.8662" y1="1.67961" x2="26.3239" y2="32.7098" gradientUnits="userSpaceOnUse">
<stop stop-color="#9CD3DE"/>
<stop offset="0.19" stop-color="#98CDDA"/>
<stop offset="0.41" stop-color="#8CBED0"/>
<stop offset="0.66" stop-color="#79A6C0"/>
<stop offset="0.93" stop-color="#5F84AA"/>
<stop offset="1" stop-color="#5779A3"/>
</linearGradient>
<linearGradient id="paint7_linear_2227_2235" x1="14.3918" y1="55.9" x2="38.5051" y2="28.2951" gradientUnits="userSpaceOnUse">
<stop stop-color="#42495E"/>
<stop offset="1" stop-color="#4A5780"/>
</linearGradient>
<linearGradient id="paint8_linear_2227_2235" x1="30.9991" y1="36.1397" x2="30.9991" y2="45.18" gradientUnits="userSpaceOnUse">
<stop stop-color="#B4E6F7"/>
<stop offset="0.23" stop-color="#CCEEF9"/>
<stop offset="0.51" stop-color="#E3F7FC"/>
<stop offset="0.77" stop-color="#F2FCFE"/>
<stop offset="1" stop-color="#F7FEFF"/>
</linearGradient>
<linearGradient id="paint9_linear_2227_2235" x1="31.1225" y1="40.5013" x2="31.1225" y2="21.438" gradientUnits="userSpaceOnUse">
<stop stop-color="#7CA7D2"/>
<stop offset="0.67" stop-color="#9EC1E4"/>
<stop offset="1" stop-color="#99BDE1"/>
</linearGradient>
<linearGradient id="paint10_linear_2227_2235" x1="27.3122" y1="30.2864" x2="27.3122" y2="34.3954" gradientUnits="userSpaceOnUse">
<stop stop-color="#5889BA"/>
<stop offset="1" stop-color="white"/>
</linearGradient>
<linearGradient id="paint11_linear_2227_2235" x1="35.0151" y1="-5.46469e-05" x2="35.0151" y2="-5.46469e-05" gradientUnits="userSpaceOnUse">
<stop stop-color="#5889BA"/>
<stop offset="1" stop-color="white"/>
</linearGradient>
<linearGradient id="paint12_linear_2227_2235" x1="28.7837" y1="32.5299" x2="28.7837" y2="40.1999" gradientUnits="userSpaceOnUse">
<stop stop-color="#5889BA"/>
<stop offset="1" stop-color="white"/>
</linearGradient>
<linearGradient id="paint13_linear_2227_2235" x1="33.4756" y1="32.5299" x2="33.4756" y2="40.1999" gradientUnits="userSpaceOnUse">
<stop stop-color="#5889BA"/>
<stop offset="1" stop-color="white"/>
</linearGradient>
<linearGradient id="paint14_linear_2227_2235" x1="31.8002" y1="25.4178" x2="33.0746" y2="36.0894" gradientUnits="userSpaceOnUse">
<stop stop-color="white"/>
<stop offset="1" stop-color="#0C2844"/>
</linearGradient>
<linearGradient id="paint15_linear_2227_2235" x1="31.2334" y1="30.9852" x2="38.7986" y2="30.9852" gradientUnits="userSpaceOnUse">
<stop stop-color="white"/>
<stop offset="1" stop-color="#0C2844"/>
</linearGradient>
<linearGradient id="paint16_linear_2227_2235" x1="34.3875" y1="25.1085" x2="35.6619" y2="35.78" gradientUnits="userSpaceOnUse">
<stop stop-color="white"/>
<stop offset="1" stop-color="#0C2844"/>
</linearGradient>
<linearGradient id="paint17_linear_2227_2235" x1="26.7758" y1="26.0168" x2="28.0502" y2="36.6903" gradientUnits="userSpaceOnUse">
<stop stop-color="white"/>
<stop offset="1" stop-color="#0C2844"/>
</linearGradient>
<radialGradient id="paint18_radial_2227_2235" cx="0" cy="0" r="1" gradientUnits="userSpaceOnUse" gradientTransform="translate(43.3402 16.26) scale(14.8514 16.26)">
<stop stop-color="#40C4F4"/>
<stop offset="0.09" stop-color="#3CB9E6"/>
<stop offset="0.27" stop-color="#339CC2"/>
<stop offset="0.51" stop-color="#236D88"/>
<stop offset="0.8" stop-color="#0F2E39"/>
<stop offset="1"/>
</radialGradient>
<radialGradient id="paint19_radial_2227_2235" cx="0" cy="0" r="1" gradientUnits="userSpaceOnUse" gradientTransform="translate(21.4134 49.2419) scale(11.6544 12.7598)">
<stop stop-color="#40C4F4"/>
<stop offset="0.09" stop-color="#3CB9E6"/>
<stop offset="0.27" stop-color="#339CC2"/>
<stop offset="0.51" stop-color="#236D88"/>
<stop offset="0.8" stop-color="#0F2E39"/>
<stop offset="1"/>
</radialGradient>
<clipPath id="clip0_2227_2235">
<rect width="62" height="62" fill="white"/>
</clipPath>
</defs>
</svg>
