<svg width="20" height="21" viewBox="0 0 20 21" fill="none" xmlns="http://www.w3.org/2000/svg">
<path d="M9.99996 0.499023C15.5237 0.499023 20.0015 4.97687 20.0015 10.5006C20.0015 16.0243 15.5237 20.5021 9.99996 20.5021C4.47626 20.5021 -0.00158691 16.0243 -0.00158691 10.5006C-0.00158691 4.97687 4.47626 0.499023 9.99996 0.499023ZM9.99616 8.74961C9.48332 8.74994 9.0609 9.13626 9.00346 9.63363L8.99681 9.75026L9.00041 15.2519L9.00722 15.3685C9.06531 15.8658 9.48823 16.2515 10.0011 16.2512C10.5139 16.2509 10.9363 15.8645 10.9938 15.3672L11.0004 15.2505L10.9968 9.74895L10.99 9.63233C10.9319 9.13503 10.509 8.74927 9.99616 8.74961ZM10.0004 5.00006C9.30922 5.00006 8.74889 5.56038 8.74889 6.25158C8.74889 6.94277 9.30922 7.5031 10.0004 7.5031C10.6916 7.5031 11.2519 6.94277 11.2519 6.25158C11.2519 5.56038 10.6916 5.00006 10.0004 5.00006Z" fill="#FF7262"/>
</svg>
