<svg width="15" height="18" viewBox="0 0 15 18" fill="none" xmlns="http://www.w3.org/2000/svg">
<path d="M3.19152 0.770537C3.32183 0.314446 3.7387 0 4.21304 0H9.46212C10.1873 0 10.6993 0.710426 10.47 1.39836L10.4674 1.40582L9.20607 5H11.7698C12.7162 5 13.1772 6.1436 12.5363 6.81137L12.5328 6.81506L11.2354 8.13949L11.2321 8.13172C11.2197 8.10228 11.2082 8.07174 11.1981 8.04117L10.8825 7.07075L11.8159 6.11787C11.828 6.10484 11.8313 6.09481 11.8326 6.0864C11.8343 6.07504 11.8332 6.05898 11.826 6.04178C11.8188 6.0246 11.8086 6.01365 11.8009 6.00817C11.7956 6.00438 11.7877 6 11.7698 6H8.50069C8.33858 6 8.18653 5.9214 8.09278 5.78915C7.99903 5.65689 7.97522 5.48739 8.02891 5.33443L9.52192 1.08022C9.53383 1.04042 9.50403 1 9.46212 1H4.21304C4.18518 1 4.1607 1.01847 4.15304 1.04526L1.90344 8.91887C1.89205 8.95873 1.92198 8.99841 1.96344 8.99841H3.8711C4.02507 8.99841 4.17045 9.06935 4.26521 9.19071C4.35996 9.31207 4.39352 9.47031 4.35617 9.61968L3.03114 14.9198C3.02722 14.9355 3.02752 14.9448 3.02795 14.949C3.02839 14.9534 3.02942 14.9568 3.031 14.9601C3.03456 14.9676 3.04387 14.9798 3.06149 14.9896C3.07911 14.9993 3.09441 15.0007 3.10265 14.9997C3.1063 14.9993 3.10973 14.9984 3.11368 14.9964C3.11748 14.9945 3.12551 14.9898 3.1367 14.9782L3.14028 14.9745L6.14825 11.9037L7.04146 12.1939C7.09573 12.2122 7.14847 12.2342 7.19933 12.2598L3.85624 15.6726C3.10187 16.4551 1.79709 15.7329 2.061 14.6773L3.23072 9.99841H1.96344C1.2576 9.99841 0.748006 9.32283 0.941914 8.64415L3.19152 0.770537ZM9.87823 7.28225L10.2265 8.35305C10.3348 8.67859 10.5176 8.97441 10.7604 9.21699C11.0031 9.45957 11.2992 9.64223 11.625 9.75044L12.6966 10.0985L12.718 10.1038C12.8006 10.1329 12.8721 10.1869 12.9227 10.2584C12.9733 10.3298 13.0005 10.4152 13.0005 10.5027C13.0005 10.5902 12.9733 10.6756 12.9227 10.747C12.8721 10.8184 12.8006 10.8724 12.718 10.9016L11.6464 11.2496C11.3206 11.3578 11.0246 11.5404 10.7818 11.783C10.539 12.0256 10.3562 12.3214 10.2479 12.647L9.89967 13.7178C9.87053 13.8003 9.81649 13.8718 9.74499 13.9223C9.6735 13.9729 9.58807 14 9.50049 14C9.4129 14 9.32748 13.9729 9.25598 13.9223C9.24893 13.9173 9.24206 13.9121 9.23535 13.9067C9.17408 13.8575 9.12757 13.7921 9.10131 13.7178L8.75303 12.647C8.73431 12.5901 8.71332 12.5342 8.69015 12.4793C8.58012 12.2187 8.42072 11.9812 8.22016 11.78C8.18203 11.7417 8.14257 11.705 8.10188 11.6697C7.8835 11.4806 7.62968 11.3359 7.35457 11.2442L6.28296 10.8962C6.20036 10.8671 6.12884 10.8131 6.07825 10.7416C6.02766 10.6702 6.00049 10.5848 6.00049 10.4973C6.00049 10.4098 6.02766 10.3244 6.07825 10.253C6.12884 10.1816 6.20036 10.1276 6.28296 10.0985L7.35457 9.75044C7.6764 9.63941 7.96816 9.45549 8.20705 9.21307C8.44593 8.97065 8.62546 8.67631 8.7316 8.35305L9.07988 7.28225C9.10902 7.19972 9.16306 7.12825 9.23455 7.0777C9.30605 7.02715 9.39147 7 9.47906 7C9.56664 7 9.65207 7.02715 9.72356 7.0777C9.79505 7.12825 9.8491 7.19972 9.87823 7.28225ZM14.7829 15.2132L14.0175 14.9646C13.7848 14.8873 13.5733 14.7568 13.3999 14.5836C13.2265 14.4103 13.0959 14.199 13.0186 13.9665L12.7698 13.2016C12.749 13.1427 12.7104 13.0916 12.6593 13.0555C12.6083 13.0194 12.5473 13 12.4847 13C12.4221 13 12.3611 13.0194 12.31 13.0555C12.259 13.0916 12.2204 13.1427 12.1996 13.2016L11.9508 13.9665C11.875 14.1974 11.7467 14.4076 11.5761 14.5808C11.4055 14.7539 11.1971 14.8853 10.9672 14.9646L10.2018 15.2132C10.1428 15.234 10.0917 15.2725 10.0555 15.3236C10.0194 15.3746 10 15.4356 10 15.4981C10 15.5606 10.0194 15.6216 10.0555 15.6726C10.0917 15.7236 10.1428 15.7622 10.2018 15.783L10.9672 16.0316C11.2003 16.1093 11.412 16.2403 11.5855 16.4143C11.7589 16.5882 11.8893 16.8003 11.9661 17.0335L12.2149 17.7984C12.2357 17.8573 12.2743 17.9084 12.3254 17.9445C12.3764 17.9806 12.4374 18 12.5 18C12.5626 18 12.6236 17.9806 12.6746 17.9445C12.7257 17.9084 12.7643 17.8573 12.7851 17.7984L13.0339 17.0335C13.1113 16.801 13.2418 16.5897 13.4152 16.4164C13.5886 16.2432 13.8001 16.1127 14.0328 16.0354L14.7982 15.7868C14.8572 15.766 14.9083 15.7275 14.9445 15.6764C14.9806 15.6254 15 15.5644 15 15.5019C15 15.4394 14.9806 15.3784 14.9445 15.3274C14.9083 15.2764 14.8572 15.2378 14.7982 15.217L14.7829 15.2132Z" fill="#68748A"/>
</svg>
