<svg width="14" height="15" viewBox="0 0 14 15" fill="none" xmlns="http://www.w3.org/2000/svg">
<path d="M13.236 1.26386C12.2123 0.240172 10.5525 0.240171 9.52885 1.26386L1.65722 9.13549C1.28304 9.50967 1.01623 9.97748 0.88467 10.49L0.0157097 13.8755C-0.0282329 14.0467 0.0214766 14.2284 0.146457 14.3534C0.271438 14.4783 0.453118 14.528 0.624318 14.4841L4.00978 13.6151C4.52234 13.4836 4.99015 13.2168 5.36433 12.8426L13.236 4.97097C14.2596 3.94728 14.2596 2.28755 13.236 1.26386ZM10.236 1.97097C10.8691 1.3378 11.8957 1.3378 12.5288 1.97097C13.162 2.60413 13.162 3.6307 12.5288 4.26386L11.75 5.04269L9.45713 2.74979L10.236 1.97097ZM8.75002 3.4569L11.0429 5.74979L4.65722 12.1355C4.40969 12.383 4.10023 12.5595 3.76117 12.6465L1.19447 13.3053L1.85327 10.7386C1.9403 10.3996 2.1168 10.0901 2.36433 9.84259L8.75002 3.4569Z" fill="#101729"/>
</svg>
