<svg width="24" height="24" viewBox="0 0 24 24" fill="none" xmlns="http://www.w3.org/2000/svg">
<path d="M7 14.75C7 14.3358 7.33579 14 7.75 14C8.12656 14 8.4383 14.2775 8.49187 14.6392L8.5 14.75L8.5 17C8.5 18.933 10.067 20.5 12 20.5C13.864 20.5 15.3876 19.0429 15.4941 17.2057L15.5 17L15.5 14.75C15.5 14.3358 15.8358 14 16.25 14C16.6266 14 16.9383 14.2775 16.9919 14.6392L17 14.75L17 17C17 19.7614 14.7614 22 12 22C9.32226 22 7.13615 19.895 7.00612 17.2496L7 17L7 14.75ZM7 7C7 4.23858 9.23858 2 12 2C14.6777 2 16.8638 4.10496 16.9939 6.75045L17 7L17 9.25C17 9.66421 16.6642 10 16.25 10C15.8734 10 15.5617 9.72249 15.5081 9.36083L15.5 9.25L15.5 7C15.5 5.067 13.933 3.5 12 3.5C10.136 3.5 8.61239 4.95707 8.50594 6.79435L8.5 7L8.5 9.25C8.5 9.66421 8.16421 10 7.75 10C7.37344 10 7.0617 9.72249 7.00813 9.36083L7 9.25L7 7ZM11.25 17L11.25 7C11.25 6.58579 11.5858 6.25 12 6.25C12.3797 6.25 12.6935 6.53215 12.7432 6.89823L12.75 7L12.75 17C12.75 17.4142 12.4142 17.75 12 17.75C11.6203 17.75 11.3065 17.4678 11.2568 17.1018L11.25 17L11.25 7L11.25 17Z" fill="#1ABCFE"/>
</svg>
