<svg width="20" height="21" viewBox="0 0 20 21" fill="none" xmlns="http://www.w3.org/2000/svg">
<path d="M11 12.5C11 13.0523 10.5523 13.5 10 13.5C9.44771 13.5 9 13.0523 9 12.5C9 11.9477 9.44771 11.5 10 11.5C10.5523 11.5 11 11.9477 11 12.5ZM7 6.5H6C4.34315 6.5 3 7.84315 3 9.5V15.5C3 17.1569 4.34315 18.5 6 18.5H9V17.9142C9 17.7739 9.01474 17.6352 9.04336 17.5H6C4.89543 17.5 4 16.6046 4 15.5V9.5C4 8.39543 4.89543 7.5 6 7.5H14C15.1046 7.5 16 8.39543 16 9.5C16.3453 9.5 16.6804 9.54375 17 9.62602V9.5C17 7.84315 15.6569 6.5 14 6.5H13V5.5C13 3.84315 11.6569 2.5 10 2.5C8.34315 2.5 7 3.84315 7 5.5V6.5ZM8 5.5C8 4.39543 8.89543 3.5 10 3.5C11.1046 3.5 12 4.39543 12 5.5V6.5H8V5.5ZM16 16.5C17.6569 16.5 19 15.1569 19 13.5C19 11.8431 17.6569 10.5 16 10.5C14.3431 10.5 13 11.8431 13 13.5C13 13.8031 13.0449 14.0957 13.1285 14.3715L10.2929 17.2071C10.1054 17.3946 10 17.649 10 17.9142V19C10 19.2761 10.2239 19.5 10.5 19.5H12.5C12.7761 19.5 13 19.2761 13 19V18.5H13.5C13.7761 18.5 14 18.2761 14 18V17.5H14.5C14.7761 17.5 15 17.2761 15 17V16.3293C15.3128 16.4398 15.6494 16.5 16 16.5ZM16.75 12C17.1642 12 17.5 12.3358 17.5 12.75C17.5 13.1642 17.1642 13.5 16.75 13.5C16.3358 13.5 16 13.1642 16 12.75C16 12.3358 16.3358 12 16.75 12Z" fill="white"/>
</svg>
