<svg width="25" height="25" viewBox="0 0 25 25" fill="none" xmlns="http://www.w3.org/2000/svg">
<path d="M13.3334 14.5503V14.5002H4.58616C3.34414 14.5002 2.33728 15.507 2.33728 16.7491V17.3267C2.33728 18.2195 2.6558 19.083 3.23556 19.7619C4.80186 21.5962 7.18788 22.5013 10.3337 22.5013C10.6912 22.5013 11.0389 22.4896 11.3767 22.4662C11.3483 22.3153 11.3334 22.1595 11.3334 22.0002V20.9658C11.0123 20.9895 10.6792 21.0013 10.3337 21.0013C7.59544 21.0013 5.62956 20.2555 4.37625 18.7878C4.02839 18.3805 3.83728 17.8624 3.83728 17.3267V16.7491C3.83728 16.3355 4.17256 16.0002 4.58616 16.0002H11.5415C11.8628 15.2648 12.5278 14.7138 13.3334 14.5503ZM10.3337 2.50488C13.0952 2.50488 15.3337 4.74346 15.3337 7.50488C15.3337 10.2663 13.0952 12.5049 10.3337 12.5049C7.57232 12.5049 5.33374 10.2663 5.33374 7.50488C5.33374 4.74346 7.57232 2.50488 10.3337 2.50488ZM10.3337 4.00488C8.40074 4.00488 6.83374 5.57189 6.83374 7.50488C6.83374 9.43788 8.40074 11.0049 10.3337 11.0049C12.2667 11.0049 13.8337 9.43788 13.8337 7.50488C13.8337 5.57189 12.2667 4.00488 10.3337 4.00488ZM14.3334 15.5003H13.8334C13.0049 15.5003 12.3334 16.1719 12.3334 17.0003V22.0002C12.3334 22.8287 13.0049 23.5002 13.8334 23.5002H21.8334C22.6618 23.5002 23.3334 22.8287 23.3334 22.0002V17.0003C23.3334 16.1719 22.6618 15.5003 21.8334 15.5003H21.3334V14.2502C21.3334 13.2837 20.5499 12.5002 19.5834 12.5002H16.0834C15.1169 12.5002 14.3334 13.2837 14.3334 14.2502V15.5003ZM15.8334 14.2502C15.8334 14.1122 15.9453 14.0002 16.0834 14.0002H19.5834C19.7215 14.0002 19.8334 14.1122 19.8334 14.2502V15.5003H15.8334V14.2502Z" fill="#AAAFBF"/>
</svg>
