<svg width="13" height="16" viewBox="0 0 13 16" fill="none" xmlns="http://www.w3.org/2000/svg">
<path d="M2.5 8C2.22386 8 2 8.22386 2 8.5C2 8.77614 2.22386 9 2.5 9C2.77614 9 3 8.77614 3 8.5C3 8.22386 2.77614 8 2.5 8ZM2 10.5C2 10.2239 2.22386 10 2.5 10C2.77614 10 3 10.2239 3 10.5C3 10.7761 2.77614 11 2.5 11C2.22386 11 2 10.7761 2 10.5ZM4 8.5C4 8.22386 4.22386 8 4.5 8H8.5C8.77614 8 9 8.22386 9 8.5C9 8.77614 8.77614 9 8.5 9H4.5C4.22386 9 4 8.77614 4 8.5ZM4.5 10C4.22386 10 4 10.2239 4 10.5C4 10.7761 4.22386 11 4.5 11H8.5C8.77614 11 9 10.7761 9 10.5C9 10.2239 8.77614 10 8.5 10H4.5ZM2 0C0.89543 0 0 0.895431 0 2V12C0 13.1046 0.895431 14 2 14H9C10.1046 14 11 13.1046 11 12V5.41421C11 5.01639 10.842 4.63486 10.5607 4.35355L6.64645 0.43934C6.36514 0.158035 5.98361 0 5.58579 0H2ZM1 2C1 1.44772 1.44772 1 2 1H5V4.5C5 5.32843 5.67157 6 6.5 6H10V12C10 12.5523 9.55229 13 9 13H2C1.44772 13 1 12.5523 1 12V2ZM6 4.5V1.20711L9.79289 5H6.5C6.22386 5 6 4.77614 6 4.5ZM12 6C12.5523 6 13 6.44771 13 7V12.0606C13 14.2363 11.2363 16 9.06061 16H3C2.44772 16 2 15.5523 2 15H9C10.6569 15 12 13.6569 12 12V6Z" fill="#101729"/>
</svg>
