<svg width="16" height="17" viewBox="0 0 16 17" fill="none" xmlns="http://www.w3.org/2000/svg">
<path d="M14 3C14 1.61929 12.8807 0.5 11.5 0.5H2.5C1.11929 0.5 0 1.61929 0 3V12C0 13.3807 1.11929 14.5 2.5 14.5H6.59971C6.43777 14.1832 6.30564 13.8486 6.20703 13.5H2.5C1.67157 13.5 1 12.8284 1 12V4.5H13V6.70703C13.3486 6.80564 13.6832 6.93777 14 7.09971V3ZM2.5 1.5H11.5C12.3284 1.5 13 2.17157 13 3V3.5H1V3C1 2.17157 1.67157 1.5 2.5 1.5ZM11.5 16.5C13.9853 16.5 16 14.4853 16 12C16 9.51472 13.9853 7.5 11.5 7.5C9.01472 7.5 7 9.51472 7 12C7 14.4853 9.01472 16.5 11.5 16.5ZM11 10C11 9.72386 11.2239 9.5 11.5 9.5C11.7761 9.5 12 9.72386 12 10V11.5H13C13.2761 11.5 13.5 11.7239 13.5 12C13.5 12.2761 13.2761 12.5 13 12.5H11.5C11.2239 12.5 11 12.2761 11 12V10Z" fill="#101729"/>
</svg>
