<svg width="60" height="62" viewBox="0 0 60 62" fill="none" xmlns="http://www.w3.org/2000/svg">
<g clip-path="url(#clip0_2553_169)">
<path d="M15.4416 28.7502L14.3018 23.9574L15.4314 22.0525L23.0867 15.8762V3.92219L24.0595 2.98168L27.1298 0V20.3947L15.4416 28.7502Z" fill="url(#paint0_linear_2553_169)"/>
<path d="M14.3018 23.9571L24.0595 16.4808V2.98145L23.0866 3.92195V15.8759L15.4314 22.0523L14.3018 23.9571Z" fill="url(#paint1_linear_2553_169)"/>
<g style="mix-blend-mode:soft-light" opacity="0.4">
<path d="M24.2809 2.98155C24.2298 3.74656 24.3269 13.2471 24.6592 13.4685C24.9914 13.6917 26.714 12.3866 26.8571 11.8653C27.0002 11.3422 26.915 1.1772 26.6799 1.21298C26.4448 1.25047 24.3167 2.44485 24.2826 2.98155H24.2809Z" fill="#DAECFF"/>
</g>
<path style="mix-blend-mode:multiply" opacity="0.37" d="M24.3389 16.6568C23.4682 17.6143 14.7941 23.9593 14.6748 24.37C14.5232 24.8998 15.675 27.3721 16.2219 27.1642C16.7705 26.9564 27.0957 19.1273 27.1144 18.7576C27.1348 18.3862 27.1621 16.3535 26.9134 16.2206C26.6646 16.0877 24.6694 16.2905 24.3372 16.6568H24.3389Z" fill="url(#paint2_linear_2553_169)"/>
<path d="M14.3018 24.3693L24.264 16.6305L24.3168 2.75293L24.0595 2.98124V16.4806L14.3018 23.9569V24.3693Z" fill="#809CB4"/>
<g style="mix-blend-mode:soft-light" opacity="0.4">
<path d="M23.1903 16.0124C22.623 16.0618 15.5385 22.1445 15.5385 22.3182C15.5385 22.492 14.2896 23.5228 14.5929 23.4973C14.8962 23.4717 23.8497 16.7025 23.8616 16.481C23.8736 16.2595 23.4953 15.9869 23.1903 16.0124Z" fill="#DAECFF"/>
</g>
<g style="mix-blend-mode:soft-light" opacity="0.4">
<path d="M14.3018 24.3702C14.3018 24.3702 19.0162 21.1874 21.4271 19.1565C23.838 17.1255 24.339 16.6553 24.339 16.6553L14.3018 24.3685V24.3702Z" fill="#DAECFF"/>
</g>
<g style="mix-blend-mode:multiply" opacity="0.5">
<path d="M23.0867 14.3428L24.0596 13.2251H24.2691L27.1298 11.1328V20.3948L23.8636 22.5944L22.2637 16.5407L23.0867 15.8762V14.3428Z" fill="#A9C2DC"/>
</g>
<path d="M44.7319 28.7502L45.8718 23.9574L44.7421 22.0525L37.0852 15.8762V3.92219L36.114 2.98168L32.9824 0V20.3504L44.7319 28.7502Z" fill="url(#paint3_linear_2553_169)"/>
<path d="M45.8716 23.9571L36.1138 16.4808V2.98145L37.085 3.92195V15.8759L44.7419 22.0523L45.8716 23.9571Z" fill="url(#paint4_linear_2553_169)"/>
<g style="mix-blend-mode:soft-light" opacity="0.4">
<path d="M35.7305 2.98155C35.7816 3.74656 35.9247 13.2471 35.5908 13.4685C35.2585 13.6917 33.4116 12.2571 33.2685 11.7358C33.1253 11.2127 33.2565 1.17721 33.4934 1.21299C33.7285 1.25047 35.6947 2.44485 35.7305 2.98155Z" fill="#DAECFF"/>
</g>
<path style="mix-blend-mode:multiply" opacity="0.37" d="M35.8345 16.6568C36.7052 17.6143 45.3793 23.9593 45.4986 24.37C45.6502 24.8998 44.4984 27.3721 43.9515 27.1642C43.4029 26.9564 33.0777 19.1273 33.059 18.7576C33.0386 18.3862 33.0113 16.3535 33.2601 16.2206C33.5088 16.0877 35.504 16.2905 35.8362 16.6568H35.8345Z" fill="url(#paint5_linear_2553_169)"/>
<path d="M45.8718 24.3693L35.9096 16.6305L35.855 2.75293L36.114 2.98124V16.4806L45.8718 23.9569V24.3693Z" fill="#809CB4"/>
<g style="mix-blend-mode:soft-light" opacity="0.4">
<path d="M36.9831 16.0124C37.5504 16.0618 44.6349 22.1445 44.6349 22.3182C44.6349 22.492 45.8838 23.5228 45.5805 23.4973C45.2772 23.4717 36.3237 16.7025 36.3118 16.481C36.2998 16.2595 36.6781 15.9869 36.9831 16.0124Z" fill="#DAECFF"/>
</g>
<g style="mix-blend-mode:soft-light" opacity="0.4">
<path d="M45.8717 24.3702C45.8717 24.3702 41.1572 21.1874 38.7463 19.1565C36.3354 17.1255 35.8345 16.6553 35.8345 16.6553L45.8717 24.3685V24.3702Z" fill="#DAECFF"/>
</g>
<g style="mix-blend-mode:multiply" opacity="0.5">
<path d="M37.0851 14.3428L36.0646 13.2251H35.855L32.9858 11.1191L32.9943 20.3947L36.2605 22.5944L37.8604 16.5407L37.0851 15.8762V14.3428Z" fill="#A9C2DC"/>
</g>
<path d="M8.19196 36.9934C8.08632 37.1485 1.68337 32.2943 1.68337 32.2943C0.0766718 26.3395 0 22.0254 0 22.0254L12.3271 26.0311L8.19196 36.9934Z" fill="url(#paint6_linear_2553_169)"/>
<path d="M2.35156 22.7891C2.35156 22.7891 3.29888 29.6708 3.6175 30.4852L9.79554 32.678L9.93355 32.2521C9.93355 32.2521 4.21213 30.4477 3.96678 30.1001C3.72143 29.7526 2.71618 22.91 2.71618 22.91L2.35156 22.7908V22.7891Z" fill="#7A9FC2"/>
<path d="M2.35156 22.7891L3.6175 30.4852C3.6175 30.4852 2.94449 28.3111 2.6804 26.5392C2.4163 24.7655 2.35156 22.7908 2.35156 22.7908V22.7891Z" fill="white"/>
<g style="mix-blend-mode:soft-light" opacity="0.4">
<path d="M3.10254 23.479C3.11787 25.055 3.96467 28.8988 4.35995 29.0266C4.75524 29.1544 9.35385 30.56 9.98937 30.037C10.6232 29.5139 12.022 26.447 11.6778 26.2647C11.3354 26.0807 3.09572 22.7753 3.10254 23.479Z" fill="#D4EFFF"/>
</g>
<g style="mix-blend-mode:soft-light" opacity="0.4">
<path d="M0.325425 22.4037C0.460026 23.99 0.940502 28.0621 1.23186 28.2018C1.52321 28.3415 2.4995 28.8033 2.65284 28.3824C2.89649 27.7128 2.27289 23.1381 1.8759 22.9081C1.48061 22.678 0.291348 22.0153 0.325425 22.4037Z" fill="#D4EFFF"/>
</g>
<path style="mix-blend-mode:multiply" opacity="0.37" d="M1.38013 28.7661C1.18249 29.1869 2.08551 31.988 2.30019 32.2589C2.51487 32.5298 7.46958 36.1146 7.91768 35.98C8.36578 35.8437 10.0747 31.2298 9.81573 30.9964C9.55505 30.7612 1.59992 28.3009 1.38013 28.7678V28.7661Z" fill="url(#paint7_linear_2553_169)"/>
<g style="mix-blend-mode:multiply" opacity="0.5">
<path d="M8.18534 24.6855C8.18534 24.6855 7.44588 30.3371 5.62109 35.2339L8.19385 36.9939L12.329 26.0316L8.18704 24.6855H8.18534Z" fill="#A1C5EA"/>
</g>
<path d="M50.8863 36.9934C50.992 37.1485 57.3949 32.2943 57.3949 32.2943C59.0016 26.3395 59.08 22.0254 59.08 22.0254L46.7529 26.0311L50.888 36.9934H50.8863Z" fill="url(#paint8_linear_2553_169)"/>
<path d="M56.7269 22.7891C56.7269 22.7891 55.7796 29.6708 55.461 30.4852L49.283 32.678L49.145 32.2521C49.145 32.2521 54.8664 30.4477 55.1117 30.1001C55.3571 29.7526 56.3623 22.91 56.3623 22.91L56.7269 22.7908V22.7891Z" fill="#7A9FC2"/>
<path d="M56.7268 22.7891L55.4609 30.4852C55.4609 30.4852 56.1339 28.3111 56.398 26.5392C56.6621 24.7655 56.7268 22.7908 56.7268 22.7908V22.7891Z" fill="white"/>
<g style="mix-blend-mode:soft-light" opacity="0.4">
<path d="M55.9771 23.479C55.9617 25.055 55.1149 28.8988 54.7197 29.0266C54.3244 29.1544 49.7258 30.56 49.0902 30.037C48.4564 29.5139 47.0576 26.447 47.4018 26.2647C47.7442 26.0807 55.9839 22.7753 55.9771 23.479Z" fill="#D4EFFF"/>
</g>
<g style="mix-blend-mode:soft-light" opacity="0.4">
<path d="M58.7543 22.4037C58.6197 23.99 58.1393 28.0621 57.8479 28.2018C57.5565 28.3415 56.5803 28.8033 56.4269 28.3824C56.1833 27.7128 56.8069 23.1381 57.2039 22.9081C57.6008 22.678 58.7884 22.0153 58.7543 22.4037Z" fill="#D4EFFF"/>
</g>
<path style="mix-blend-mode:multiply" opacity="0.37" d="M57.698 28.7661C57.8957 29.1869 56.9926 31.988 56.778 32.2589C56.5633 32.5298 51.6086 36.1146 51.1605 35.98C50.7124 35.8437 49.0034 31.2298 49.2624 30.9964C49.5231 30.7612 57.4782 28.3009 57.698 28.7678V28.7661Z" fill="url(#paint9_linear_2553_169)"/>
<g style="mix-blend-mode:multiply" opacity="0.5">
<path d="M50.8947 24.6855C50.8947 24.6855 51.6341 30.3371 53.4589 35.2339L50.8862 36.9939L46.751 26.0316L50.893 24.6855H50.8947Z" fill="#A1C5EA"/>
</g>
<path d="M29.6756 60.0319L52.1234 43.7247L43.5498 17.3359H15.8031L7.22949 43.7247L29.6756 60.0319Z" fill="#31414C"/>
<path d="M44.3506 16.2324H15.0006L5.93115 44.1461L29.6773 61.3989L53.4234 44.1461L44.354 16.2324H44.3506ZM10.6269 42.6212L17.9022 20.2279H41.449L48.7243 42.6212L29.6756 56.4613L10.6269 42.6212Z" fill="url(#paint10_radial_2553_169)"/>
<g style="mix-blend-mode:multiply" opacity="0.2">
<path d="M17.9019 20.2256L29.6753 56.459L41.4487 20.2256H17.9019Z" fill="#0C363D"/>
</g>
<path d="M44.3502 16.2324H15.0002L12.9028 22.6899C14.2062 22.7495 15.5591 22.9148 16.9443 23.1789L17.9035 20.2279H41.4503L48.7256 42.6212L45.9637 44.6283C46.5856 45.8363 47.1359 47.0852 47.6079 48.3715L53.4213 44.1478L44.3519 16.2341L44.3502 16.2324Z" fill="url(#paint11_radial_2553_169)"/>
<path style="mix-blend-mode:screen" d="M44.3502 16.2324H15.0002L12.9028 22.6899C14.2062 22.7495 15.5591 22.9148 16.9443 23.1789L17.9035 20.2279H41.4503L48.7256 42.6212L45.9637 44.6283C46.5856 45.8363 47.1359 47.0852 47.6079 48.3715L53.4213 44.1478L44.3519 16.2341L44.3502 16.2324Z" fill="url(#paint12_linear_2553_169)"/>
<path style="mix-blend-mode:screen" d="M42.7422 51.9055C42.6024 50.3499 42.3707 48.871 42.0589 47.4637L29.6773 56.4598L10.6286 42.6197L15.8525 26.5391C14.3685 26.5748 12.9083 26.7418 11.4924 27.0315L5.93115 44.1446L29.6773 61.3975L42.7439 51.9038L42.7422 51.9055Z" fill="url(#paint13_linear_2553_169)"/>
<path d="M10.6265 42.6206L12.5093 42.198L19.0656 22.0163H40.2849L46.8429 42.198L48.7239 42.6206L41.4486 20.2256H17.9019L10.6265 42.6206Z" fill="#455A82"/>
<g style="mix-blend-mode:multiply" opacity="0.2">
<path d="M12.5093 42.1983L16.1776 32.7847C18.35 27.2098 23.7204 24.7921 29.7025 24.7921C35.7119 24.7921 41.0977 27.2422 43.253 32.8512L46.8429 42.1983L40.2849 22.0166H19.0656L12.5093 42.1983Z" fill="#2753A0"/>
</g>
<path d="M10.6265 42.6208L12.5093 42.1982L29.6752 54.6702L46.8429 42.1982L48.7239 42.6208L29.6752 56.4592L10.6265 42.6208Z" fill="url(#paint14_linear_2553_169)"/>
<g style="mix-blend-mode:multiply" opacity="0.6">
<path d="M12.5093 42.1983L19.2411 24.9233C19.5665 24.0901 20.369 23.5398 21.2635 23.5398H38.1841C39.082 23.5398 39.8879 24.0936 40.2117 24.9318L46.8429 42.1983L40.2849 22.0166H19.0656L12.5093 42.1983Z" fill="#2753A0"/>
</g>
<path d="M17.9019 20.2256L19.0656 22.0163H40.285L41.4487 20.2256H17.9019Z" fill="#2E3E54"/>
<g style="mix-blend-mode:multiply" opacity="0.35">
<path d="M9.18349 34.1357L6.9089 42.6514C6.7317 43.3858 7.08098 44.3586 7.68584 44.8119L29.6753 61.3985L5.9292 44.1457L9.18179 34.1357H9.18349Z" fill="#455A82"/>
</g>
<g style="mix-blend-mode:multiply" opacity="0.6">
<path d="M12.5095 42.1982L28.8866 53.2288C29.321 53.5218 30.0315 53.5218 30.4643 53.2288L46.8414 42.1982L29.6754 54.6702L12.5078 42.1982H12.5095Z" fill="#2753A0"/>
</g>
<g style="mix-blend-mode:multiply" opacity="0.35">
<path d="M29.6755 61.3987L50.8199 45.0659C52.2988 43.9703 52.6174 43.7318 51.9529 41.631L47.54 26.0479L53.4199 44.1458L29.6738 61.3987H29.6755Z" fill="#455A82"/>
</g>
<g style="mix-blend-mode:multiply" opacity="0.35">
<path d="M9.7168 32.49L14.6766 18.2699C15.1894 16.8251 15.5609 16.4469 17.0926 16.3906L29.6753 16.2305H15.0003L9.7168 32.49Z" fill="#455A82"/>
</g>
<path d="M19.1831 48.8366L29.6752 56.4595L43.8458 46.165L29.6752 57.107L19.1831 48.8366Z" fill="#F3FEFF"/>
<path d="M28.8799 16.2324H44.3506L47.5401 26.0481L43.761 16.7759L28.8799 16.2324Z" fill="#F3FEFF"/>
<g style="mix-blend-mode:screen">
<path d="M35.0372 16.2324C34.9094 17.5052 35.4632 18.9279 36.5349 20.2279H41.4487L42.6635 23.9678C44.2038 24.3443 45.6758 24.3579 46.8821 24.0257L44.3503 16.2324H35.0355H35.0372Z" fill="white"/>
</g>
<g style="mix-blend-mode:screen">
<path d="M33.8563 18.4524C32.8306 17.7078 31.5936 17.6601 31.0944 18.3468C30.7366 18.8392 30.8576 19.5752 31.3313 20.2261H35.0098C34.9519 19.6246 34.5378 18.9465 33.8563 18.4524Z" fill="white"/>
</g>
<g style="mix-blend-mode:screen">
<path d="M17.9074 47.9102C17.536 48.866 18.209 50.2921 19.5601 51.2735C20.9112 52.2549 22.4753 52.4542 23.2693 51.8051L17.9074 47.9102Z" fill="white"/>
</g>
<g style="mix-blend-mode:screen">
<path d="M23.303 54.4133C23.0764 54.7608 22.4494 54.754 21.9042 54.3979C21.359 54.0418 21.0983 53.471 21.3249 53.1235C21.5515 52.7759 22.1785 52.7827 22.7237 53.1388C23.2707 53.4949 23.5297 54.0657 23.303 54.4133Z" fill="white"/>
</g>
<g style="mix-blend-mode:multiply" opacity="0.5">
<path d="M29.987 30.7168L27.4586 32.0474L27.9407 29.231L25.8945 27.2359L28.7228 26.8252L29.987 24.2627L31.253 26.8252L34.0796 27.2359L32.0333 29.231L32.5172 32.0474L29.987 30.7168Z" fill="#89B1D9"/>
</g>
<path d="M33.7848 27.3307L32.4201 27.1331L32.0469 27.0786L31.161 26.9508L29.987 24.5723L28.8148 26.9508L26.1909 27.3307L28.089 29.1828L27.6409 31.7947L29.987 30.5612L32.3349 31.7947L31.8868 29.1828L33.7848 27.3307Z" fill="url(#paint15_linear_2553_169)"/>
<path style="mix-blend-mode:multiply" opacity="0.37" d="M26.1772 27.3301L30.0415 28.3404L28.0753 29.1821L26.1772 27.3301Z" fill="url(#paint16_linear_2553_169)"/>
<path style="mix-blend-mode:multiply" opacity="0.37" d="M33.7711 27.3301L30.0415 28.3404L31.8731 29.1821L33.7711 27.3301Z" fill="url(#paint17_linear_2553_169)"/>
<path style="mix-blend-mode:multiply" opacity="0.37" d="M29.9736 30.5609L30.0417 28.3408L27.6274 31.7945L29.9736 30.5609Z" fill="url(#paint18_linear_2553_169)"/>
<path style="mix-blend-mode:multiply" opacity="0.37" d="M32.3215 31.7945L30.0418 28.3408L29.9736 30.5609L32.3215 31.7945Z" fill="url(#paint19_linear_2553_169)"/>
<path style="mix-blend-mode:color-dodge" opacity="0.5" d="M29.9736 24.5723L30.0418 28.3411L31.1475 26.9508L29.9736 24.5723Z" fill="url(#paint20_linear_2553_169)"/>
<path style="mix-blend-mode:color-dodge" opacity="0.5" d="M33.7711 27.3301L30.0415 28.3405L31.1473 26.9502L33.7711 27.3301Z" fill="url(#paint21_linear_2553_169)"/>
<path style="mix-blend-mode:color-dodge" opacity="0.5" d="M33.7711 27.3301L30.0415 28.3405L31.1473 26.9502L33.7711 27.3301Z" fill="url(#paint22_linear_2553_169)"/>
<path style="mix-blend-mode:color-dodge" opacity="0.5" d="M28.8011 26.9502L30.0415 28.3405L26.1772 27.3301L28.8011 26.9502Z" fill="url(#paint23_linear_2553_169)"/>
<path d="M31.1473 27.777C30.9531 27.9423 31.1183 28.0497 31.1183 28.0497L32.1236 27.777C32.1236 27.777 31.5988 27.3954 31.1473 27.777Z" fill="white"/>
<g style="mix-blend-mode:multiply" opacity="0.5">
<path d="M27.6411 31.7951C27.6411 31.7951 29.4216 30.9568 29.9872 30.7234L32.3334 31.7951L29.9872 30.5615L27.6411 31.7951Z" fill="#89B1D9"/>
</g>
<g style="mix-blend-mode:multiply" opacity="0.5">
<path d="M26.1772 27.3311L30.0414 28.3414L27.9202 30.1679L26.1772 27.3311Z" fill="#89B1D9"/>
</g>
<g style="mix-blend-mode:multiply" opacity="0.5">
<path d="M33.7712 27.3311L30.0415 28.3414L32.0963 30.4116L33.7712 27.3311Z" fill="#89B1D9"/>
</g>
<g style="mix-blend-mode:multiply" opacity="0.5">
<path d="M27.6411 31.7954L30.0418 28.3418L32.3351 31.7954L29.9872 31.4257L27.6411 31.7954Z" fill="#89B1D9"/>
</g>
<g style="mix-blend-mode:soft-light" opacity="0.4">
<path d="M29.1146 26.5391C28.8658 27.2308 29.8165 27.7147 29.9443 27.5017C30.0721 27.2887 29.9903 26.0995 29.8302 25.9393C29.67 25.7792 29.2168 26.2562 29.1146 26.5391Z" fill="white"/>
</g>
<g style="mix-blend-mode:soft-light" opacity="0.4">
<path d="M28.336 30.0847C28.842 30.1528 29.1249 29.5769 29.2305 29.1816C29.4026 28.5444 27.4176 29.9603 28.336 30.0847Z" fill="white"/>
</g>
<g style="mix-blend-mode:multiply" opacity="0.5">
<path d="M29.9871 44.0963L25.397 46.5089L26.2745 41.3975L22.5601 37.7786L27.692 37.0323L29.9871 32.3809L32.2838 37.0323L37.4157 37.7786L33.7014 41.3975L34.5789 46.5089L29.9871 44.0963Z" fill="#89B1D9"/>
</g>
<path d="M36.8788 37.9519L34.4015 37.5924L33.7251 37.4935L32.1167 37.2601L29.9869 32.9443L27.8588 37.2601L23.0967 37.9519L26.5418 41.3101L25.7291 46.0535L29.9869 43.813L34.2464 46.0535L33.4337 41.3101L36.8788 37.9519Z" fill="url(#paint24_linear_2553_169)"/>
<path style="mix-blend-mode:multiply" opacity="0.37" d="M23.0713 37.9521L30.0859 39.7855L26.5181 41.3104L23.0713 37.9521Z" fill="url(#paint25_linear_2553_169)"/>
<path style="mix-blend-mode:multiply" opacity="0.37" d="M36.8552 37.9521L30.0859 39.7855L33.4084 41.3104L36.8552 37.9521Z" fill="url(#paint26_linear_2553_169)"/>
<path style="mix-blend-mode:multiply" opacity="0.37" d="M29.9631 43.813L30.0858 39.7852L25.7036 46.0535L29.9631 43.813Z" fill="url(#paint27_linear_2553_169)"/>
<path style="mix-blend-mode:multiply" opacity="0.37" d="M34.2229 46.0535L30.0861 39.7852L29.9634 43.813L34.2229 46.0535Z" fill="url(#paint28_linear_2553_169)"/>
<path style="mix-blend-mode:color-dodge" opacity="0.5" d="M29.9634 32.9443L30.0861 39.7852L32.0932 37.2601L29.9634 32.9443Z" fill="url(#paint29_linear_2553_169)"/>
<path style="mix-blend-mode:color-dodge" opacity="0.5" d="M36.8552 37.9515L30.0859 39.7848L32.093 37.2598L36.8552 37.9515Z" fill="url(#paint30_linear_2553_169)"/>
<path style="mix-blend-mode:color-dodge" opacity="0.5" d="M36.8552 37.9515L30.0859 39.7848L32.093 37.2598L36.8552 37.9515Z" fill="url(#paint31_linear_2553_169)"/>
<path style="mix-blend-mode:color-dodge" opacity="0.5" d="M27.8334 37.2598L30.0859 39.7848L23.0713 37.9515L27.8334 37.2598Z" fill="url(#paint32_linear_2553_169)"/>
<path d="M32.0933 38.7616C31.7389 39.0614 32.0422 39.2574 32.0422 39.2574L33.8653 38.7633C33.8653 38.7633 32.9111 38.0698 32.0933 38.7633V38.7616Z" fill="white"/>
<g style="mix-blend-mode:multiply" opacity="0.5">
<path d="M25.729 46.0542C25.729 46.0542 28.9594 44.5327 29.9885 44.1085L34.2481 46.0542L29.9885 43.8154L25.729 46.0542Z" fill="#89B1D9"/>
</g>
<g style="mix-blend-mode:multiply" opacity="0.5">
<path d="M23.0713 37.9521L30.0859 39.7855L26.2353 43.0994L23.0713 37.9521Z" fill="#89B1D9"/>
</g>
<g style="mix-blend-mode:multiply" opacity="0.5">
<path d="M36.8551 37.9521L30.0859 39.7855L33.8155 43.5407L36.8551 37.9521Z" fill="#89B1D9"/>
</g>
<g style="mix-blend-mode:multiply" opacity="0.5">
<path d="M25.729 46.0535L30.0857 39.7852L34.2464 46.0535L29.9868 45.3805L25.729 46.0535Z" fill="#89B1D9"/>
</g>
<g style="mix-blend-mode:soft-light" opacity="0.4">
<path d="M28.4026 36.5144C27.9494 37.7701 29.6754 38.6476 29.9071 38.2608C30.1388 37.8741 29.9923 35.717 29.7009 35.4257C29.4096 35.1343 28.5884 35.9999 28.4026 36.5144Z" fill="white"/>
</g>
<g style="mix-blend-mode:soft-light" opacity="0.4">
<path d="M26.9903 42.9497C27.9069 43.0741 28.4215 42.0297 28.614 41.3107C28.9258 40.1538 25.3222 42.7231 26.9903 42.9497Z" fill="white"/>
</g>
</g>
<defs>
<linearGradient id="paint0_linear_2553_169" x1="20.715" y1="28.1454" x2="20.715" y2="9.60102" gradientUnits="userSpaceOnUse">
<stop stop-color="#9EB8D2"/>
<stop offset="0.67" stop-color="#BBD2EC"/>
<stop offset="1" stop-color="#B6CEE8"/>
</linearGradient>
<linearGradient id="paint1_linear_2553_169" x1="19.1798" y1="22.3419" x2="19.1798" y2="4.86587" gradientUnits="userSpaceOnUse">
<stop stop-color="#9EB8D2"/>
<stop offset="0.67" stop-color="#BBD2EC"/>
<stop offset="1" stop-color="#B6CEE8"/>
</linearGradient>
<linearGradient id="paint2_linear_2553_169" x1="20.8955" y1="16.1797" x2="20.8955" y2="27.1761" gradientUnits="userSpaceOnUse">
<stop stop-color="#7E9AB2"/>
<stop offset="1" stop-color="white"/>
</linearGradient>
<linearGradient id="paint3_linear_2553_169" x1="39.4262" y1="28.1454" x2="39.4262" y2="9.60102" gradientUnits="userSpaceOnUse">
<stop stop-color="#9EB8D2"/>
<stop offset="0.67" stop-color="#BBD2EC"/>
<stop offset="1" stop-color="#B6CEE8"/>
</linearGradient>
<linearGradient id="paint4_linear_2553_169" x1="40.9918" y1="22.3419" x2="40.9918" y2="4.86587" gradientUnits="userSpaceOnUse">
<stop stop-color="#9EB8D2"/>
<stop offset="0.67" stop-color="#BBD2EC"/>
<stop offset="1" stop-color="#B6CEE8"/>
</linearGradient>
<linearGradient id="paint5_linear_2553_169" x1="39.2779" y1="0.000250356" x2="39.2779" y2="0.000250356" gradientUnits="userSpaceOnUse">
<stop stop-color="#7E9AB2"/>
<stop offset="1" stop-color="white"/>
</linearGradient>
<linearGradient id="paint6_linear_2553_169" x1="2.55549" y1="35.1323" x2="6.13628" y2="24.1117" gradientUnits="userSpaceOnUse">
<stop stop-color="#96BBE0"/>
<stop offset="0.67" stop-color="#B4D5F8"/>
<stop offset="1" stop-color="#AFD1F5"/>
</linearGradient>
<linearGradient id="paint7_linear_2553_169" x1="5.76379" y1="29.6199" x2="4.09212" y2="34.7648" gradientUnits="userSpaceOnUse">
<stop stop-color="#789DBF"/>
<stop offset="1" stop-color="white"/>
</linearGradient>
<linearGradient id="paint8_linear_2553_169" x1="56.5238" y1="35.1311" x2="52.943" y2="24.1105" gradientUnits="userSpaceOnUse">
<stop stop-color="#96BBE0"/>
<stop offset="0.67" stop-color="#B4D5F8"/>
<stop offset="1" stop-color="#AFD1F5"/>
</linearGradient>
<linearGradient id="paint9_linear_2553_169" x1="53.3137" y1="29.6193" x2="54.9854" y2="34.7641" gradientUnits="userSpaceOnUse">
<stop stop-color="#789DBF"/>
<stop offset="1" stop-color="white"/>
</linearGradient>
<radialGradient id="paint10_radial_2553_169" cx="0" cy="0" r="1" gradientUnits="userSpaceOnUse" gradientTransform="translate(42.3639 17.7403) scale(37.6697 37.6697)">
<stop offset="0.01" stop-color="#5C6CBA"/>
<stop offset="1" stop-color="#81B3D4"/>
</radialGradient>
<radialGradient id="paint11_radial_2553_169" cx="0" cy="0" r="1" gradientUnits="userSpaceOnUse" gradientTransform="translate(49.2163 12.6118) scale(52.113 52.113)">
<stop offset="0.01" stop-color="#5C6CBA"/>
<stop offset="1" stop-color="#81B3D4"/>
</radialGradient>
<linearGradient id="paint12_linear_2553_169" x1="51.4653" y1="8.90432" x2="27.8453" y2="38.0413" gradientUnits="userSpaceOnUse">
<stop stop-color="#9CD3DE"/>
<stop offset="0.19" stop-color="#98CDDA"/>
<stop offset="0.41" stop-color="#8CBED0"/>
<stop offset="0.66" stop-color="#79A6C0"/>
<stop offset="0.93" stop-color="#5F84AA"/>
<stop offset="1" stop-color="#5779A3"/>
</linearGradient>
<linearGradient id="paint13_linear_2553_169" x1="13.8505" y1="56.0969" x2="34.5008" y2="30.2125" gradientUnits="userSpaceOnUse">
<stop stop-color="#42495E"/>
<stop offset="1" stop-color="#4A5780"/>
</linearGradient>
<linearGradient id="paint14_linear_2553_169" x1="29.6752" y1="38.8962" x2="29.6752" y2="46.7662" gradientUnits="userSpaceOnUse">
<stop stop-color="#B4E6F7"/>
<stop offset="0.23" stop-color="#CCEEF9"/>
<stop offset="0.51" stop-color="#E3F7FC"/>
<stop offset="0.77" stop-color="#F2FCFE"/>
<stop offset="1" stop-color="#F7FEFF"/>
</linearGradient>
<linearGradient id="paint15_linear_2553_169" x1="29.987" y1="31.9311" x2="29.987" y2="23.3472" gradientUnits="userSpaceOnUse">
<stop stop-color="#7CA7D2"/>
<stop offset="0.67" stop-color="#9EC1E4"/>
<stop offset="1" stop-color="#99BDE1"/>
</linearGradient>
<linearGradient id="paint16_linear_2553_169" x1="28.1094" y1="27.3301" x2="28.1094" y2="29.1821" gradientUnits="userSpaceOnUse">
<stop stop-color="#5889BA"/>
<stop offset="1" stop-color="white"/>
</linearGradient>
<linearGradient id="paint17_linear_2553_169" x1="31.9072" y1="-0.000894224" x2="31.9072" y2="-0.000894224" gradientUnits="userSpaceOnUse">
<stop stop-color="#5889BA"/>
<stop offset="1" stop-color="white"/>
</linearGradient>
<linearGradient id="paint18_linear_2553_169" x1="28.8354" y1="28.3408" x2="28.8354" y2="31.7945" gradientUnits="userSpaceOnUse">
<stop stop-color="#5889BA"/>
<stop offset="1" stop-color="white"/>
</linearGradient>
<linearGradient id="paint19_linear_2553_169" x1="31.1475" y1="28.3408" x2="31.1475" y2="31.7945" gradientUnits="userSpaceOnUse">
<stop stop-color="#5889BA"/>
<stop offset="1" stop-color="white"/>
</linearGradient>
<linearGradient id="paint20_linear_2553_169" x1="30.3212" y1="25.1396" x2="30.8477" y2="29.9563" gradientUnits="userSpaceOnUse">
<stop stop-color="white"/>
<stop offset="1" stop-color="#0C2844"/>
</linearGradient>
<linearGradient id="paint21_linear_2553_169" x1="30.0415" y1="27.6454" x2="33.7711" y2="27.6454" gradientUnits="userSpaceOnUse">
<stop stop-color="white"/>
<stop offset="1" stop-color="#0C2844"/>
</linearGradient>
<linearGradient id="paint22_linear_2553_169" x1="31.5971" y1="24.9993" x2="32.1218" y2="29.816" gradientUnits="userSpaceOnUse">
<stop stop-color="white"/>
<stop offset="1" stop-color="#0C2844"/>
</linearGradient>
<linearGradient id="paint23_linear_2553_169" x1="27.8453" y1="25.4082" x2="28.3701" y2="30.2249" gradientUnits="userSpaceOnUse">
<stop stop-color="white"/>
<stop offset="1" stop-color="#0C2844"/>
</linearGradient>
<linearGradient id="paint24_linear_2553_169" x1="29.9869" y1="46.2989" x2="29.9869" y2="30.7209" gradientUnits="userSpaceOnUse">
<stop stop-color="#7CA7D2"/>
<stop offset="0.67" stop-color="#9EC1E4"/>
<stop offset="1" stop-color="#99BDE1"/>
</linearGradient>
<linearGradient id="paint25_linear_2553_169" x1="26.5794" y1="37.9521" x2="26.5794" y2="41.3104" gradientUnits="userSpaceOnUse">
<stop stop-color="#5889BA"/>
<stop offset="1" stop-color="white"/>
</linearGradient>
<linearGradient id="paint26_linear_2553_169" x1="33.4714" y1="37.9521" x2="33.4714" y2="41.3104" gradientUnits="userSpaceOnUse">
<stop stop-color="#5889BA"/>
<stop offset="1" stop-color="white"/>
</linearGradient>
<linearGradient id="paint27_linear_2553_169" x1="27.8947" y1="39.7852" x2="27.8947" y2="46.0535" gradientUnits="userSpaceOnUse">
<stop stop-color="#5889BA"/>
<stop offset="1" stop-color="white"/>
</linearGradient>
<linearGradient id="paint28_linear_2553_169" x1="32.0932" y1="39.7852" x2="32.0932" y2="46.0535" gradientUnits="userSpaceOnUse">
<stop stop-color="#5889BA"/>
<stop offset="1" stop-color="white"/>
</linearGradient>
<linearGradient id="paint29_linear_2553_169" x1="30.5938" y1="33.9734" x2="31.5479" y2="42.714" gradientUnits="userSpaceOnUse">
<stop stop-color="white"/>
<stop offset="1" stop-color="#0C2844"/>
</linearGradient>
<linearGradient id="paint30_linear_2553_169" x1="30.0859" y1="38.5223" x2="36.8552" y2="38.5223" gradientUnits="userSpaceOnUse">
<stop stop-color="white"/>
<stop offset="1" stop-color="#0C2844"/>
</linearGradient>
<linearGradient id="paint31_linear_2553_169" x1="32.9092" y1="33.7209" x2="33.8633" y2="42.4615" gradientUnits="userSpaceOnUse">
<stop stop-color="white"/>
<stop offset="1" stop-color="#0C2844"/>
</linearGradient>
<linearGradient id="paint32_linear_2553_169" x1="26.0989" y1="34.4638" x2="27.0531" y2="43.2044" gradientUnits="userSpaceOnUse">
<stop stop-color="white"/>
<stop offset="1" stop-color="#0C2844"/>
</linearGradient>
<clipPath id="clip0_2553_169">
<rect width="60" height="62" fill="white"/>
</clipPath>
</defs>
</svg>
