<svg width="18" height="19" viewBox="0 0 18 19" fill="none" xmlns="http://www.w3.org/2000/svg">
<path d="M12.25 10.2109C12.25 9.24444 11.4665 8.46094 10.5 8.46094H4.5C3.5335 8.46094 2.75 9.24444 2.75 10.2109V10.7109C2.75 11.7899 3.26536 12.3662 4.12603 12.9114C4.97516 13.4493 6.15255 13.7109 7.5 13.7109C9.08881 13.7109 10.2749 13.4524 11.0693 12.9062C11.8824 12.3472 12.25 11.7622 12.25 10.7109V10.2109ZM4.25 10.2109C4.25 10.0729 4.36193 9.96094 4.5 9.96094H10.5C10.6381 9.96094 10.75 10.0729 10.75 10.2109V10.7109C10.75 10.9773 10.7154 11.0395 10.6479 11.1609C10.6309 11.1915 10.6118 11.2258 10.5906 11.2681C10.4871 11.4752 10.3266 11.6456 10.0878 11.7836C9.59534 12.0683 8.77899 12.2109 7.5 12.2109C6.48116 12.2109 5.6537 12.0712 5.08981 11.7782C4.81113 11.6334 4.60366 11.4548 4.46536 11.2432C4.43323 11.194 4.40434 11.156 4.37894 11.1226C4.29577 11.0132 4.25 10.9529 4.25 10.7109V10.2109ZM10 5.46094C10 6.84165 8.88071 7.96094 7.5 7.96094C6.11929 7.96094 5 6.84165 5 5.46094C5 4.08023 6.11929 2.96094 7.5 2.96094C8.88071 2.96094 10 4.08023 10 5.46094ZM8.5 5.46094C8.5 4.90865 8.05228 4.46094 7.5 4.46094C6.94772 4.46094 6.5 4.90865 6.5 5.46094C6.5 6.01322 6.94772 6.46094 7.5 6.46094C8.05228 6.46094 8.5 6.01322 8.5 5.46094ZM0 4.21094C0 2.41601 1.45507 0.960938 3.25 0.960938H11.75C13.5449 0.960938 15 2.41601 15 4.21094V12.7109C15 14.5059 13.5449 15.9609 11.75 15.9609H3.25C1.45507 15.9609 0 14.5059 0 12.7109V4.21094ZM3.25 2.46094C2.2835 2.46094 1.5 3.24444 1.5 4.21094V12.7109C1.5 13.6774 2.2835 14.4609 3.25 14.4609H11.75C12.7165 14.4609 13.5 13.6774 13.5 12.7109V4.21094C13.5 3.24444 12.7165 2.46094 11.75 2.46094H3.25ZM5.74999 18.4609C4.59938 18.4609 3.58843 17.863 3.01089 16.9609H12.25C14.3211 16.9609 16 15.282 16 13.2109V3.9718C16.9021 4.54934 17.5 5.56029 17.5 6.71089V13.2109C17.5 16.1104 15.1495 18.4609 12.25 18.4609H5.74999Z" fill="white"/>
</svg>
